<?xml version="1.0" encoding="UTF-8" standalone="no"?><svg xmlns="http://www.w3.org/2000/svg" xmlns:xlink="http://www.w3.org/1999/xlink" contentScriptType="text/ecmascript" zoomAndPan="magnify" contentStyleType="text/css" id="图层_1" mapName="北京" mapType="省市地图" enable-background="new 0 0 720 660" version="1.1" xml:space="preserve" preserveAspectRatio="xMidYMid meet" viewBox="0 0 720 660" x="0px" y="0px"><path  id="_u4e1c__u57ce__u533a_" title="东城区" name="东城区" stroke-miterlimit="10" stroke="#FFFFFF" fill="#D3D3D3" d="M 317.7293 454.8963 L 317.4446 455.2381 L 312.2744 454.902 L 309.7228 455.4986 L 310.3203 458.1696 L 309.4045 459.8438 L 307.9083 459.4789 L 304.8764 459.9364 L 304.7311 458.4939 L 302.8441 456.8428 L 300.9068 457.312 L 300.8956 455.4986 L 305.8368 455.1224 L 305.4403 445.6994 L 305.0328 445.4271 L 304.8932 442.3816 L 304.0111 442.4222 L 303.9887 437.2465 L 305.9374 436.8357 L 305.1946 435.1512 L 305.055 430.9669 L 304.5469 430.7644 L 304.3013 424.8102 L 302.5482 424.9316 L 302.7827 423.5375 L 303.2739 422.7508 L 308.1817 423.0918 L 308.0813 418.8866 L 309.0417 419.789 L 309.1255 422.1143 L 309.868 423.0918 L 312.7155 423.0573 L 313.8211 424.839 L 313.9495 427.3733 L 315.8758 427.6972 L 315.5351 426.6734 L 317.3552 427.5352 L 316.9085 429.1034 L 318.4496 428.7794 L 317.7461 432.1762 L 317.7405 435.0238 L 315.2393 435.0181 L 315.4179 440.2567 L 315.8198 444.5008 L 319.0861 444.0722 L 318.578 445.2128 L 318.6675 447.2974 L 319.6612 447.3323 L 319.678 448.6989 L 317.8411 448.7741 L 318.2654 452.6027 L 317.7293 454.8963 Z"/>
<path  id="_u897f__u57ce__u533a_" title="西城区" name="西城区" stroke-miterlimit="10" stroke="#FFFFFF" fill="#D3D3D3" d="M 286.267 446.3708 L 289.3379 446.1569 L 288.8186 445.7802 L 288.6288 437.1597 L 288.2045 431.4991 L 286.8421 430.145 L 288.1599 429.5316 L 290.4435 430.2838 L 293.3748 429.6242 L 293.2685 427.1244 L 294.3853 429.5316 L 298.5952 427.929 L 298.1707 421.0556 L 300.8451 420.9573 L 300.9791 419.3433 L 304.5023 419.2913 L 304.5192 420.5234 L 303.4304 420.8762 L 302.7827 423.5375 L 302.5482 424.9316 L 304.3013 424.8102 L 304.5469 430.7644 L 305.055 430.9669 L 305.1946 435.1512 L 305.9374 436.8357 L 303.9887 437.2465 L 304.0111 442.4222 L 304.8932 442.3816 L 305.0328 445.4271 L 305.4403 445.6994 L 305.8368 455.1224 L 300.8956 455.4986 L 292.8832 456.3736 L 292.5874 454.63 L 291.2028 454.6069 L 290.4769 453.7148 L 288.7964 454.0622 L 286.4904 453.4656 L 285.0722 454.0565 L 284.9213 451.8092 L 286.2726 448.3921 L 286.267 446.3708 Z"/>
<path  id="_u671d__u9633__u533a_" title="朝阳区" name="朝阳区" stroke-miterlimit="10" stroke="#FFFFFF" fill="#D3D3D3" d="M 358.2871 403.3958 L 359.8281 404.6906 L 364.7861 405.4307 L 366.9859 406.9048 L 366.355 408.5178 L 368.2143 409.6914 L 369.5097 408.7894 L 370.8719 410.7843 L 371.1568 413.3286 L 370.241 413.126 L 369.9227 414.3 L 368.4599 414.5428 L 368.5603 416.1451 L 370.107 415.8212 L 370.6431 420.46 L 370.9779 426.3665 L 371.5642 428.8606 L 368.0802 427.2344 L 367.6168 428.7969 L 368.4041 430.6658 L 367.3992 431.4415 L 367.2985 434.0804 L 365.9251 434.5549 L 367.6392 437.5128 L 365.0707 437.0034 L 365.6181 440.3087 L 364.8809 442.4973 L 365.7129 443.7073 L 365.0876 445.6357 L 363.5633 446.8286 L 363.6415 448.8609 L 366.8406 448.6178 L 367.2149 451.78 L 365.9697 451.9363 L 366.1318 453.3264 L 364.8139 456.2807 L 366.6732 459.224 L 363.0665 462.9612 L 360.5931 463.0017 L 360.7215 464.404 L 361.7096 464.2591 L 359.9843 466.3281 L 360.0738 469.5505 L 359.2026 469.5562 L 359.2696 471.7184 L 357.1983 471.44 L 357.2317 472.3272 L 355.1323 471.9562 L 356.0089 470.7793 L 353.4628 471.0228 L 353.3737 469.904 L 351.3021 468.9015 L 348.4213 468.4782 L 344.4346 468.339 L 344.1722 470.0723 L 341.6374 469.1738 L 342.9606 470.785 L 342.1065 471.9907 L 339.6833 471.2489 L 339.5492 470.2343 L 337.0924 470.2055 L 335.6074 470.9879 L 335.4846 473.1908 L 333.5246 474.0604 L 334.3288 474.4663 L 332.2965 475.2373 L 331.5371 474.1356 L 328.9407 474.8141 L 328.8403 476.2982 L 325.9034 477.3476 L 324.3567 475.6606 L 322.8381 475.1501 L 320.1581 472.6344 L 317.8019 473.3648 L 318.338 471.3243 L 315.8702 471.0634 L 315.9538 469.9157 L 314.1057 470.1069 L 312.8105 469.4693 L 314.6362 469.1041 L 315.8868 466.1138 L 316.9141 466.7104 L 317.3776 465.279 L 318.5446 465.0704 L 318.3548 463.6219 L 319.5552 463.4884 L 319.7338 462.3122 L 322.1794 463.5176 L 324.1781 460.8868 L 322.9833 460.8114 L 321.0458 459.0329 L 320.5545 459.6875 L 318.9409 458.1696 L 318.4552 459.1603 L 317.5506 457.3003 L 317.7293 454.8963 L 318.2654 452.6027 L 317.8411 448.7741 L 319.678 448.6989 L 319.6612 447.3323 L 318.6675 447.2974 L 318.578 445.2128 L 319.0861 444.0722 L 315.8198 444.5008 L 315.4179 440.2567 L 315.2393 435.0181 L 317.7405 435.0238 L 317.7461 432.1762 L 318.4496 428.7794 L 316.9085 429.1034 L 317.3552 427.5352 L 315.5351 426.6734 L 315.8758 427.6972 L 313.9495 427.3733 L 313.8211 424.839 L 312.7155 423.0573 L 309.868 423.0918 L 309.1255 422.1143 L 309.0417 419.789 L 308.0813 418.8866 L 308.1817 423.0918 L 303.2739 422.7508 L 302.7827 423.5375 L 303.4304 420.8762 L 304.5192 420.5234 L 304.5023 419.2913 L 300.9791 419.3433 L 301.0574 417.4694 L 299.818 412.1314 L 292.9615 400.1243 L 300.3931 398.5292 L 304.7704 397.9336 L 303.475 396.6047 L 303.5812 394.9344 L 304.2009 394.7728 L 304.8318 396.541 L 307.4838 395.755 L 308.4498 394.2182 L 307.7129 391.9124 L 308.6396 389.8271 L 310.2477 389.6939 L 314.96 387.4584 L 317.5229 387.799 L 319.8622 388.7118 L 319.8064 387.8108 L 321.9391 388.2728 L 322.6651 385.6677 L 321.7328 384.5759 L 321.783 382.6468 L 322.7935 382.2944 L 322.5925 380.8566 L 323.7651 380.3137 L 323.9213 377.5246 L 325.0381 377.8076 L 325.7136 379.1703 L 328.2206 379.8171 L 329.2143 380.7815 L 332.5979 381.0125 L 334.5856 383.1609 L 336.5007 384.5585 L 339.7166 384.2353 L 341.9556 385.8525 L 344.3062 388.4807 L 345.5346 387.3024 L 346.5953 388.3537 L 346.8634 390.0926 L 345.2051 392.2015 L 346.3273 393.4322 L 349.9287 395.5125 L 351.5926 398.0842 L 353.8147 397.8471 L 353.5523 399.8353 L 358.2871 403.3958 Z M 360.459 390.7801 L 359.0798 390.9246 L 359.9117 392.6636 L 359.3201 392.8369 L 359.4261 394.8885 L 357.3379 394.2758 L 357.1257 391.1905 L 356.2604 391.6412 L 356.8408 389.6363 L 355.8973 383.1666 L 354.507 383.3513 L 354.5126 385.4769 L 353.6417 382.4101 L 352.62 375.4054 L 352.5529 371.2485 L 353.6863 373.0555 L 354.2334 378.1771 L 358.3819 377.5128 L 359.13 376.3409 L 359.0464 372.6515 L 360.2524 376.2081 L 360.403 378.7257 L 361.7208 390.0813 L 360.459 390.7801 Z"/>
<path  id="_u4e30__u53f0__u533a_" title="丰台区" name="丰台区" stroke-miterlimit="10" stroke="#FFFFFF" fill="#D3D3D3" d="M 268.4561 446.4174 L 270.3544 446.562 L 278.0373 446.4751 L 278.0482 449.915 L 280.1254 448.1023 L 283.1237 446.3769 L 286.267 446.3708 L 286.2726 448.3921 L 284.9213 451.8092 L 285.0722 454.0565 L 286.4904 453.4656 L 288.7964 454.0622 L 290.4769 453.7148 L 291.2028 454.6069 L 292.5874 454.63 L 292.8832 456.3736 L 300.8956 455.4986 L 300.9068 457.312 L 302.8441 456.8428 L 304.7311 458.4939 L 304.8764 459.9364 L 307.9083 459.4789 L 309.4045 459.8438 L 310.3203 458.1696 L 309.7228 455.4986 L 312.2744 454.902 L 317.4446 455.2381 L 317.7293 454.8963 L 317.5506 457.3003 L 318.4552 459.1603 L 318.9409 458.1696 L 320.5545 459.6875 L 321.0458 459.0329 L 322.9833 460.8114 L 324.1781 460.8868 L 322.1794 463.5176 L 319.7338 462.3122 L 319.5552 463.4884 L 318.3548 463.6219 L 318.5446 465.0704 L 317.3776 465.279 L 316.9141 466.7104 L 315.8868 466.1138 L 314.6362 469.1041 L 312.8105 469.4693 L 311.4369 471.3532 L 310.2923 470.3504 L 309.9294 472.1823 L 311.0014 472.6689 L 311.3533 475.353 L 308.7905 474.756 L 308.7512 476.7909 L 310.1526 476.3676 L 310.8228 477.2202 L 312.0734 477.1098 L 312.9445 478.9189 L 313.9271 479.5508 L 313.8937 482.9259 L 311.6937 482.9145 L 311.4817 485.2979 L 305.016 485.5474 L 305.5185 487.5658 L 305.781 492.9782 L 303.916 493.1872 L 303.5812 487.7805 L 302.2356 488.3547 L 300.5269 488.1632 L 300.3317 485.9361 L 297.4226 486.1796 L 296.9313 482.9085 L 297.5846 482.6707 L 297.2776 480.8904 L 294.5527 480.6586 L 294.2513 478.8086 L 290.527 478.1247 L 290.0916 480.0613 L 286.9147 480.3222 L 286.5406 481.4009 L 285.4855 481.4009 L 285.195 486.6552 L 284.1788 486.7189 L 282.2304 490.7736 L 281.2644 491.4756 L 279.7903 489.747 L 278.0987 484.0451 L 277.0155 483.2217 L 278.3331 482.404 L 276.4906 482.288 L 275.9713 481.1456 L 272.4986 481.9171 L 269.2824 483.3958 L 268.5119 481.6732 L 266.435 483.2972 L 266.2785 480.3165 L 266.9933 478.2522 L 266.4684 476.0953 L 264.5087 474.2167 L 264.1624 471.875 L 263.2581 471.2603 L 260.2374 471.1446 L 259.9472 471.9096 L 256.4517 472.0313 L 256.5412 474.0718 L 257.1552 474.8084 L 254.6597 476.9767 L 254.8327 478.5651 L 253.1744 480.9484 L 253.1744 485.0024 L 252.7836 488.6042 L 251.1979 488.4825 L 251.1867 487.7399 L 249.4782 487.3106 L 248.2386 487.8734 L 248.1382 486.6264 L 244.5929 486.4231 L 242.7223 491.7889 L 240.9244 492.6013 L 239.0374 491.9861 L 238.8083 492.7579 L 235.0061 492.7056 L 233.5822 494.2082 L 231.712 494.4869 L 230.651 490.3098 L 231.7176 488.2853 L 232.4825 489.103 L 233.3144 488.2853 L 234.6766 488.4359 L 234.392 486.835 L 232.6723 486.0404 L 231.5221 486.2202 L 231.2653 484.5093 L 227.6807 484.8803 L 227.8537 486.0522 L 226.3463 485.8956 L 224.5428 487.3918 L 223.7333 486.4929 L 223.8227 485.1241 L 222.1364 482.4909 L 222.5441 479.6555 L 221.9297 476.6983 L 222.2928 474.9878 L 223.2027 475.0052 L 222.8343 471.2432 L 223.242 470.2461 L 222.1756 469.3767 L 221.8069 470.6519 L 220.2715 469.5797 L 219.624 467.6495 L 217.6977 466.3049 L 215.6987 465.9109 L 213.8731 464.4677 L 214.3812 462.6888 L 218.2335 461.7038 L 218.0216 459.3166 L 217.2622 457.4163 L 218.0942 456.4605 L 220.1935 455.7941 L 222.5553 457.2771 L 224.8666 456.2519 L 227.0888 456.3213 L 227.4295 455.0006 L 229.2495 454.7514 L 231.2485 453.2456 L 232.8955 453.0776 L 234.4366 451.8961 L 238.6911 450.4654 L 239.59 450.9053 L 240.969 449.1333 L 242.8953 449.8979 L 243.8781 449.2319 L 247.0996 451.392 L 250.1035 451.8031 L 252.5267 451.1777 L 253.9001 452.3884 L 254.8495 454.4389 L 255.9103 454.2416 L 255.592 453.0313 L 257.7808 453.5176 L 257.8924 451.8726 L 258.8079 450.9285 L 260.0809 450.9808 L 260.0977 449.1158 L 261.929 448.9478 L 261.6332 448.0329 L 266.8034 446.5157 L 268.4561 446.4174 Z"/>
<path  id="_u77f3__u666f__u5c71__u533a_" title="石景山区" name="石景山区" stroke-miterlimit="10" stroke="#FFFFFF" fill="#D3D3D3" d="M 243.8781 449.2319 L 242.2925 446.3651 L 240.2658 444.8771 L 240.0759 442.8679 L 238.49 441.6405 L 236.4689 437.3622 L 234.0681 436.4997 L 233.2808 435.7532 L 233.4092 434.4278 L 232.5941 432.8013 L 231.2875 433.5653 L 229.1716 429.9485 L 229.8583 427.7147 L 231.3323 427.1476 L 230.0537 424.6713 L 231.5109 423.445 L 232.1141 421.177 L 230.4109 419.621 L 229.5734 416.2085 L 231.0362 414.572 L 237.9096 413.4788 L 239.7521 411.9637 L 240.9637 413.4962 L 241.4995 415.2776 L 243.8279 414.0573 L 244.4644 416.9778 L 245.0673 417.8165 L 246.8094 415.96 L 247.0494 413.797 L 249.0986 415.3584 L 248.7579 417.4694 L 248.8919 420.2112 L 250.193 420.9285 L 250.2095 421.958 L 252.979 423.4738 L 256.1057 427.8015 L 256.8092 429.6534 L 257.0268 432.2748 L 256.2005 433.3976 L 257.0047 434.1092 L 256.1671 434.9429 L 256.8706 435.5794 L 254.7377 436.0077 L 254.492 439.2959 L 260.9297 438.2771 L 261.3374 439.1973 L 262.7444 438.6591 L 266.2898 438.1671 L 266.8259 439.6893 L 266.8259 446.3131 L 268.4561 446.4174 L 266.8034 446.5157 L 261.6332 448.0329 L 261.929 448.9478 L 260.0977 449.1158 L 260.0809 450.9808 L 258.8079 450.9285 L 257.8924 451.8726 L 257.7808 453.5176 L 255.592 453.0313 L 255.9103 454.2416 L 254.8495 454.4389 L 253.9001 452.3884 L 252.5267 451.1777 L 250.1035 451.8031 L 247.0996 451.392 L 243.8781 449.2319 Z"/>
<path  id="_u6d77__u6dc0__u533a_" title="海淀区" name="海淀区" stroke-miterlimit="10" stroke="#FFFFFF" fill="#D3D3D3" d="M 286.267 446.3708 L 283.1237 446.3769 L 280.1254 448.1023 L 278.0482 449.915 L 278.0373 446.4751 L 270.3544 446.562 L 268.4561 446.4174 L 266.8259 446.3131 L 266.8259 439.6893 L 266.2898 438.1671 L 262.7444 438.6591 L 261.3374 439.1973 L 260.9297 438.2771 L 254.492 439.2959 L 254.7377 436.0077 L 256.8706 435.5794 L 256.1671 434.9429 L 257.0047 434.1092 L 256.2005 433.3976 L 257.0268 432.2748 L 256.8092 429.6534 L 256.1057 427.8015 L 252.979 423.4738 L 250.2095 421.958 L 250.193 420.9285 L 248.8919 420.2112 L 248.7579 417.4694 L 249.0986 415.3584 L 247.0494 413.797 L 246.8094 415.96 L 245.0673 417.8165 L 244.4644 416.9778 L 243.8279 414.0573 L 241.4995 415.2776 L 240.9637 413.4962 L 239.7521 411.9637 L 240.5392 410.5992 L 242.4431 409.6338 L 245.235 409.4024 L 246.0947 407.3498 L 243.275 404.5286 L 243.0518 403.65 L 241.2819 402.1413 L 239.1377 401.7426 L 236.6868 399.4017 L 233.8727 398.558 L 232.2815 399.0724 L 229.8583 397.8816 L 227.4463 398.165 L 225.5533 397.5929 L 224.6656 398.3152 L 221.7736 398.6274 L 220.1543 397.9685 L 219.3391 395.42 L 217.4521 391.1442 L 218.2728 387.5449 L 216.6313 385.6158 L 216.3745 383.6344 L 213.8563 381.7804 L 212.9853 379.6035 L 212.332 379.2625 L 213.125 376.9991 L 214.2081 375.3014 L 215.8272 374.1872 L 216.084 373.0267 L 217.8261 372.282 L 218.6858 370.7349 L 218.9985 368.5356 L 220.076 368.6741 L 221.8294 366.8211 L 223.2532 367.1504 L 224.928 366.4634 L 226.5807 368.3394 L 227.5467 367.6178 L 229.5344 368.4779 L 233.3702 368.1949 L 234.5818 368.6627 L 234.7717 366.4288 L 240.0535 366.2786 L 244.5536 365.2861 L 243.9785 363.901 L 245.1455 364.0857 L 244.3024 361.4137 L 244.0511 359.1347 L 245.7708 358.5114 L 247.4515 357.196 L 248.1663 355.0441 L 248.06 353.3481 L 250.5614 354.2132 L 251.1533 352.6444 L 253.2583 352.3211 L 253.5373 354.8881 L 254.1906 356.169 L 254.358 358.6904 L 255.9437 359.5961 L 256.8036 358.6612 L 261.7002 361.0097 L 265.24 361.1425 L 264.7041 367.3291 L 263.8497 367.4794 L 264.2574 369.3034 L 263.4925 371.1795 L 264.9497 372.126 L 266.7589 371.7106 L 267.5961 372.4379 L 268.5845 371.5718 L 268.1712 369.7765 L 269.5895 370.2614 L 269.7403 372.5995 L 268.2382 373.4888 L 270.0976 375.9194 L 272.2583 375.6076 L 272.1969 376.6296 L 274.0116 381.2379 L 276.8033 380.0307 L 280.1644 387.9841 L 280.9795 387.1867 L 281.9009 388.0532 L 284.2627 387.678 L 286.3062 390.1215 L 287.8694 389.2782 L 287.5904 387.0657 L 289.7456 388.6541 L 290.1308 390.0175 L 290.9572 389.8904 L 290.7729 388.3999 L 291.9175 388.1169 L 291.8393 386.9674 L 294.6755 386.1298 L 296.2054 386.1586 L 296.239 385.0786 L 298.7458 385.269 L 298.9636 386.2683 L 301.2528 385.991 L 301.4984 387.7068 L 300.5437 388.6253 L 298.6734 389.0354 L 298.8689 390.2835 L 297.3724 390.6067 L 297.9587 392.9121 L 299.7005 393.4439 L 299.9072 394.4086 L 302.1237 394.3741 L 303.5812 394.9344 L 303.475 396.6047 L 304.7704 397.9336 L 300.3931 398.5292 L 292.9615 400.1243 L 299.818 412.1314 L 301.0574 417.4694 L 300.9791 419.3433 L 300.8451 420.9573 L 298.1707 421.0556 L 298.5952 427.929 L 294.3853 429.5316 L 293.2685 427.1244 L 293.3748 429.6242 L 290.4435 430.2838 L 288.1599 429.5316 L 286.8421 430.145 L 288.2045 431.4991 L 288.6288 437.1597 L 288.8186 445.7802 L 289.3379 446.1569 L 286.267 446.3708 Z"/>
<path  id="_u95e8__u5934__u6c9f__u533a_" title="门头沟区" name="门头沟区" stroke-miterlimit="10" stroke="#FFFFFF" fill="#D3D3D3" d="M 239.7521 411.9637 L 237.9096 413.4788 L 231.0362 414.572 L 229.5734 416.2085 L 230.4109 419.621 L 232.1141 421.177 L 231.5109 423.445 L 230.0537 424.6713 L 231.3323 427.1476 L 229.8583 427.7147 L 229.1716 429.9485 L 231.2875 433.5653 L 232.5941 432.8013 L 233.4092 434.4278 L 233.2808 435.7532 L 234.0681 436.4997 L 236.4689 437.3622 L 238.49 441.6405 L 240.0759 442.8679 L 240.2658 444.8771 L 242.2925 446.3651 L 243.8781 449.2319 L 242.8953 449.8979 L 240.969 449.1333 L 239.59 450.9053 L 238.6911 450.4654 L 234.4366 451.8961 L 232.8955 453.0776 L 231.2485 453.2456 L 229.2495 454.7514 L 227.4295 455.0006 L 227.0888 456.3213 L 224.8666 456.2519 L 222.5553 457.2771 L 220.1935 455.7941 L 218.0942 456.4605 L 217.2622 457.4163 L 218.0216 459.3166 L 218.2335 461.7038 L 214.3812 462.6888 L 213.8731 464.4677 L 211.5169 463.9811 L 210.4449 464.8504 L 208.1165 464.4851 L 207.374 465.3545 L 204.895 466.3512 L 204.1859 466.044 L 203.7392 463.3029 L 201.3887 463.2161 L 196.9553 466.5079 L 195.085 463.3435 L 196.1236 459.5252 L 195.7549 457.793 L 197.3798 456.8485 L 198.5465 454.0679 L 196.6595 453.6511 L 192.9464 455.7304 L 193.0247 456.5299 L 190.9366 456.7211 L 190.6909 455.1743 L 188.9544 456.6631 L 187.0393 457.0514 L 185.8891 455.4524 L 179.9094 453.703 L 178.4185 450.8651 L 182.1427 445.8557 L 184.5883 444.5702 L 184.7838 441.3219 L 183.5722 438.9948 L 182.1595 438.9079 L 180.021 440.1524 L 173.6338 440.2336 L 169.9432 439.0759 L 166.9337 439.5448 L 165.4038 440.7836 L 164.1252 443.2442 L 162.1431 444.7439 L 157.9668 446.2782 L 156.2359 444.9985 L 155.2588 445.3751 L 153.07 441.461 L 150.9036 440.2624 L 148.8435 440.3205 L 147.7102 438.2305 L 145.1751 437.3391 L 143.9747 437.8022 L 139.0111 437.8948 L 137.7104 436.2451 L 135.5998 437.7559 L 132.4338 438.9428 L 132.2384 439.8167 L 127.5317 442.4279 L 124.9579 442.7985 L 124.4162 443.5859 L 121.6357 443.4062 L 116.9904 445.3345 L 116.3258 446.5851 L 114.5279 447.7029 L 113.35 450.0136 L 111.4573 450.2222 L 110.5191 450.9634 L 107.1358 451.4557 L 105.5333 453.9811 L 104.4221 453.7842 L 103.1715 455.3541 L 100.7596 455.2035 L 98.6546 456.9934 L 98.3529 458.3027 L 96.8567 460.3422 L 95.9802 465.2502 L 94.5117 466.2701 L 93.6966 468.5651 L 92.3061 470.449 L 91.5917 473.1733 L 90.1288 474.2285 L 89.1015 475.9272 L 86.4436 476.3619 L 84.2828 476.101 L 82.7308 474.9821 L 78.6101 472.7444 L 78.1747 471.5735 L 75.1206 469.8926 L 73.9258 470.1766 L 72.8651 468.281 L 69.6601 467.1743 L 68.7222 464.7749 L 70.0454 463.8536 L 71.7594 459.9018 L 71.6422 456.5531 L 73.0883 455.9564 L 73.5795 453.7899 L 72.809 453.8942 L 70.2352 452.2029 L 68.4653 451.8206 L 68.1973 450.8651 L 71.9325 445.6126 L 71.1619 444.321 L 66.818 439.5967 L 64.4509 438.8385 L 62.3905 436.7428 L 60.6319 432.4656 L 58.4151 431.4297 L 56.2992 430.9377 L 54.25 429.4679 L 53.0552 428.0735 L 51.6482 427.8535 L 50.9949 426.945 L 49.359 426.5171 L 48.6387 427.1013 L 46.0703 427.3038 L 45.4282 425.4004 L 46.2769 421.9811 L 45.339 420.3732 L 46.4667 416.9372 L 46.7012 415.2082 L 48.9177 412.681 L 50.8107 411.5358 L 52.5303 412.0331 L 52.2233 408.9225 L 50.5202 407.0144 L 50.3472 405.7542 L 52.9938 402.2282 L 53.6469 399.0549 L 55.283 398.1764 L 57.3543 398.2746 L 60.0624 396.7549 L 62.8484 394.0562 L 62.6698 393.2068 L 66.0421 390.9477 L 68.5713 387.233 L 68.3759 386.3203 L 69.7773 385.8005 L 73.0826 382.5486 L 75.9023 381.9424 L 77.6052 382.6063 L 79.7157 381.4166 L 80.5979 380.2155 L 80.1344 376.9991 L 82.7196 374.7703 L 83.881 375.2612 L 86.131 373.7369 L 86.7562 375.3246 L 88.2247 375.85 L 90.0058 375.3132 L 90.458 370.4059 L 90.9998 370.8331 L 91.1114 368.2355 L 92.2503 366.908 L 94.3497 366.8906 L 96.8177 367.9297 L 98.1967 367.3697 L 99.1739 368.2298 L 100.888 367.6755 L 102.0828 368.4085 L 104.1597 367.7969 L 103.6684 366.6193 L 104.3887 364.5475 L 107.119 362.8968 L 107.9007 364.0281 L 113.4896 363.0181 L 114.1651 362.4005 L 115.7118 363.1623 L 117.342 362.6661 L 118.442 364.5186 L 119.7652 363.9932 L 122.4063 364.4549 L 122.1326 363.728 L 120.4575 363.4738 L 119.1175 362.4988 L 121.5073 361.8235 L 123.428 362.1467 L 125.8176 363.7739 L 128.2966 363.5721 L 130.1615 362.5621 L 132.3335 360.606 L 133.8297 357.8478 L 132.4117 355.1651 L 133.6903 351.5138 L 135.7952 351.7387 L 137.3974 350.6946 L 138.6817 346.9055 L 142.4171 346.0116 L 142.3947 348.9642 L 143.1708 349.4893 L 146.4425 353.827 L 147.6376 355.0729 L 151.8306 355.3036 L 153.6395 356.238 L 155.4318 357.8596 L 155.0243 356.1458 L 158.2683 357.2651 L 160.1276 356.4691 L 160.9817 357.1326 L 163.2877 356.7172 L 164.7785 358.2689 L 165.6828 358.4135 L 167.6706 360.1211 L 172.7012 360.2482 L 173.7731 361.1713 L 174.3317 360.4387 L 178.3069 361.7544 L 181.5508 365.1936 L 185.3754 371.3931 L 184.1249 372.8419 L 186.6484 373.6675 L 187.726 375.4399 L 187.9214 373.7889 L 189.2839 373.194 L 189.1611 376.0173 L 188.7256 376.7161 L 190.3615 379.5284 L 190.892 382.7565 L 193.2033 381.4917 L 193.9404 380.5561 L 195.6601 379.9154 L 198.5746 380.412 L 200.6515 381.2204 L 201.3606 380.9317 L 204.8504 383.0801 L 207.5358 380.3714 L 208.34 381.2724 L 209.4007 379.5398 L 210.9696 379.9036 L 212.332 379.2625 L 212.9853 379.6035 L 213.8563 381.7804 L 216.3745 383.6344 L 216.6313 385.6158 L 218.2728 387.5449 L 217.4521 391.1442 L 219.3391 395.42 L 220.1543 397.9685 L 221.7736 398.6274 L 224.6656 398.3152 L 225.5533 397.5929 L 227.4463 398.165 L 229.8583 397.8816 L 232.2815 399.0724 L 233.8727 398.558 L 236.6868 399.4017 L 239.1377 401.7426 L 241.2819 402.1413 L 243.0518 403.65 L 243.275 404.5286 L 246.0947 407.3498 L 245.235 409.4024 L 242.4431 409.6338 L 240.5392 410.5992 L 239.7521 411.9637 Z"/>
<path  id="_u623f__u5c71__u533a_" title="房山区" name="房山区" stroke-miterlimit="10" stroke="#FFFFFF" fill="#D3D3D3" d="M 213.8731 464.4677 L 215.6987 465.9109 L 217.6977 466.3049 L 219.624 467.6495 L 220.2715 469.5797 L 221.8069 470.6519 L 222.1756 469.3767 L 223.242 470.2461 L 222.8343 471.2432 L 223.2027 475.0052 L 222.2928 474.9878 L 221.9297 476.6983 L 222.5441 479.6555 L 222.1364 482.4909 L 223.8227 485.1241 L 223.7333 486.4929 L 224.5428 487.3918 L 226.3463 485.8956 L 227.8537 486.0522 L 227.6807 484.8803 L 231.2653 484.5093 L 231.5221 486.2202 L 232.6723 486.0404 L 234.392 486.835 L 234.6766 488.4359 L 233.3144 488.2853 L 232.4825 489.103 L 231.7176 488.2853 L 230.651 490.3098 L 231.712 494.4869 L 233.5822 494.2082 L 235.0061 492.7056 L 238.8083 492.7579 L 239.0374 491.9861 L 240.9244 492.6013 L 242.7223 491.7889 L 244.5929 486.4231 L 248.1382 486.6264 L 248.2386 487.8734 L 249.4782 487.3106 L 251.1867 487.7399 L 251.1979 488.4825 L 252.7836 488.6042 L 253.1744 485.0024 L 253.1744 480.9484 L 254.8327 478.5651 L 254.6597 476.9767 L 257.1552 474.8084 L 256.5412 474.0718 L 256.4517 472.0313 L 259.9472 471.9096 L 260.2374 471.1446 L 263.2581 471.2603 L 264.1624 471.875 L 264.5087 474.2167 L 266.4684 476.0953 L 266.9933 478.2522 L 266.2785 480.3165 L 266.435 483.2972 L 266.4572 487.0497 L 267.0379 488.1169 L 266.6918 490.884 L 267.2111 493.9124 L 266.6918 495.5371 L 266.5354 498.9488 L 264.4136 501.5952 L 265.5024 504.8052 L 265.6199 506.4477 L 264.8995 507.8528 L 264.7041 509.8673 L 262.4595 511.8469 L 261.2089 514.2801 L 261.8511 515.064 L 260.9409 519.1464 L 258.3503 524.0953 L 259.5283 525.8265 L 258.3781 527.9994 L 258.864 528.9812 L 257.2167 533.6646 L 256.8148 536.6983 L 257.7194 542.052 L 257.8868 545.2843 L 257.5071 549.1393 L 258.8584 553.0124 L 258.7131 554.1815 L 259.6455 554.8739 L 259.3774 557.689 L 258.3335 559.5273 L 254.8439 559.952 L 254.3468 557.9973 L 253.1408 556.8745 L 251.7172 556.9735 L 251.84 555.9439 L 250.1649 556.5139 L 250.2151 555.7983 L 248.5235 555.2576 L 246.5582 555.5776 L 246.5189 557.0432 L 243.4761 557.8752 L 239.8079 557.9275 L 239.2272 561.6041 L 236.3349 562.3314 L 236.2401 563.0993 L 234.0903 563.5065 L 234.0738 562.8956 L 231.7288 562.5058 L 231.712 560.9527 L 230.4221 561.2784 L 229.6628 562.4652 L 227.6583 562.3545 L 227.5298 560.3649 L 226.3463 559.1257 L 226.5193 560.5162 L 225.6652 560.8711 L 209.758 562.0114 L 208.0831 561.8836 L 208.0551 561.063 L 205.8944 560.7081 L 206.2852 556.5082 L 204.8 557.014 L 203.0301 556.2697 L 202.9407 558.0613 L 202.109 558.067 L 201.316 560.1382 L 197.9995 560.1844 L 198.4686 558.003 L 196.8047 556.8396 L 196.8773 554.2338 L 193.5271 553.5592 L 193.1643 555.2519 L 193.4492 561.6913 L 192.4942 562.4069 L 190.9811 562.3488 L 190.6295 564.6239 L 189.5127 564.3039 L 187.9495 565.9329 L 187.2628 564.0942 L 186.0456 563.9953 L 185.7049 561.5287 L 184.0859 561.0399 L 184.1136 560.0741 L 182.7122 560.0449 L 182.7568 558.5384 L 181.9195 558.4974 L 181.7073 556.2697 L 180.5904 555.6065 L 180.6519 554.3794 L 179.0384 554.2163 L 178.9266 552.9893 L 175.9173 552.3264 L 175.303 551.7273 L 174.3987 555.5776 L 175.1636 556.1942 L 174.9177 557.7121 L 176.7493 558.0902 L 175.7275 561.2143 L 175.99 561.6913 L 174.6833 563.8151 L 171.5176 562.733 L 169.9208 563.4602 L 170.8253 565.5954 L 170.7303 567.6089 L 169.5801 567.8243 L 169.2955 569.5878 L 168.2011 569.4305 L 168.0337 570.4956 L 165.454 570.2396 L 165.1916 571.2115 L 163.6003 571.1182 L 163.5165 569.8787 L 162.4445 570.3386 L 160.6971 568.0453 L 159.5971 569.6633 L 158.5809 569.7217 L 158.1732 572.2125 L 157.1405 572.8237 L 153.5447 572.9166 L 153.4665 575.0006 L 152.3777 575.4431 L 151.959 576.7527 L 151.0155 576.6712 L 151.1717 578.7498 L 152.3219 579.6462 L 152.4113 580.9388 L 151.1605 581.0263 L 151.797 582.5866 L 153.7569 583.0352 L 153.5447 585.1141 L 151.6128 584.2405 L 143.9301 583.7981 L 141.881 583.9376 L 139.9883 582.6973 L 139.6199 583.0932 L 137.1855 581.9754 L 138.0956 583.7165 L 137.5371 584.4616 L 136.6272 582.3364 L 135.0581 582.6682 L 133.2044 582.121 L 130.9152 578.092 L 130.2619 574.7037 L 129.5418 573.6268 L 129.631 571.4735 L 126.3313 570.4838 L 126.3815 571.9914 L 124.9523 572.137 L 124.5838 568.1329 L 123.7519 566.1194 L 121.8982 565.1882 L 118.8441 565.1067 L 117.0686 564.205 L 117.6883 562.9131 L 118.8104 562.4944 L 118.6262 559.4109 L 117.4314 559.0268 L 117.6437 556.3743 L 116.3202 554.5364 L 116.3258 552.367 L 115.2651 550.7152 L 112.0489 548.9883 L 110.5025 546.5926 L 110.5303 548.5928 L 109.9218 550.1278 L 107.7776 551.9946 L 105.9074 551.6689 L 104.1207 552.4019 L 103.5902 550.8373 L 101.7477 550.6455 L 101.1782 552.844 L 99.4139 552.2392 L 97.4094 550.5757 L 95.8237 551.6226 L 93.8974 552.0121 L 92.429 551.7155 L 92.1444 552.8205 L 90.4693 553.216 L 88.7776 555.7927 L 84.9752 555.0248 L 85.5113 553.2509 L 83.747 552.1577 L 83.0267 550.0232 L 80.341 548.6744 L 79.6375 547.0169 L 78.0631 545.3484 L 76.2318 546.2262 L 74.6683 547.9531 L 74.836 548.9591 L 73.9536 551.0004 L 72.2563 552.4019 L 70.6763 553.0359 L 70.8159 554.4897 L 70.0454 555.1586 L 69.0236 550.1976 L 69.6209 547.2148 L 72.0387 544.7671 L 71.5808 544.0811 L 71.2402 540.1279 L 71.7819 537.7969 L 70.0229 537.3437 L 68.8559 536.222 L 67.5776 533.467 L 64.9253 533.3161 L 64.3614 534.4958 L 60.0512 534.1064 L 59.9059 532.7233 L 61.1399 529.5857 L 63.4737 527.5694 L 62.2453 525.9076 L 63.0438 524.2523 L 62.7926 522.9683 L 64.2944 521.2375 L 64.8249 521.5279 L 65.7295 519.5298 L 65.5899 517.7816 L 63.82 515.813 L 63.1835 515.9233 L 64.0264 513.7571 L 63.4457 511.1851 L 62.8148 504.6193 L 63.6803 502.5877 L 61.0673 501.3051 L 57.9294 501.3343 L 56.902 502.0249 L 54.5013 500.4347 L 49.5433 497.6723 L 48.2759 493.692 L 48.5437 491.528 L 47.3433 490.7679 L 46.3049 491.586 L 45.819 490.3098 L 47.4103 489.4568 L 48.1864 487.1365 L 50.671 485.9361 L 53.1725 487.2469 L 54.5125 487.1832 L 59.342 483.7379 L 61.313 481.2966 L 63.753 482.23 L 65.0762 483.9989 L 68.1134 486.4929 L 69.4759 484.8514 L 75.4725 483.6276 L 76.3154 482.6938 L 80.4361 482.3923 L 82.4182 479.5045 L 83.5628 479.1856 L 83.5067 477.3419 L 84.2828 476.101 L 86.4436 476.3619 L 89.1015 475.9272 L 90.1288 474.2285 L 91.5917 473.1733 L 92.3061 470.449 L 93.6966 468.5651 L 94.5117 466.2701 L 95.9802 465.2502 L 96.8567 460.3422 L 98.3529 458.3027 L 98.6546 456.9934 L 100.7596 455.2035 L 103.1715 455.3541 L 104.4221 453.7842 L 105.5333 453.9811 L 107.1358 451.4557 L 110.5191 450.9634 L 111.4573 450.2222 L 113.35 450.0136 L 114.5279 447.7029 L 116.3258 446.5851 L 116.9904 445.3345 L 121.6357 443.4062 L 124.4162 443.5859 L 124.9579 442.7985 L 127.5317 442.4279 L 132.2384 439.8167 L 132.4338 438.9428 L 135.5998 437.7559 L 137.7104 436.2451 L 139.0111 437.8948 L 143.9747 437.8022 L 145.1751 437.3391 L 147.7102 438.2305 L 148.8435 440.3205 L 150.9036 440.2624 L 153.07 441.461 L 155.2588 445.3751 L 156.2359 444.9985 L 157.9668 446.2782 L 162.1431 444.7439 L 164.1252 443.2442 L 165.4038 440.7836 L 166.9337 439.5448 L 169.9432 439.0759 L 173.6338 440.2336 L 180.021 440.1524 L 182.1595 438.9079 L 183.5722 438.9948 L 184.7838 441.3219 L 184.5883 444.5702 L 182.1427 445.8557 L 178.4185 450.8651 L 179.9094 453.703 L 185.8891 455.4524 L 187.0393 457.0514 L 188.9544 456.6631 L 190.6909 455.1743 L 190.9366 456.7211 L 193.0247 456.5299 L 192.9464 455.7304 L 196.6595 453.6511 L 198.5465 454.0679 L 197.3798 456.8485 L 195.7549 457.793 L 196.1236 459.5252 L 195.085 463.3435 L 196.9553 466.5079 L 201.3887 463.2161 L 203.7392 463.3029 L 204.1859 466.044 L 204.895 466.3512 L 207.374 465.3545 L 208.1165 464.4851 L 210.4449 464.8504 L 211.5169 463.9811 L 213.8731 464.4677 Z"/>
<path  id="_u901a__u5dde__u533a_" title="通州区" name="通州区" stroke-miterlimit="10" stroke="#FFFFFF" fill="#D3D3D3" d="M 392.9877 543.4531 L 391.8877 541.5522 L 392.446 538.1283 L 390.4473 537.6573 L 388.9564 537.8958 L 387.8006 536.7506 L 386.9465 534.2516 L 386.7455 531.503 L 387.4714 528.1041 L 387.1809 525.6289 L 384.4507 525.3445 L 384.2272 524.6877 L 382.3177 524.6531 L 381.0447 525.3616 L 379.5541 524.8853 L 377.7842 525.4662 L 377.1029 523.6539 L 378.052 522.2481 L 377.2481 521.0168 L 375.0092 520.4938 L 374.987 521.3535 L 373.1779 520.7437 L 373.2281 518.3974 L 372.0501 518.281 L 371.8266 516.2658 L 372.2677 515.1508 L 373.6523 515.064 L 373.6245 513.3567 L 371.38 512.9907 L 369.7553 510.314 L 369.5207 507.9047 L 367.8066 508.2475 L 366.9859 506.5466 L 365.255 506.4302 L 365.3164 507.2316 L 363.8146 507.3184 L 361.9163 509.5305 L 360.6935 509.7569 L 360.5482 511.1734 L 359.0408 512.1662 L 356.8576 512.3232 L 356.8464 511.6728 L 354.4568 511.969 L 354.105 512.7817 L 352.3909 513.1765 L 352.3407 511.2606 L 344.7809 511.0691 L 342.3019 512.1954 L 340.9338 511.7017 L 341.47 510.9819 L 340.0741 510.5234 L 340.6156 509.3735 L 342.017 509.989 L 342.6479 508.7641 L 342.877 506.442 L 341.2801 505.7396 L 341.4307 502.3207 L 342.9216 502.8722 L 342.4525 501.9494 L 340.1355 501.0093 L 341.0959 499.4946 L 338.9183 498.7402 L 339.499 494.2142 L 338.1366 493.0074 L 339.0857 491.5337 L 340.331 494.5449 L 343.5693 494.6841 L 343.424 492.8391 L 342.5195 492.0733 L 345.0041 491.9573 L 344.6971 490.6868 L 342.4247 491.5511 L 340.811 488.3604 L 342.944 487.4904 L 341.5591 485.6172 L 341.0345 483.7668 L 342.7988 482.0096 L 342.151 480.7743 L 343.9044 479.7018 L 343.5971 476.6054 L 341.6875 473.8283 L 343.3458 473.1502 L 342.1065 471.9907 L 342.9606 470.785 L 341.6374 469.1738 L 344.1722 470.0723 L 344.4346 468.339 L 348.4213 468.4782 L 351.3021 468.9015 L 353.3737 469.904 L 353.4628 471.0228 L 356.0089 470.7793 L 355.1323 471.9562 L 357.2317 472.3272 L 357.1983 471.44 L 359.2696 471.7184 L 359.2026 469.5562 L 360.0738 469.5505 L 359.9843 466.3281 L 361.7096 464.2591 L 360.7215 464.404 L 360.5931 463.0017 L 363.0665 462.9612 L 366.6732 459.224 L 364.8139 456.2807 L 366.1318 453.3264 L 365.9697 451.9363 L 367.2149 451.78 L 366.8406 448.6178 L 363.6415 448.8609 L 363.5633 446.8286 L 365.0876 445.6357 L 365.7129 443.7073 L 364.8809 442.4973 L 365.6181 440.3087 L 365.0707 437.0034 L 367.6392 437.5128 L 365.9251 434.5549 L 367.2985 434.0804 L 367.3992 431.4415 L 368.4041 430.6658 L 367.6168 428.7969 L 368.0802 427.2344 L 371.5642 428.8606 L 370.9779 426.3665 L 370.6431 420.46 L 370.107 415.8212 L 368.5603 416.1451 L 368.4599 414.5428 L 369.9227 414.3 L 370.241 413.126 L 371.1568 413.3286 L 370.8719 410.7843 L 369.5097 408.7894 L 368.2143 409.6914 L 366.355 408.5178 L 366.9859 406.9048 L 364.7861 405.4307 L 359.8281 404.6906 L 358.2871 403.3958 L 359.6997 402.916 L 360.2131 399.4825 L 362.1619 398.5174 L 363.2282 398.3266 L 363.2507 399.5982 L 364.6521 400.1126 L 364.8419 401.6152 L 365.9473 401.2051 L 366.7012 401.9737 L 368.4209 401.2051 L 369.1298 402.6152 L 373.1442 400.4593 L 373.2727 401.8291 L 374.3281 403.0199 L 375.5284 401.9217 L 376.7513 402.8522 L 377.7952 404.6674 L 380.425 404.2687 L 381.8433 404.4823 L 382.5132 406.6851 L 383.0717 406.3612 L 382.3233 403.7308 L 385.4388 403.8985 L 387.2255 402.4592 L 388.4764 400.1646 L 390.5365 401.1702 L 390.8157 402.65 L 391.441 401.6152 L 392.6414 402.0545 L 392.8035 400.9912 L 394.7298 401.7195 L 394.8077 400.6907 L 396.092 399.8004 L 398.7386 400.5925 L 398.733 401.806 L 399.9948 402.523 L 400.4025 403.9622 L 403.4732 403.9159 L 405.3325 404.4766 L 404.9865 405.4883 L 406.3988 408.5815 L 406.2984 412.2068 L 403.9981 415.9369 L 403.9142 418.0479 L 402.0885 420.3326 L 401.4801 423.3407 L 402.9485 425.2904 L 407.6887 427.5295 L 408.2192 428.2992 L 408.4202 432.3962 L 408.1634 435.1629 L 408.1132 441.5187 L 408.6658 444.4371 L 408.7886 448.2821 L 409.4251 449.915 L 411.4687 451.9018 L 413.9811 453.0833 L 414.0091 450.6102 L 415.0754 450.5985 L 415.0923 448.9189 L 416.1586 448.8901 L 416.3765 451.8843 L 417.4148 452.8284 L 419.1962 452.6547 L 420.1563 453.3901 L 422.7247 457.7812 L 423.3948 457.4106 L 425.4886 459.9598 L 426.9012 459.8032 L 428.4364 463.5752 L 430.3627 464.1259 L 430.508 465.1978 L 431.9652 465.8528 L 433.8691 465.7834 L 433.7799 464.7286 L 435.7452 464.9547 L 438.9053 469.2258 L 440.4688 469.904 L 441.5966 468.6811 L 440.3457 466.1077 L 440.3236 463.6507 L 442.3447 462.8106 L 444.2264 464.1259 L 446.4875 468.2233 L 447.2805 473.3819 L 447.0963 475.788 L 447.5261 476.7795 L 451.0213 480.2293 L 448.8662 480.4208 L 449.7985 483.2741 L 453.1431 483.8422 L 453.9357 485.7852 L 452.3891 486.0347 L 452.8526 488.4651 L 451.7974 488.8826 L 450.0609 487.4615 L 448.5925 487.3049 L 445.371 487.7225 L 443.9752 489.3931 L 445.1531 491.8238 L 442.4061 494.2548 L 441.7864 492.6767 L 440.0555 493.7789 L 439.9885 496.7731 L 441.485 496.5004 L 443.0928 500.0631 L 443.4335 501.5607 L 442.4341 501.8334 L 443.0258 503.7198 L 443.9415 503.6557 L 444.0254 505.2637 L 442.6517 505.2056 L 440.1839 505.9543 L 439.5084 507.1095 L 436.2589 507.3419 L 434.9803 509.8498 L 436.1305 511.3304 L 435.9351 513.9316 L 437.9281 517.8919 L 437.7997 518.8502 L 436.3203 519.6459 L 436.8786 520.8192 L 440.3457 519.7797 L 441.9818 522.5268 L 440.9601 522.9569 L 441.3509 524.4613 L 437.2081 525.652 L 435.0975 525.1992 L 432.4119 526.6107 L 429.9553 526.9653 L 429.0227 528.0806 L 426.2086 527.9759 L 426.5995 533.2114 L 423.3222 535.106 L 423.7577 536.2743 L 421.837 536.3149 L 422.0994 537.1287 L 420.0559 538.4188 L 420.5976 539.5059 L 419.9106 540.2325 L 423.138 544.1099 L 421.9822 544.3716 L 422.3226 545.9703 L 419.559 547.081 L 419.2797 545.9066 L 418.0906 545.2612 L 415.4663 546.8542 L 413.4284 547.6448 L 410.2069 548.2732 L 410.9606 551.2563 L 410.0392 551.0993 L 410.3911 553.4314 L 408.9953 553.373 L 408.8834 554.3384 L 407.0521 554.3794 L 406.17 552.3204 L 405.9858 550.0873 L 402.8925 547.1041 L 399.1741 544.924 L 397.9232 546.0344 L 396.2874 546.552 L 394.3221 545.2088 L 394.2383 543.86 L 392.9877 543.4531 Z"/>
<path  id="_u987a__u4e49__u533a_" title="顺义区" name="顺义区" stroke-miterlimit="10" stroke="#FFFFFF" fill="#D3D3D3" d="M 405.3325 404.4766 L 403.4732 403.9159 L 400.4025 403.9622 L 399.9948 402.523 L 398.733 401.806 L 398.7386 400.5925 L 396.092 399.8004 L 394.8077 400.6907 L 394.7298 401.7195 L 392.8035 400.9912 L 392.6414 402.0545 L 391.441 401.6152 L 390.8157 402.65 L 390.5365 401.1702 L 388.4764 400.1646 L 387.2255 402.4592 L 385.4388 403.8985 L 382.3233 403.7308 L 383.0717 406.3612 L 382.5132 406.6851 L 381.8433 404.4823 L 380.425 404.2687 L 377.7952 404.6674 L 376.7513 402.8522 L 375.5284 401.9217 L 374.3281 403.0199 L 373.2727 401.8291 L 373.1442 400.4593 L 369.1298 402.6152 L 368.4209 401.2051 L 366.7012 401.9737 L 365.9473 401.2051 L 364.8419 401.6152 L 364.6521 400.1126 L 363.2507 399.5982 L 363.2282 398.3266 L 362.1619 398.5174 L 360.459 390.7801 L 361.7208 390.0813 L 360.403 378.7257 L 360.2524 376.2081 L 359.0464 372.6515 L 359.13 376.3409 L 358.3819 377.5128 L 354.2334 378.1771 L 353.6863 373.0555 L 352.5529 371.2485 L 352.62 375.4054 L 353.6417 382.4101 L 346.5953 388.3537 L 345.5346 387.3024 L 344.3062 388.4807 L 341.9556 385.8525 L 339.7166 384.2353 L 336.5007 384.5585 L 334.5856 383.1609 L 332.5979 381.0125 L 329.2143 380.7815 L 328.2206 379.8171 L 325.7136 379.1703 L 325.0381 377.8076 L 323.9213 377.5246 L 323.8321 375.8269 L 325.6634 374.9148 L 327.6733 375.111 L 329.9179 373.4368 L 330.694 369.915 L 329.3652 365.2456 L 328.7063 359.7634 L 328.0529 359.5672 L 327.6455 357.1497 L 330.3143 356.5901 L 330.7218 353.7461 L 328.6729 352.5059 L 326.8806 352.6789 L 326.6125 351.3984 L 327.6511 348.422 L 328.3266 348.4914 L 328.8123 346.7037 L 330.1413 345.0832 L 329.5662 343.8836 L 329.5772 341.3525 L 328.6392 339.6804 L 325.3676 336.6193 L 325.7582 330.884 L 326.8974 329.4608 L 328.4438 329.4665 L 327.7291 324.8162 L 327.9971 322.2756 L 331.0961 320.213 L 333.0502 320.0635 L 333.5807 317.1832 L 334.3678 316.5901 L 335.2333 317.7649 L 339.1752 317.955 L 339.7668 316.6015 L 342.3128 316.5841 L 343.4798 314.5222 L 342.6367 310.9577 L 343.6977 311.7523 L 345.1213 311.2973 L 346.7072 312.1496 L 350.448 310.658 L 350.2301 312.3108 L 351.6038 312.4087 L 351.52 313.9177 L 354.8141 314.0961 L 355.5344 314.8565 L 356.3776 313.7045 L 357.0306 315.5994 L 359.3815 315.1559 L 359.6773 317.4367 L 360.7103 318.4448 L 360.4868 320.1614 L 363.0107 320.0058 L 365.3612 320.4665 L 365.8301 319.6833 L 365.7911 316.8664 L 368.8898 316.5552 L 369.3645 317.6211 L 370.5536 317.264 L 370.9779 318.0874 L 372.4298 317.0219 L 377.3376 316.3306 L 378.0299 319.5103 L 379.0516 321.78 L 377.84 324.7127 L 378.2309 326.0205 L 379.8499 324.6895 L 380.3359 326.1936 L 381.9047 326.2281 L 383.697 323.8772 L 385.4444 323.0477 L 385.2546 321.319 L 387.3988 320.0806 L 387.421 318.1048 L 389.068 318.416 L 396.4326 308.3896 L 396.5779 308.4932 L 397.1474 308.8848 L 396.4102 310.3931 L 397.6499 310.2781 L 400.2685 311.5508 L 402.9037 313.8483 L 404.4893 313.4742 L 405.3047 314.7586 L 405.8016 313.6814 L 408.3252 312.3567 L 408.6212 310.1514 L 409.615 309.4373 L 409.6764 306.593 L 411.4017 307.3128 L 413.0263 306.6795 L 415.4386 307.8136 L 416.0302 309.1034 L 419.5812 308.0497 L 419.4362 306.0405 L 420.1397 303.4268 L 420.9102 303.1161 L 420.6141 301.2624 L 423.1212 299.2077 L 425.9518 298.8449 L 427.4371 301.7113 L 428.1406 305.3609 L 428.7493 306.0807 L 431.915 306.0576 L 432.0266 309.4259 L 433.255 311.9652 L 432.6967 314.1249 L 434.2042 315.5994 L 434.5726 317.3502 L 435.8624 318.7616 L 435.9909 319.9538 L 437.5039 322.1602 L 438.0622 324.1826 L 440.0387 325.3175 L 437.9562 326.5218 L 439.7597 328.1928 L 441.3341 328.2216 L 441.8702 330.4576 L 443.2882 331.2703 L 443.7127 330.5038 L 445.4546 331.2646 L 446.3647 329.2589 L 447.8665 327.5303 L 448.9721 327.8069 L 450.5132 329.9161 L 449.7259 334.6767 L 447.4981 334.3079 L 447.822 335.9102 L 450.1335 341.1563 L 451.8308 340.8737 L 452.914 343.2898 L 451.803 343.336 L 451.6802 345.0889 L 453.288 347.4071 L 456.1357 347.1362 L 455.9235 348.422 L 457.9278 351.4273 L 458.8102 353.9882 L 460.3344 355.7422 L 458.2684 359.6769 L 457.6821 363.4047 L 457.1351 364.126 L 458.6874 365.4072 L 458.0452 367.3466 L 458.6091 369.0436 L 459.8821 370.0478 L 459.1506 372.7092 L 457.7214 373.5984 L 459.7201 375.7923 L 460.9151 376.2138 L 461.4288 377.6517 L 461.2499 380.6199 L 462.6068 381.7345 L 461.691 384.4663 L 461.1495 384.2872 L 460.5576 386.5282 L 459.1898 386.0259 L 458.4359 386.9155 L 456.2028 387.0137 L 456.1077 391.3464 L 451.6578 394.8824 L 451.5908 392.3172 L 449.6199 392.9295 L 449.9381 391.5141 L 448.0342 391.1093 L 447.0739 390.0752 L 446.024 392.733 L 444.3714 393.7152 L 443.3777 390.9071 L 441.2895 391.3233 L 439.9383 392.6404 L 436.9734 393.2645 L 434.433 393.1954 L 432.5291 394.8479 L 430.9824 394.7265 L 428.308 391.1556 L 426.2756 390.0581 L 426.0858 391.1442 L 421.2843 391.4041 L 421.3457 392.3692 L 418.9447 393.0854 L 419.0565 395.4488 L 418.4312 395.8244 L 418.2134 399.5345 L 416.9572 398.6274 L 413.7747 398.1824 L 412.9427 399.3611 L 410.0785 398.1244 L 410.2627 397.3558 L 407.9455 397.2344 L 406.9518 398.0781 L 406.8623 399.9449 L 405.3325 404.4766 Z M 353.6417 382.4101 L 354.5126 385.4769 L 354.507 383.3513 L 355.8973 383.1666 L 356.8408 389.6363 L 356.2604 391.6412 L 357.1257 391.1905 L 357.3379 394.2758 L 359.4261 394.8885 L 359.3201 392.8369 L 359.9117 392.6636 L 359.0798 390.9246 L 360.459 390.7801 L 362.1619 398.5174 L 360.2131 399.4825 L 359.6997 402.916 L 358.2871 403.3958 L 353.5523 399.8353 L 353.8147 397.8471 L 351.5926 398.0842 L 349.9287 395.5125 L 346.3273 393.4322 L 345.2051 392.2015 L 346.8634 390.0926 L 346.5953 388.3537 L 353.6417 382.4101 Z"/>
<path  id="_u660c__u5e73__u533a_" title="昌平区" name="昌平区" stroke-miterlimit="10" stroke="#FFFFFF" fill="#D3D3D3" d="M 303.5812 394.9344 L 302.1237 394.3741 L 299.9072 394.4086 L 299.7005 393.4439 L 297.9587 392.9121 L 297.3724 390.6067 L 298.8689 390.2835 L 298.6734 389.0354 L 300.5437 388.6253 L 301.4984 387.7068 L 301.2528 385.991 L 298.9636 386.2683 L 298.7458 385.269 L 296.239 385.0786 L 296.2054 386.1586 L 294.6755 386.1298 L 291.8393 386.9674 L 291.9175 388.1169 L 290.7729 388.3999 L 290.9572 389.8904 L 290.1308 390.0175 L 289.7456 388.6541 L 287.5904 387.0657 L 287.8694 389.2782 L 286.3062 390.1215 L 284.2627 387.678 L 281.9009 388.0532 L 280.9795 387.1867 L 280.1644 387.9841 L 276.8033 380.0307 L 274.0116 381.2379 L 272.1969 376.6296 L 272.2583 375.6076 L 270.0976 375.9194 L 268.2382 373.4888 L 269.7403 372.5995 L 269.5895 370.2614 L 268.1712 369.7765 L 268.5845 371.5718 L 267.5961 372.4379 L 266.7589 371.7106 L 264.9497 372.126 L 263.4925 371.1795 L 264.2574 369.3034 L 263.8497 367.4794 L 264.7041 367.3291 L 265.24 361.1425 L 261.7002 361.0097 L 256.8036 358.6612 L 255.9437 359.5961 L 254.358 358.6904 L 254.1906 356.169 L 253.5373 354.8881 L 253.2583 352.3211 L 251.1533 352.6444 L 250.5614 354.2132 L 248.06 353.3481 L 248.1663 355.0441 L 247.4515 357.196 L 245.7708 358.5114 L 244.0511 359.1347 L 244.3024 361.4137 L 245.1455 364.0857 L 243.9785 363.901 L 244.5536 365.2861 L 240.0535 366.2786 L 234.7717 366.4288 L 234.5818 368.6627 L 233.3702 368.1949 L 229.5344 368.4779 L 227.5467 367.6178 L 226.5807 368.3394 L 224.928 366.4634 L 223.2532 367.1504 L 221.8294 366.8211 L 220.076 368.6741 L 218.9985 368.5356 L 218.6858 370.7349 L 217.8261 372.282 L 216.084 373.0267 L 215.8272 374.1872 L 214.2081 375.3014 L 213.125 376.9991 L 212.332 379.2625 L 210.9696 379.9036 L 209.4007 379.5398 L 208.34 381.2724 L 207.5358 380.3714 L 204.8504 383.0801 L 201.3606 380.9317 L 200.6515 381.2204 L 198.5746 380.412 L 195.6601 379.9154 L 193.9404 380.5561 L 193.2033 381.4917 L 190.892 382.7565 L 190.3615 379.5284 L 188.7256 376.7161 L 189.1611 376.0173 L 189.2839 373.194 L 187.9214 373.7889 L 187.726 375.4399 L 186.6484 373.6675 L 184.1249 372.8419 L 185.3754 371.3931 L 181.5508 365.1936 L 178.3069 361.7544 L 174.3317 360.4387 L 173.7731 361.1713 L 172.7012 360.2482 L 167.6706 360.1211 L 165.6828 358.4135 L 164.7785 358.2689 L 163.2877 356.7172 L 160.9817 357.1326 L 160.1276 356.4691 L 160.1834 354.7497 L 158.3687 351.5426 L 157.7434 349.8178 L 158.3967 349.3045 L 160.3564 345.5734 L 158.7262 344.1837 L 160.7027 342.3959 L 162.7238 343.382 L 164.6557 343.3877 L 165.56 341.0353 L 166.2635 340.5971 L 166.526 338.1298 L 168.9324 336.0601 L 168.0895 335.0167 L 168.5976 334.1463 L 168.0727 332.6939 L 170.278 329.3974 L 170.4457 328.4121 L 172.1763 326.1473 L 172.0703 325.4673 L 174.3707 326.2858 L 175.7777 326.1587 L 177.0227 323.3414 L 177.1177 321.6764 L 182.1483 318.6463 L 183.9852 319.3665 L 186.0063 318.4388 L 188.6028 318.2661 L 190.099 317.2811 L 190.9755 315.5531 L 190.4731 315.075 L 192.9801 313.163 L 194.4261 311.0556 L 193.6278 309.3739 L 194.2699 308.0842 L 193.5886 306.5239 L 194.6717 303.5536 L 196.6984 303.0121 L 196.0566 301.481 L 192.751 299.737 L 192.9857 298.7357 L 192.1425 296.0707 L 193.851 295.5243 L 194.6661 294.2178 L 197.5194 292.5148 L 199.0325 293.7689 L 201.3104 291.036 L 203.7782 290.4949 L 206.3522 294.189 L 206.2684 295.5414 L 207.5972 298.4363 L 209.987 298.3038 L 210.6235 296.8365 L 212.9295 297.2046 L 214.4928 294.9373 L 213.5268 293.2741 L 215.7826 289.7299 L 217.5468 289.6723 L 218.8869 288.6541 L 220.0314 288.8268 L 221.5335 290.1212 L 222.3374 291.8644 L 225.6203 292.1521 L 226.7761 291.6113 L 228.7527 291.8644 L 230.4221 294.4079 L 230.3161 295.0177 L 231.9576 298.275 L 234.7215 298.5687 L 237.1836 296.8247 L 236.2289 294.0509 L 236.1507 291.8071 L 237.7029 289.9887 L 236.0335 289.8278 L 236.011 288.3202 L 236.8766 287.5093 L 236.2345 286.7325 L 237.9374 285.5535 L 238.6745 288.3608 L 237.9205 289.7933 L 240.0255 289.4078 L 240.8462 286.8475 L 239.5174 285.3004 L 238.1328 284.6618 L 238.9703 282.5565 L 238.8587 280.831 L 241.8122 279.244 L 244.347 279.0827 L 244.8607 278.1454 L 246.5803 277.5819 L 247.4347 278.7378 L 250.807 276.9265 L 255.1173 275.6959 L 255.7373 273.7294 L 258.6127 273.6031 L 259.8857 273.9594 L 261.1809 276.1387 L 262.4651 275.2705 L 263.8834 275.2417 L 264.302 274.4193 L 265.441 276.3228 L 266.5912 275.6728 L 266.9319 273.9135 L 268.2551 273.2179 L 269.0368 274.1548 L 271.5996 273.3959 L 274.7987 276.0408 L 276.9037 273.2236 L 276.6748 270.1995 L 277.7134 269.935 L 278.1991 272.775 L 280.0974 271.6943 L 282.8781 270.9873 L 284.9269 271.9128 L 285.7813 271.7576 L 289.3547 274.4368 L 291.4094 276.7884 L 294.1618 277.4267 L 295.4071 279.0482 L 294.6924 280.0204 L 293.4751 279.9111 L 292.4256 282.7462 L 294.2345 282.6084 L 296.4457 281.8203 L 297.9809 282.7693 L 297.2942 284.9092 L 296.6019 285.352 L 298.0423 287.7393 L 297.5959 290.4433 L 296.9759 291.5479 L 299.7061 290.6046 L 299.4215 289.5284 L 301.9563 288.9304 L 303.7876 289.166 L 305.1055 290.4262 L 308.3828 290.4145 L 308.4778 291.0129 L 310.6329 292.2097 L 312.5814 291.7035 L 313.5306 292.434 L 315.2169 292.4685 L 316.2889 291.0072 L 317.7573 294.7589 L 319.2089 295.3114 L 320.8114 297.0148 L 318.9521 300.7039 L 317.7629 301.9588 L 318.8963 302.6611 L 319.6836 305.3093 L 319.2703 307.5602 L 320.8504 308.2284 L 322.1794 307.4221 L 324.6694 308.8848 L 325.3227 309.9097 L 327.115 309.9442 L 328.5052 311.4127 L 328.5778 314.3552 L 330.9733 316.1868 L 333.2678 316.0141 L 334.3678 316.5901 L 333.5807 317.1832 L 333.0502 320.0635 L 331.0961 320.213 L 327.9971 322.2756 L 327.7291 324.8162 L 328.4438 329.4665 L 326.8974 329.4608 L 325.7582 330.884 L 325.3676 336.6193 L 328.6392 339.6804 L 329.5772 341.3525 L 329.5662 343.8836 L 330.1413 345.0832 L 328.8123 346.7037 L 328.3266 348.4914 L 327.6511 348.422 L 326.6125 351.3984 L 326.8806 352.6789 L 328.6729 352.5059 L 330.7218 353.7461 L 330.3143 356.5901 L 327.6455 357.1497 L 328.0529 359.5672 L 328.7063 359.7634 L 329.3652 365.2456 L 330.694 369.915 L 329.9179 373.4368 L 327.6733 375.111 L 325.6634 374.9148 L 323.8321 375.8269 L 323.9213 377.5246 L 323.7651 380.3137 L 322.5925 380.8566 L 322.7935 382.2944 L 321.783 382.6468 L 321.7328 384.5759 L 322.6651 385.6677 L 321.9391 388.2728 L 319.8064 387.8108 L 319.8622 388.7118 L 317.5229 387.799 L 314.96 387.4584 L 310.2477 389.6939 L 308.6396 389.8271 L 307.7129 391.9124 L 308.4498 394.2182 L 307.4838 395.755 L 304.8318 396.541 L 304.2009 394.7728 L 303.5812 394.9344 Z"/>
<path  id="_u5927__u5174__u533a_" title="大兴区" name="大兴区" stroke-miterlimit="10" stroke="#FFFFFF" fill="#D3D3D3" d="M 392.9877 543.4531 L 392.0105 544.2786 L 390.4863 544.3484 L 388.655 545.5751 L 387.5998 544.3833 L 386.3714 544.5229 L 386.8627 548.3137 L 391.0557 550.948 L 391.067 551.6401 L 392.8368 552.7333 L 393.4007 554.4958 L 387.5384 556.3046 L 386.3602 555.2402 L 385.9416 553.6407 L 385.2156 553.6639 L 384.5959 551.5411 L 383.2111 552.5589 L 378.1583 550.8199 L 378.1748 550.2734 L 376.1316 550.1688 L 374.6407 551.0353 L 374.8751 551.7565 L 371.8993 552.3378 L 371.6368 551.2795 L 368.9792 550.3083 L 368.929 552.047 L 367.0417 552.1808 L 364.9535 551.4308 L 364.8641 549.5697 L 363.9764 549.4244 L 363.9206 547.0055 L 362.9938 547.1102 L 362.6142 545.3018 L 361.5532 545.0113 L 361.5812 543.232 L 360.0569 543.2901 L 359.5099 545.0287 L 357.7566 545.4064 L 357.3379 544.4413 L 353.9207 543.6624 L 353.9709 545.0227 L 350.381 544.9821 L 350.3922 546.2786 L 351.3691 547.8371 L 350.4256 548.0578 L 350.5596 550.471 L 349.4038 551.4133 L 348.0304 551.4888 L 345.9757 553.3965 L 344.5742 553.2627 L 344.5574 550.7387 L 343.6921 551.518 L 343.9377 554.3445 L 341.0177 553.1929 L 340.9507 552.4599 L 339.3036 553.257 L 339.4654 554.2281 L 338.4548 555.5018 L 338.9629 556.9211 L 338.0362 558.48 L 338.2204 560.1556 L 339.7559 560.1147 L 340.0517 561.6565 L 338.2204 562.0231 L 337.9524 563.9547 L 335.8642 564.3039 L 335.6018 566.0842 L 334.926 566.1718 L 335.0323 569.4479 L 330.0463 569.7274 L 329.9681 568.5868 L 325.669 568.7206 L 325.0213 568.1852 L 326.1378 571.3336 L 326.9084 572.2417 L 326.9532 574.9892 L 324.4518 575.3907 L 323.324 576.3629 L 323.3128 577.7833 L 320.4542 577.4223 L 320.4205 578.1966 L 317.0204 577.8997 L 316.0934 578.1849 L 316.7243 579.3087 L 316.8583 581.8298 L 317.4892 581.859 L 317.7797 584.1067 L 314.893 584.9742 L 314.5411 583.8735 L 312.6541 584.159 L 312.252 581.8063 L 312.4979 579.5298 L 311.8109 578.6857 L 309.0807 578.837 L 307.5564 577.5854 L 306.7859 578.051 L 306.8308 582.4994 L 308.0143 583.3089 L 308.3659 584.7703 L 311.0796 585.3469 L 312.1906 588.8296 L 311.0182 588.8413 L 310.3035 591.812 L 309.1701 592.9245 L 309.3821 594.0024 L 312.3638 592.907 L 313.3744 591.9694 L 314.0779 594.2701 L 312.8439 594.2936 L 313.6425 596.0878 L 315.0604 595.3886 L 315.7583 593.7051 L 317.8633 593.9615 L 317.8411 595.144 L 319.0973 596.0646 L 319.0637 600.0381 L 320.4931 602.7479 L 320.6774 604.2459 L 319.6054 604.4787 L 319.5216 605.9475 L 316.0208 606.8627 L 315.2615 607.9994 L 312.9221 606.5302 L 308.4666 605.3299 L 306.021 605.4057 L 303.916 604.3915 L 303.0227 605.1608 L 299.0194 604.6887 L 297.4784 604.84 L 295.9822 603.6863 L 293.0285 603.4531 L 292.7716 604.3854 L 288.5898 602.9227 L 286.2168 600.8074 L 286.0771 599.6711 L 284.7315 598.8203 L 284.7037 597.0785 L 283.3247 596.1287 L 282.7718 594.5438 L 281.2364 592.9537 L 280.7897 591.4742 L 274.8938 589.779 L 273.844 590.717 L 272.8726 589.3304 L 271.1863 589.2258 L 268.1491 587.4377 L 267.9144 585.6673 L 267.0603 584.0426 L 264.9164 582.3189 L 265.1508 580.4675 L 264.302 578.9944 L 265.0894 578.616 L 265.5638 576.846 L 264.855 576.8926 L 265.1006 573.4581 L 264.0284 568.7669 L 265.0111 567.2714 L 264.1624 566.8467 L 263.5315 564.8041 L 261.9402 564.8625 L 262.4149 563.274 L 260.5223 564.3153 L 259.5728 563.3613 L 258.3335 559.5273 L 259.3774 557.689 L 259.6455 554.8739 L 258.7131 554.1815 L 258.8584 553.0124 L 257.5071 549.1393 L 257.8868 545.2843 L 257.7194 542.052 L 256.8148 536.6983 L 257.2167 533.6646 L 258.864 528.9812 L 258.3781 527.9994 L 259.5283 525.8265 L 258.3503 524.0953 L 260.9409 519.1464 L 261.8511 515.064 L 261.2089 514.2801 L 262.4595 511.8469 L 264.7041 509.8673 L 264.8995 507.8528 L 265.6199 506.4477 L 265.5024 504.8052 L 264.4136 501.5952 L 266.5354 498.9488 L 266.6918 495.5371 L 267.2111 493.9124 L 266.6918 490.884 L 267.0379 488.1169 L 266.4572 487.0497 L 266.435 483.2972 L 268.5119 481.6732 L 269.2824 483.3958 L 272.4986 481.9171 L 275.9713 481.1456 L 276.4906 482.288 L 278.3331 482.404 L 277.0155 483.2217 L 278.0987 484.0451 L 279.7903 489.747 L 281.2644 491.4756 L 282.2304 490.7736 L 284.1788 486.7189 L 285.195 486.6552 L 285.4855 481.4009 L 286.5406 481.4009 L 286.9147 480.3222 L 290.0916 480.0613 L 290.527 478.1247 L 294.2513 478.8086 L 294.5527 480.6586 L 297.2776 480.8904 L 297.5846 482.6707 L 296.9313 482.9085 L 297.4226 486.1796 L 300.3317 485.9361 L 300.5269 488.1632 L 302.2356 488.3547 L 303.5812 487.7805 L 303.916 493.1872 L 305.781 492.9782 L 305.5185 487.5658 L 305.016 485.5474 L 311.4817 485.2979 L 311.6937 482.9145 L 313.8937 482.9259 L 313.9271 479.5508 L 312.9445 478.9189 L 312.0734 477.1098 L 310.8228 477.2202 L 310.1526 476.3676 L 308.7512 476.7909 L 308.7905 474.756 L 311.3533 475.353 L 311.0014 472.6689 L 309.9294 472.1823 L 310.2923 470.3504 L 311.4369 471.3532 L 312.8105 469.4693 L 314.1057 470.1069 L 315.9538 469.9157 L 315.8702 471.0634 L 318.338 471.3243 L 317.8019 473.3648 L 320.1581 472.6344 L 322.8381 475.1501 L 324.3567 475.6606 L 325.9034 477.3476 L 328.8403 476.2982 L 328.9407 474.8141 L 331.5371 474.1356 L 332.2965 475.2373 L 334.3288 474.4663 L 333.5246 474.0604 L 335.4846 473.1908 L 335.6074 470.9879 L 337.0924 470.2055 L 339.5492 470.2343 L 339.6833 471.2489 L 342.1065 471.9907 L 343.3458 473.1502 L 341.6875 473.8283 L 343.5971 476.6054 L 343.9044 479.7018 L 342.151 480.7743 L 342.7988 482.0096 L 341.0345 483.7668 L 341.5591 485.6172 L 342.944 487.4904 L 340.811 488.3604 L 342.4247 491.5511 L 344.6971 490.6868 L 345.0041 491.9573 L 342.5195 492.0733 L 343.424 492.8391 L 343.5693 494.6841 L 340.331 494.5449 L 339.0857 491.5337 L 338.1366 493.0074 L 339.499 494.2142 L 338.9183 498.7402 L 341.0959 499.4946 L 340.1355 501.0093 L 342.4525 501.9494 L 342.9216 502.8722 L 341.4307 502.3207 L 341.2801 505.7396 L 342.877 506.442 L 342.6479 508.7641 L 342.017 509.989 L 340.6156 509.3735 L 340.0741 510.5234 L 341.47 510.9819 L 340.9338 511.7017 L 342.3019 512.1954 L 344.7809 511.0691 L 352.3407 511.2606 L 352.3909 513.1765 L 354.105 512.7817 L 354.4568 511.969 L 356.8464 511.6728 L 356.8576 512.3232 L 359.0408 512.1662 L 360.5482 511.1734 L 360.6935 509.7569 L 361.9163 509.5305 L 363.8146 507.3184 L 365.3164 507.2316 L 365.255 506.4302 L 366.9859 506.5466 L 367.8066 508.2475 L 369.5207 507.9047 L 369.7553 510.314 L 371.38 512.9907 L 373.6245 513.3567 L 373.6523 515.064 L 372.2677 515.1508 L 371.8266 516.2658 L 372.0501 518.281 L 373.2281 518.3974 L 373.1779 520.7437 L 374.987 521.3535 L 375.0092 520.4938 L 377.2481 521.0168 L 378.052 522.2481 L 377.1029 523.6539 L 377.7842 525.4662 L 379.5541 524.8853 L 381.0447 525.3616 L 382.3177 524.6531 L 384.2272 524.6877 L 384.4507 525.3445 L 387.1809 525.6289 L 387.4714 528.1041 L 386.7455 531.503 L 386.9465 534.2516 L 387.8006 536.7506 L 388.9564 537.8958 L 390.4473 537.6573 L 392.446 538.1283 L 391.8877 541.5522 L 392.9877 543.4531 Z"/>
<path  id="_u6000__u67d4__u533a_" title="怀柔区" name="怀柔区" stroke-miterlimit="10" stroke="#FFFFFF" fill="#D3D3D3" d="M 276.6748 270.1995 L 275.6419 268.6474 L 276.6412 266.331 L 276.1387 265.5549 L 277.1383 264.2275 L 276.312 262.4514 L 276.5576 260.8196 L 277.2275 261.3194 L 278.484 259.8656 L 277.8977 256.803 L 276.8871 254.4706 L 276.6524 252.6725 L 277.8752 249.4444 L 277.73 248.4277 L 279.6339 246.4349 L 281.2086 243.707 L 279.8184 242.9893 L 277.9868 240.4113 L 277.1605 236.8632 L 278.6233 236.3466 L 280.3879 236.6852 L 282.1075 234.5902 L 282.9058 234.5557 L 285.5803 231.5825 L 287.54 231.37 L 289.1649 232.1218 L 290.6779 231.4736 L 292.3642 231.967 L 294.6085 230.9453 L 296.9759 231.7662 L 297.9699 231.5252 L 300.0805 232.7647 L 300.3651 234.6532 L 299.8904 236.714 L 302.6988 238.0287 L 302.364 240.2504 L 304.3963 241.4045 L 307.8133 238.0458 L 309.7284 238.2124 L 310.527 237.6841 L 311.6769 238.6488 L 314.9264 239.4007 L 317.6121 238.1148 L 321.0124 238.4306 L 321.5373 235.7497 L 323.5862 236.2605 L 324.2897 237.001 L 328.3824 236.9782 L 329.3986 238.1376 L 330.6828 238.3904 L 334.9987 237.6268 L 335.8586 236.2893 L 337.8741 234.5557 L 337.891 232.8452 L 335.9646 231.2322 L 334.485 228.7129 L 332.8993 227.7546 L 332.1793 225.1954 L 330.6604 225.1954 L 329.728 225.9928 L 326.4507 226.5841 L 324.8592 224.8857 L 323.6644 224.943 L 322.3524 222.9634 L 323.9995 220.9325 L 324.9318 219.0279 L 327.3438 216.8999 L 328.6617 212.8163 L 331.7828 212.0193 L 332.7765 209.9492 L 334.1502 209.3583 L 335.3337 205.7347 L 336.2885 205.7233 L 337.5281 203.2467 L 339.4878 202.0887 L 341.2075 199.1312 L 341.0345 197.5033 L 342.3745 196.237 L 341.5647 193.7384 L 342.2907 190.4494 L 343.1728 189.0344 L 343.2679 186.9202 L 344.7921 186.399 L 346.5732 187.0636 L 349.1248 185.8718 L 351.1961 186.9661 L 352.5586 184.7607 L 352.5081 183.1225 L 349.8337 182.8989 L 347.1648 180.7741 L 346.4336 180.7915 L 346.2157 179.0906 L 344.7974 178.1971 L 344.5518 176.8974 L 343.4686 175.8607 L 340.6548 176.6051 L 339.9959 175.2481 L 337.6843 174.3492 L 338.1422 173.2154 L 337.3885 172.6373 L 336.3779 170.2842 L 334.3622 170.0268 L 333.1954 170.6965 L 330.8614 169.7004 L 329.3428 169.5744 L 328.3378 167.7713 L 329.7894 163.3012 L 331.8832 161.5501 L 333.4912 161.3785 L 333.0614 159.6274 L 333.2902 158.0198 L 334.3958 156.5663 L 333.6085 154.7814 L 333.8765 153.2713 L 334.6078 153.3055 L 335.6464 151.0233 L 335.3113 147.8087 L 336.4337 145.6813 L 334.5018 144.9779 L 333.2624 143.8569 L 333.5527 140.2778 L 332.8435 138.7912 L 331.5705 139.1743 L 330.4817 137.9052 L 328.8235 137.2363 L 327.5171 134.9555 L 325.1721 135.0811 L 323.5528 134.544 L 323.6588 133.9092 L 322.2742 131.0916 L 322.4753 128.9201 L 321.3584 125.4457 L 320.0019 125.5315 L 319.6892 124.1545 L 316.758 121.5893 L 316.7299 119.4872 L 315.9092 117.4591 L 312.079 116.734 L 310.0803 114.4037 L 307.8021 112.9645 L 307.7185 111.3369 L 305.8926 106.8661 L 303.8827 105.319 L 303.3297 102.8356 L 301.2026 102.2479 L 299.3713 99.3765 L 297.1601 97.556 L 296.9927 96.2947 L 295.5355 94.6226 L 293.76 93.5899 L 291.3088 91.1308 L 290.6555 89.2821 L 288.573 87.5937 L 288.841 85.5059 L 288.4891 81.8271 L 289.7456 80.0817 L 290.0302 78.7702 L 292.7604 76.4093 L 295.1113 76.398 L 296.6801 73.9349 L 298.1597 73.7014 L 300.7223 76.5065 L 300.6665 77.4132 L 301.8111 79.0839 L 302.0402 81.1084 L 304.1395 84.5703 L 305.0943 85.2321 L 305.6862 87.0975 L 307.3498 87.2 L 309.7396 89.3281 L 311.1298 88.4093 L 314.3292 88.0444 L 315.8534 89.4591 L 319.0247 89.2708 L 319.6222 88.7631 L 321.7437 89.0312 L 323.257 90.5487 L 325.8476 90.663 L 326.7911 88.6204 L 325.7304 82.2148 L 324.3458 80.3099 L 324.0219 78.0917 L 322.5086 77.6069 L 322.7153 76.7002 L 320.8616 73.0684 L 320.7166 71.6089 L 318.7454 70.0756 L 320.3089 66.2509 L 319.8847 64.7974 L 320.9008 60.5918 L 323.2012 59.1618 L 325.8866 61.2586 L 327.154 61.082 L 328.9353 59.8856 L 331.1017 61.5039 L 331.9056 61.3212 L 333.9825 62.2158 L 337.126 62.4725 L 338.0026 60.2045 L 339.3762 60.3811 L 341.6988 58.7347 L 342.2907 57.6749 L 343.9879 57.1106 L 345.5458 57.9141 L 348.4269 57.692 L 349.1248 55.9711 L 351.2463 56.6208 L 352.7818 58.5179 L 356.7236 61.9367 L 358.8787 62.632 L 363.3511 59.5833 L 364.0324 54.0972 L 363.4517 52.371 L 364.5963 48.5777 L 365.322 48.0369 L 365.5844 46.2769 L 365.1434 43.3276 L 364.1718 41.2892 L 363.2451 40.7937 L 363.0777 39.1255 L 364.211 36.325 L 363.8704 34.6401 L 365.9083 34.2645 L 367.7118 31.9994 L 369.6045 32.1073 L 370.4645 32.8815 L 372.1393 32.5003 L 373.8702 33.6156 L 374.6965 35.3802 L 376.8853 37.0252 L 379.0404 37.1334 L 380.0286 38.4314 L 381.6033 38.7671 L 383.1387 37.7482 L 384.1044 39.1145 L 383.8644 40.2928 L 384.8637 41.8015 L 385.037 44.6027 L 385.8689 46.0776 L 384.5289 48.7713 L 383.736 49.0219 L 383.7584 51.061 L 381.6535 53.4703 L 381.5138 58.5349 L 382.251 59.8229 L 381.1731 60.5007 L 380.2798 62.1931 L 380.2798 63.9769 L 382.77 66.9747 L 383.3173 71.0446 L 385.1542 73.3934 L 386.8069 74.7789 L 386.9185 76.2442 L 388.1023 77.1281 L 389.4311 76.8372 L 389.8834 78.7702 L 392.1333 79.4772 L 390.7431 81.5188 L 389.7382 85.5286 L 390.6817 85.6198 L 392.4964 86.9946 L 393.1551 88.8201 L 394.2997 90.0354 L 396.7899 90.4291 L 399.5927 92.2091 L 402.0608 92.8538 L 401.8039 95.6557 L 402.764 96.0893 L 404.7016 95.3076 L 405.4945 96.8885 L 406.6781 96.9398 L 412.133 103.4693 L 412.0715 105.3019 L 413.5178 106.6147 L 413.54 109.7496 L 414.4614 110.3035 L 416.5105 107.6026 L 418.4088 107.6596 L 419.1401 109.6467 L 420.3517 110.2063 L 421.3679 109.6808 L 422.9591 110.0521 L 423.484 110.9485 L 425.7398 110.8456 L 425.8458 111.6167 L 427.6715 112.2219 L 429.0619 113.9982 L 429.2795 115.8141 L 431.6638 117.1509 L 433.2104 117.2936 L 433.361 118.2704 L 434.8126 119.7955 L 434.288 123.2859 L 436.0912 124.4575 L 433.8523 125.7144 L 432.4508 125.2744 L 431.9038 126.697 L 429.581 127.383 L 430.8876 130.3373 L 428.3694 130.8745 L 428.0402 132.1204 L 426.5605 132.3433 L 426.3427 133.738 L 422.1608 135.4414 L 423.5734 138.8372 L 421.3625 142.1759 L 419.8716 142.8737 L 417.8561 142.4903 L 415.6842 142.9538 L 413.6684 144.0687 L 411.1726 143.2567 L 408.5374 139.9233 L 407.7279 142.1015 L 408.2862 143.4169 L 409.2297 147.6143 L 410.3297 150.1251 L 409.961 156.0056 L 409.3192 156.7724 L 409.4308 158.8436 L 408.5988 160.2625 L 404.6626 159.4388 L 402.9595 158.1512 L 401.1674 158.4146 L 400.8492 159.4099 L 399.1685 160.2454 L 398.8614 161.4814 L 397.527 161.8879 L 395.7347 163.4044 L 393.0045 164.3143 L 392.9596 165.8999 L 390.1568 167.5538 L 389.7045 171.166 L 389.995 172.5056 L 388.8058 173.7537 L 389.5483 176.8515 L 389.1518 178.8727 L 389.4311 181.3468 L 386.5725 184.3197 L 386.6953 185.912 L 387.5438 186.4449 L 387.4266 188.8909 L 386.5276 188.427 L 385.6287 189.4868 L 386.8683 191.4864 L 387.9234 192.1225 L 388.3087 193.7213 L 387.6722 194.959 L 389.1743 195.9618 L 388.4427 197.7443 L 389.2747 198.9247 L 388.5655 199.5783 L 390.0062 203.0577 L 390.062 206.4745 L 388.9788 207.1854 L 388.8058 208.3149 L 385.9974 209.0087 L 382.53 208.6762 L 380.7377 209.5648 L 381.4748 211.4284 L 377.8232 211.1646 L 377.0359 212.9712 L 380.0286 212.2485 L 381.4356 214.2271 L 383.6914 214.0263 L 386.7455 215.4546 L 386.5669 217.4278 L 388.0297 220.0375 L 389.5315 220.9727 L 390.7711 222.8085 L 389.4423 223.7839 L 389.2189 225.7749 L 386.4606 227.881 L 385.936 230.0557 L 385.7349 234.0335 L 384.4061 234.9174 L 384.6125 236.8116 L 387.3318 239.0966 L 384.4339 238.1494 L 384.4117 240.1415 L 384.9922 243.4831 L 385.8188 243.0125 L 387.823 245.901 L 390.6873 246.9173 L 391.307 245.7344 L 392.474 246.3947 L 391.4076 247.394 L 391.3182 249.9211 L 393.0659 251.8972 L 391.7761 252.6437 L 390.5589 252.3852 L 392.4628 254.7522 L 392.1389 258.751 L 392.9989 260.8082 L 394.8358 259.9001 L 395.048 260.716 L 397.1583 262.0264 L 393.8642 263.739 L 392.6863 263.963 L 392.4294 265.3424 L 391.1172 266.5033 L 389.7101 266.6759 L 389.8722 268.7278 L 389.3027 271.8954 L 390.5143 272.89 L 388.0743 275.42 L 387.9125 276.5585 L 389.9336 278.4099 L 391.4803 278.2547 L 391.0056 280.998 L 393.3228 281.0496 L 393.0547 283.0338 L 393.9256 283.0338 L 393.5126 286.2722 L 392.5522 287.1583 L 392.3066 288.8959 L 394.5007 288.9418 L 394.5287 290.3629 L 397.9345 288.9015 L 398.0965 290.8345 L 399.9222 290.1098 L 401.8093 290.7712 L 402.111 293.2741 L 402.9539 293.3261 L 404.5005 296.4912 L 405.7514 297.1472 L 402.9651 299.1212 L 401.3517 301.9128 L 400.7152 301.5212 L 396.5779 308.4932 L 396.4326 308.3896 L 389.068 318.416 L 387.421 318.1048 L 387.3988 320.0806 L 385.2546 321.319 L 385.4444 323.0477 L 383.697 323.8772 L 381.9047 326.2281 L 380.3359 326.1936 L 379.8499 324.6895 L 378.2309 326.0205 L 377.84 324.7127 L 379.0516 321.78 L 378.0299 319.5103 L 377.3376 316.3306 L 372.4298 317.0219 L 370.9779 318.0874 L 370.5536 317.264 L 369.3645 317.6211 L 368.8898 316.5552 L 365.7911 316.8664 L 365.8301 319.6833 L 365.3612 320.4665 L 363.0107 320.0058 L 360.4868 320.1614 L 360.7103 318.4448 L 359.6773 317.4367 L 359.3815 315.1559 L 357.0306 315.5994 L 356.3776 313.7045 L 355.5344 314.8565 L 354.8141 314.0961 L 351.52 313.9177 L 351.6038 312.4087 L 350.2301 312.3108 L 350.448 310.658 L 346.7072 312.1496 L 345.1213 311.2973 L 343.6977 311.7523 L 342.6367 310.9577 L 343.4798 314.5222 L 342.3128 316.5841 L 339.7668 316.6015 L 339.1752 317.955 L 335.2333 317.7649 L 334.3678 316.5901 L 333.2678 316.0141 L 330.9733 316.1868 L 328.5778 314.3552 L 328.5052 311.4127 L 327.115 309.9442 L 325.3227 309.9097 L 324.6694 308.8848 L 322.1794 307.4221 L 320.8504 308.2284 L 319.2703 307.5602 L 319.6836 305.3093 L 318.8963 302.6611 L 317.7629 301.9588 L 318.9521 300.7039 L 320.8114 297.0148 L 319.2089 295.3114 L 317.7573 294.7589 L 316.2889 291.0072 L 315.2169 292.4685 L 313.5306 292.434 L 312.5814 291.7035 L 310.6329 292.2097 L 308.4778 291.0129 L 308.3828 290.4145 L 305.1055 290.4262 L 303.7876 289.166 L 301.9563 288.9304 L 299.4215 289.5284 L 299.7061 290.6046 L 296.9759 291.5479 L 297.5959 290.4433 L 298.0423 287.7393 L 296.6019 285.352 L 297.2942 284.9092 L 297.9809 282.7693 L 296.4457 281.8203 L 294.2345 282.6084 L 292.4256 282.7462 L 293.4751 279.9111 L 294.6924 280.0204 L 295.4071 279.0482 L 294.1618 277.4267 L 291.4094 276.7884 L 289.3547 274.4368 L 285.7813 271.7576 L 284.9269 271.9128 L 282.8781 270.9873 L 280.0974 271.6943 L 278.1991 272.775 L 277.7134 269.935 L 276.6748 270.1995 Z"/>
<path  id="_u5e73__u8c37__u533a_" title="平谷区" name="平谷区" stroke-miterlimit="10" stroke="#FFFFFF" fill="#D3D3D3" d="M 456.1077 391.3464 L 456.2028 387.0137 L 458.4359 386.9155 L 459.1898 386.0259 L 460.5576 386.5282 L 461.1495 384.2872 L 461.691 384.4663 L 462.6068 381.7345 L 461.2499 380.6199 L 461.4288 377.6517 L 460.9151 376.2138 L 459.7201 375.7923 L 457.7214 373.5984 L 459.1506 372.7092 L 459.8821 370.0478 L 458.6091 369.0436 L 458.0452 367.3466 L 458.6874 365.4072 L 457.1351 364.126 L 457.6821 363.4047 L 458.2684 359.6769 L 460.3344 355.7422 L 458.8102 353.9882 L 457.9278 351.4273 L 455.9235 348.422 L 456.1357 347.1362 L 453.288 347.4071 L 451.6802 345.0889 L 451.803 343.336 L 452.914 343.2898 L 451.8308 340.8737 L 450.1335 341.1563 L 447.822 335.9102 L 447.4981 334.3079 L 449.7259 334.6767 L 450.5132 329.9161 L 448.9721 327.8069 L 449.4076 326.9482 L 451.7582 326.5275 L 452.0933 325.5827 L 453.8743 325.5884 L 454.6003 326.8215 L 455.5716 326.7984 L 459.3516 322.5693 L 459.8319 320.8239 L 458.073 319.2223 L 456.0687 319.6947 L 454.081 318.0874 L 453.1764 316.688 L 455.7168 313.3706 L 456.1245 312.2877 L 458.4025 311.188 L 458.6203 309.3394 L 461.9369 307.1458 L 463.8798 307.2035 L 463.824 306.1786 L 465.8283 306.0978 L 467.3637 304.9985 L 466.8054 302.9491 L 469.29 300.3013 L 468.2907 297.6364 L 468.1398 295.9789 L 469.0054 295.4552 L 469.6585 293.3143 L 471.836 289.9542 L 473.2487 289.1429 L 475.0186 289.4768 L 476.7551 288.5737 L 479.1614 288.05 L 480.373 289.4309 L 482.5394 289.3789 L 484.1419 287.5321 L 485.571 287.5264 L 485.6829 286.6062 L 489.0272 284.8803 L 491.5286 282.0848 L 493.2147 281.2799 L 497.6312 283.7013 L 499.7418 282.7522 L 500.4787 281.8779 L 504.2867 280.469 L 505.6433 277.9269 L 507.7426 277.4153 L 508.3514 276.1847 L 511.115 277.3922 L 511.7907 276.3687 L 514.3143 276.127 L 515.8778 275.1495 L 519.6018 275.828 L 520.8804 276.8173 L 522.6393 276.5528 L 524.6158 275.1669 L 526.0506 275.943 L 526.6591 278.2547 L 529.5626 277.6912 L 530.9584 277.9212 L 532.4213 280.0144 L 533.069 282.0506 L 534.1353 282.5048 L 534.1855 284.6101 L 534.9115 288.0732 L 535.989 289.0279 L 535.6428 289.9485 L 537.5915 290.1269 L 539.6852 291.4618 L 538.7025 293.8323 L 538.8533 295.766 L 539.6126 297.7054 L 539.5178 299.789 L 542.5607 302.0453 L 544.5818 303.9911 L 544.9391 306.075 L 544.3306 307.7332 L 545.3857 310.6295 L 547.5187 310.6007 L 550.863 309.2415 L 550.8521 308.1362 L 552.6051 308.3722 L 554.7101 306.5125 L 555.4472 307.9404 L 556.5136 314.9715 L 556.4129 315.9102 L 557.6357 318.3181 L 557.0161 321.9876 L 557.9708 323.157 L 558.5067 325.9917 L 559.2494 326.1241 L 560.1484 327.945 L 561.2372 327.9105 L 562.4597 326.8447 L 566.1225 326.7638 L 569.5507 328.7809 L 570.405 328.4754 L 571.3932 330.7228 L 567.0829 331.8064 L 567.3117 334.7689 L 569.2436 335.6218 L 571.237 337.2302 L 567.6078 337.9624 L 568.1159 340.2454 L 568.8974 340.113 L 568.8194 342.765 L 569.9584 342.6152 L 572.4542 340.9545 L 575.123 342.8804 L 574.3357 344.3969 L 573.3921 344.2641 L 570.8293 346.4036 L 571.2479 347.3669 L 567.8868 346.6517 L 568.0545 348.2376 L 566.932 346.8592 L 565.5976 346.7841 L 564.7489 348.0472 L 563.4593 346.7325 L 562.2309 347.9204 L 560.7179 347.8051 L 560.0144 348.5203 L 561.6782 351.1503 L 562.5548 353.7518 L 560.1761 356.0305 L 561.1253 356.7343 L 559.8579 358.0728 L 561.5554 357.998 L 561.4158 359.4693 L 560.0926 359.8153 L 559.4726 361.0271 L 554.5427 362.0371 L 554.6262 361.3041 L 552.5827 359.5384 L 551.3265 360.3173 L 550.0423 359.804 L 548.4008 360.8655 L 547.1668 364.8013 L 545.5868 366.4577 L 545.5924 367.3177 L 542.4769 366.4402 L 539.8695 369.1763 L 540.1375 370.7174 L 539.5232 371.9644 L 538.334 371.4682 L 537.5133 369.6957 L 535.7936 368.9916 L 534.4982 369.3034 L 532.8234 368.1661 L 531.7792 369.3262 L 529.8753 369.846 L 529.2833 371.0467 L 527.4187 372.7729 L 527.3068 373.9391 L 526.1847 374.5222 L 526.2071 375.9308 L 522.6727 375.2381 L 522.6169 377.311 L 523.4042 378.9279 L 520.8134 381.2724 L 520.6348 382.3236 L 521.852 382.2773 L 521.0702 384.6105 L 519.0211 385.5118 L 519.2891 384.6742 L 517.4912 383.6518 L 516.7877 380.1347 L 515.7659 379.7708 L 514.7388 381.1165 L 516.0452 382.5023 L 515.2915 383.9693 L 513.1529 384.1256 L 512.2542 383.2303 L 508.5802 382.0634 L 509.0269 382.7334 L 507.9885 384.9458 L 503.4436 386.8286 L 500.6853 386.3263 L 498.1786 383.8483 L 495.0462 384.0676 L 494.0189 382.722 L 489.1279 382.8836 L 488.9826 385.2114 L 487.8939 386.4591 L 487.9107 385.1306 L 484.8678 385.5752 L 485.13 386.7823 L 483.4608 387.2793 L 482.6064 388.2326 L 480.1608 388.4925 L 480.5239 390.8032 L 480.0046 391.4158 L 476.5877 392.0513 L 475.1246 394.5532 L 473.4887 395.8069 L 473.8852 397.5409 L 472.6568 397.6161 L 472.9024 398.9104 L 471.8473 398.0781 L 471.0935 398.7833 L 469.3069 398.506 L 466.4538 398.9798 L 466.3142 398.1475 L 464.092 396.4947 L 462.4337 395.8069 L 458.8211 396.4659 L 458.073 392.3343 L 456.9007 392.6002 L 456.1077 391.3464 Z"/>
<path  id="_u5bc6__u4e91__u533a_" title="密云区" name="密云区" stroke-miterlimit="10" stroke="#FFFFFF" fill="#D3D3D3" d="M 526.0506 275.943 L 524.6158 275.1669 L 522.6393 276.5528 L 520.8804 276.8173 L 519.6018 275.828 L 515.8778 275.1495 L 514.3143 276.127 L 511.7907 276.3687 L 511.115 277.3922 L 508.3514 276.1847 L 507.7426 277.4153 L 505.6433 277.9269 L 504.2867 280.469 L 500.4787 281.8779 L 499.7418 282.7522 L 497.6312 283.7013 L 493.2147 281.2799 L 491.5286 282.0848 L 489.0272 284.8803 L 485.6829 286.6062 L 485.571 287.5264 L 484.1419 287.5321 L 482.5394 289.3789 L 480.373 289.4309 L 479.1614 288.05 L 476.7551 288.5737 L 475.0186 289.4768 L 473.2487 289.1429 L 471.836 289.9542 L 469.6585 293.3143 L 469.0054 295.4552 L 468.1398 295.9789 L 468.2907 297.6364 L 469.29 300.3013 L 466.8054 302.9491 L 467.3637 304.9985 L 465.8283 306.0978 L 463.824 306.1786 L 463.8798 307.2035 L 461.9369 307.1458 L 458.6203 309.3394 L 458.4025 311.188 L 456.1245 312.2877 L 455.7168 313.3706 L 453.1764 316.688 L 454.081 318.0874 L 456.0687 319.6947 L 458.073 319.2223 L 459.8319 320.8239 L 459.3516 322.5693 L 455.5716 326.7984 L 454.6003 326.8215 L 453.8743 325.5884 L 452.0933 325.5827 L 451.7582 326.5275 L 449.4076 326.9482 L 448.9721 327.8069 L 447.8665 327.5303 L 446.3647 329.2589 L 445.4546 331.2646 L 443.7127 330.5038 L 443.2882 331.2703 L 441.8702 330.4576 L 441.3341 328.2216 L 439.7597 328.1928 L 437.9562 326.5218 L 440.0387 325.3175 L 438.0622 324.1826 L 437.5039 322.1602 L 435.9909 319.9538 L 435.8624 318.7616 L 434.5726 317.3502 L 434.2042 315.5994 L 432.6967 314.1249 L 433.255 311.9652 L 432.0266 309.4259 L 431.915 306.0576 L 428.7493 306.0807 L 428.1406 305.3609 L 427.4371 301.7113 L 425.9518 298.8449 L 423.1212 299.2077 L 420.6141 301.2624 L 420.9102 303.1161 L 420.1397 303.4268 L 419.4362 306.0405 L 419.5812 308.0497 L 416.0302 309.1034 L 415.4386 307.8136 L 413.0263 306.6795 L 411.4017 307.3128 L 409.6764 306.593 L 409.615 309.4373 L 408.6212 310.1514 L 408.3252 312.3567 L 405.8016 313.6814 L 405.3047 314.7586 L 404.4893 313.4742 L 402.9037 313.8483 L 400.2685 311.5508 L 397.6499 310.2781 L 396.4102 310.3931 L 397.1474 308.8848 L 396.5779 308.4932 L 400.7152 301.5212 L 401.3517 301.9128 L 402.9651 299.1212 L 405.7514 297.1472 L 404.5005 296.4912 L 402.9539 293.3261 L 402.111 293.2741 L 401.8093 290.7712 L 399.9222 290.1098 L 398.0965 290.8345 L 397.9345 288.9015 L 394.5287 290.3629 L 394.5007 288.9418 L 392.3066 288.8959 L 392.5522 287.1583 L 393.5126 286.2722 L 393.9256 283.0338 L 393.0547 283.0338 L 393.3228 281.0496 L 391.0056 280.998 L 391.4803 278.2547 L 389.9336 278.4099 L 387.9125 276.5585 L 388.0743 275.42 L 390.5143 272.89 L 389.3027 271.8954 L 389.8722 268.7278 L 389.7101 266.6759 L 391.1172 266.5033 L 392.4294 265.3424 L 392.6863 263.963 L 393.8642 263.739 L 397.1583 262.0264 L 395.048 260.716 L 394.8358 259.9001 L 392.9989 260.8082 L 392.1389 258.751 L 392.4628 254.7522 L 390.5589 252.3852 L 391.7761 252.6437 L 393.0659 251.8972 L 391.3182 249.9211 L 391.4076 247.394 L 392.474 246.3947 L 391.307 245.7344 L 390.6873 246.9173 L 387.823 245.901 L 385.8188 243.0125 L 384.9922 243.4831 L 384.4117 240.1415 L 384.4339 238.1494 L 387.3318 239.0966 L 384.6125 236.8116 L 384.4061 234.9174 L 385.7349 234.0335 L 385.936 230.0557 L 386.4606 227.881 L 389.2189 225.7749 L 389.4423 223.7839 L 390.7711 222.8085 L 389.5315 220.9727 L 388.0297 220.0375 L 386.5669 217.4278 L 386.7455 215.4546 L 383.6914 214.0263 L 381.4356 214.2271 L 380.0286 212.2485 L 377.0359 212.9712 L 377.8232 211.1646 L 381.4748 211.4284 L 380.7377 209.5648 L 382.53 208.6762 L 385.9974 209.0087 L 388.8058 208.3149 L 388.9788 207.1854 L 390.062 206.4745 L 390.0062 203.0577 L 388.5655 199.5783 L 389.2747 198.9247 L 388.4427 197.7443 L 389.1743 195.9618 L 387.6722 194.959 L 388.3087 193.7213 L 387.9234 192.1225 L 386.8683 191.4864 L 385.6287 189.4868 L 386.5276 188.427 L 387.4266 188.8909 L 387.5438 186.4449 L 386.6953 185.912 L 386.5725 184.3197 L 389.4311 181.3468 L 389.1518 178.8727 L 389.5483 176.8515 L 388.8058 173.7537 L 389.995 172.5056 L 389.7045 171.166 L 390.1568 167.5538 L 392.9596 165.8999 L 393.0045 164.3143 L 395.7347 163.4044 L 397.527 161.8879 L 398.8614 161.4814 L 399.1685 160.2454 L 400.8492 159.4099 L 401.1674 158.4146 L 402.9595 158.1512 L 404.6626 159.4388 L 408.5988 160.2625 L 409.4308 158.8436 L 409.3192 156.7724 L 409.961 156.0056 L 410.3297 150.1251 L 409.2297 147.6143 L 408.2862 143.4169 L 407.7279 142.1015 L 408.5374 139.9233 L 411.1726 143.2567 L 413.6684 144.0687 L 415.6842 142.9538 L 417.8561 142.4903 L 419.8716 142.8737 L 421.3625 142.1759 L 423.5734 138.8372 L 422.1608 135.4414 L 426.3427 133.738 L 426.5605 132.3433 L 428.0402 132.1204 L 428.3694 130.8745 L 430.8876 130.3373 L 429.581 127.383 L 431.9038 126.697 L 432.4508 125.2744 L 433.8523 125.7144 L 436.0912 124.4575 L 436.6551 125.4286 L 438.6877 126.1085 L 438.2242 128.1601 L 438.241 131.3433 L 439.1958 133.1207 L 440.7924 132.9264 L 445.8177 134.1951 L 445.7616 136.6247 L 447.0237 139.8546 L 445.851 142.4276 L 446.6606 144.4575 L 450.4406 146.2758 L 450.9767 149.8104 L 452.0262 150.8574 L 455.6277 152.9338 L 457.3193 155.0103 L 456.9565 157.0241 L 458.1625 158.1743 L 460.273 158.4602 L 460.9151 159.4331 L 463.1148 159.3127 L 463.7233 160.0108 L 466.9339 161.3842 L 467.7434 162.2713 L 469.8539 162.5458 L 471.155 161.8591 L 473.7066 162.4486 L 474.5607 163.2386 L 475.7723 162.4088 L 475.9119 161.4127 L 478.1509 160.3084 L 480.9257 160.5089 L 481.8471 159.8909 L 486.7773 160.4288 L 487.9384 159.5075 L 489.2451 159.7075 L 491.6739 158.4602 L 495.8168 157.5047 L 497.7207 160.4113 L 500.6575 160.1141 L 501.6457 160.915 L 504.3257 161.4358 L 505.6713 160.8065 L 508.8539 161.7448 L 510.2553 160.5715 L 511.4557 160.7605 L 513.4322 162.7291 L 514.5824 162.5458 L 514.9845 161.4814 L 518.0663 161.7676 L 519.0825 162.4714 L 520.2997 162.0136 L 521.9134 162.4201 L 522.5053 163.2955 L 524.2976 163.3012 L 524.666 164.1826 L 528.5352 166.2833 L 528.8367 167.3534 L 530.7854 168.7446 L 534.8276 167.7485 L 536.0617 167.1476 L 537.7589 168.7446 L 539.2666 171.0916 L 540.6624 171.9905 L 540.6568 173.0898 L 543.8113 174.6127 L 552.0188 175.2883 L 554.8721 174.1431 L 556.4129 173.0954 L 556.1617 172.2023 L 557.6915 169.8951 L 562.3203 169.7235 L 565.2124 167.6627 L 567.2447 167.9831 L 569.5953 166.0715 L 572.3258 166.2146 L 575.5304 164.9669 L 577.0325 165.4418 L 578.2329 165.0811 L 580.1256 165.6707 L 581.8007 166.9814 L 583.0344 166.2776 L 584.3411 168.7674 L 587.4734 168.4068 L 590.4717 169.8606 L 592.1577 169.5744 L 595.0668 167.903 L 595.6921 168.5958 L 597.9925 169.2426 L 600.5495 171.2347 L 603.6596 174.4923 L 603.4808 176.0327 L 600.5217 177.1434 L 601.108 179.6118 L 600.2926 180.1899 L 599.8796 183.151 L 597.0824 183.214 L 596.0718 184.1136 L 593.8886 183.4603 L 593.2353 180.2244 L 592.5822 180.213 L 591.1918 178.4089 L 590.237 178.7182 L 589.6229 177.1434 L 586.178 177.6702 L 588.1433 178.5349 L 586.8033 179.4569 L 587.49 180.7858 L 586.1166 185.9348 L 584.3579 186.0782 L 583.2133 186.8917 L 581.153 186.777 L 578.3947 189.8019 L 576.4684 194.2139 L 577.0045 195.7785 L 578.875 198.4662 L 578.5733 199.286 L 579.2659 202.6448 L 581.0245 203.4073 L 581.0747 204.5365 L 578.7354 207.0362 L 576.6638 206.7553 L 574.023 205.2018 L 573.2245 206.9504 L 571.6388 207.4605 L 570.2096 209.8343 L 567.3061 209.0774 L 566.5134 207.5008 L 564.8495 206.5891 L 563.9674 204.5938 L 560.5224 203.5735 L 559.7239 202.3753 L 557.7866 202.5931 L 555.609 204.4161 L 553.962 204.5998 L 553.1634 203.8142 L 549.5286 203.8601 L 546.2513 207.856 L 542.5215 208.4755 L 540.8298 210.1554 L 539.2105 209.7428 L 537.96 210.3333 L 535.5926 212.8163 L 532.896 214.4852 L 533.1806 216.6763 L 532.3318 217.3128 L 533.5546 218.7068 L 534.3866 221.6783 L 536.0785 224.8512 L 536.7873 225.488 L 536.5252 226.9568 L 534.5038 226.32 L 532.17 227.3758 L 530.2269 225.6831 L 527.7871 227.6627 L 525.0008 226.5382 L 523.6776 226.9112 L 523.0078 228.8218 L 523.538 229.0055 L 521.958 231.2439 L 521.919 232.3229 L 522.8906 233.5283 L 524.4538 233.5625 L 527.2678 238.2928 L 526.5531 240.2333 L 527.9212 242.151 L 529.6128 242.7483 L 528.5352 244.7351 L 529.423 247.101 L 531.2321 247.5032 L 533.5939 249.2721 L 533.7223 250.846 L 536.581 252.1499 L 535.0623 254.6429 L 532.1476 257.6649 L 531.3827 259.1013 L 528.7697 261.13 L 529.6854 264.4631 L 529.4454 266.9344 L 530.4781 268.0785 L 530.5342 269.2223 L 529.5346 269.343 L 529.1159 270.9527 L 527.424 271.9185 L 526.7875 274.8679 L 526.0506 275.943 Z"/>
<path  id="_u5ef6__u5e86__u533a_" title="延庆区" name="延庆区" stroke-miterlimit="10" stroke="#FFFFFF" fill="#D3D3D3" d="M 190.4731 315.075 L 189.0327 313.791 L 188.6642 311.7637 L 187.3242 311.0268 L 186.386 309.2358 L 185.9561 306.6681 L 184.8954 306.7371 L 184.834 304.1865 L 183.1979 301.2681 L 184.281 298.9371 L 182.5112 298.1889 L 182.1203 296.8824 L 180.3897 295.3399 L 179.7363 295.8522 L 178.6364 293.6137 L 179.8479 292.2959 L 178.6922 291.1222 L 178.3013 289.0681 L 179.016 288.217 L 178.0781 286.2897 L 177.4693 283.6493 L 175.13 282.3208 L 170.7134 283.057 L 170.1608 282.2229 L 168.6477 282.5337 L 168.0895 281.6362 L 166.727 281.6996 L 166.2358 280.7103 L 165.3088 281.6191 L 163.0922 281.711 L 163.081 280.7908 L 161.8529 280.716 L 162.4167 279.7616 L 162.3999 276.6962 L 160.8255 275.3798 L 158.3967 276.1042 L 156.7328 273.9651 L 155.8841 273.9078 L 155.644 272.3325 L 144.9351 257.6823 L 145.0523 255.6543 L 143.193 255.6713 L 142.3277 254.0399 L 137.9894 251.5124 L 138.8213 250.1048 L 138.5367 248.4277 L 139.335 248.7093 L 138.7823 246.8023 L 140.4182 244.425 L 138.6371 245.0566 L 137.9725 244.1207 L 138.2908 241.3013 L 139.6588 239.642 L 139.5304 237.7934 L 141.1329 234.4581 L 139.0837 233.8038 L 137.3641 232.2254 L 130.9432 232.2596 L 130.6864 233.4308 L 128.8103 230.2166 L 130.692 226.7044 L 130.8762 225.0633 L 132.1882 222.3496 L 134.0363 220.5939 L 133.3272 218.7182 L 133.8857 217.3819 L 135.0917 217.7834 L 136.2419 217.1925 L 137.9223 214.5482 L 138.9163 214.3417 L 139.5638 213.0687 L 141.8028 210.8552 L 143.8017 209.8172 L 145.6386 211.0959 L 147.1965 210.7577 L 149.8987 211.1991 L 151.1717 210.511 L 151.6352 209.1006 L 151.4008 207.3459 L 153.1928 200.6559 L 158.2125 198.5121 L 160.5406 199.5438 L 163.5669 198.3975 L 163.98 197.5378 L 168.6867 197.7382 L 169.4183 197.0964 L 171.1769 193.5892 L 172.0089 193.1538 L 174.6665 189.8823 L 178.0223 190.1169 L 180.1382 191.4978 L 181.9361 191.2974 L 184.5101 192.088 L 185.487 192.9018 L 187.2962 192.6437 L 190.5793 193.9388 L 190.1716 195.681 L 191.8019 195.194 L 192.6394 199.3202 L 194.5155 203.5105 L 198.0107 203.2065 L 198.2451 201.7619 L 200.6462 201.6989 L 206.0284 193.7095 L 206.8937 193.429 L 207.3014 196.976 L 207.9211 196.0822 L 211.1818 195.3143 L 212.8737 193.8587 L 214.8446 193.5436 L 216.0282 192.3632 L 217.9209 192.386 L 218.9037 191.7213 L 219.7578 188.9596 L 222.1978 187.5563 L 222.9125 186.5592 L 225.6817 185.1502 L 227.1558 186.4275 L 230.88 186.0839 L 231.8738 185.362 L 231.4327 184.188 L 229.3836 181.4615 L 229.0597 179.5601 L 229.512 178.6495 L 232.7169 176.7827 L 235.8436 171.9559 L 237.4237 172.1966 L 239.7128 173.4902 L 242.7167 173.811 L 244.0287 170.1813 L 244.2466 167.9433 L 245.0673 166.9643 L 245.6536 164.3428 L 245.0283 161.8705 L 246.3291 160.2454 L 246.7814 157.6307 L 247.6414 156.0113 L 248.6519 155.571 L 250.6172 151.6181 L 252.08 150.8631 L 254.2018 148.678 L 253.9394 146.2189 L 255.497 145.5898 L 256.2173 146.1502 L 258.1156 144.5376 L 258.1493 142.9306 L 258.903 141.2895 L 261.6668 139.117 L 260.684 138.2195 L 261.1588 134.9897 L 262.1915 133.6921 L 262.0297 130.846 L 264.7543 128.9771 L 265.4802 127.7486 L 268.121 129.1486 L 268.9698 130.9143 L 271.259 132.9719 L 271.3372 135.2698 L 272.4818 136.8248 L 272.2919 138.0536 L 273.3359 138.4997 L 274.4134 137.6823 L 276.9541 137.7222 L 278.8076 140.2148 L 280.6503 140.6263 L 281.4988 141.8844 L 282.3476 140.8207 L 281.4988 137.7507 L 282.8946 135.4471 L 284.0672 134.744 L 287.4284 134.178 L 288.2269 134.5611 L 290.8453 134.4179 L 293.559 135.4414 L 295.7197 134.5781 L 297.4506 135.2068 L 298.3271 134.6468 L 300.6945 134.6924 L 304.1115 132.5319 L 306.9367 132.4461 L 308.1705 131.8118 L 309.8958 132.7035 L 310.4821 135.7443 L 312.7155 136.4303 L 314.5804 136.1445 L 316.1492 136.6361 L 317.9359 135.8013 L 320.4819 136.9903 L 323.5528 134.544 L 325.1721 135.0811 L 327.5171 134.9555 L 328.8235 137.2363 L 330.4817 137.9052 L 331.5705 139.1743 L 332.8435 138.7912 L 333.5527 140.2778 L 333.2624 143.8569 L 334.5018 144.9779 L 336.4337 145.6813 L 335.3113 147.8087 L 335.6464 151.0233 L 334.6078 153.3055 L 333.8765 153.2713 L 333.6085 154.7814 L 334.3958 156.5663 L 333.2902 158.0198 L 333.0614 159.6274 L 333.4912 161.3785 L 331.8832 161.5501 L 329.7894 163.3012 L 328.3378 167.7713 L 329.3428 169.5744 L 330.8614 169.7004 L 333.1954 170.6965 L 334.3622 170.0268 L 336.3779 170.2842 L 337.3885 172.6373 L 338.1422 173.2154 L 337.6843 174.3492 L 339.9959 175.2481 L 340.6548 176.6051 L 343.4686 175.8607 L 344.5518 176.8974 L 344.7974 178.1971 L 346.2157 179.0906 L 346.4336 180.7915 L 347.1648 180.7741 L 349.8337 182.8989 L 352.5081 183.1225 L 352.5586 184.7607 L 351.1961 186.9661 L 349.1248 185.8718 L 346.5732 187.0636 L 344.7921 186.399 L 343.2679 186.9202 L 343.1728 189.0344 L 342.2907 190.4494 L 341.5647 193.7384 L 342.3745 196.237 L 341.0345 197.5033 L 341.2075 199.1312 L 339.4878 202.0887 L 337.5281 203.2467 L 336.2885 205.7233 L 335.3337 205.7347 L 334.1502 209.3583 L 332.7765 209.9492 L 331.7828 212.0193 L 328.6617 212.8163 L 327.3438 216.8999 L 324.9318 219.0279 L 323.9995 220.9325 L 322.3524 222.9634 L 323.6644 224.943 L 324.8592 224.8857 L 326.4507 226.5841 L 329.728 225.9928 L 330.6604 225.1954 L 332.1793 225.1954 L 332.8993 227.7546 L 334.485 228.7129 L 335.9646 231.2322 L 337.891 232.8452 L 337.8741 234.5557 L 335.8586 236.2893 L 334.9987 237.6268 L 330.6828 238.3904 L 329.3986 238.1376 L 328.3824 236.9782 L 324.2897 237.001 L 323.5862 236.2605 L 321.5373 235.7497 L 321.0124 238.4306 L 317.6121 238.1148 L 314.9264 239.4007 L 311.6769 238.6488 L 310.527 237.6841 L 309.7284 238.2124 L 307.8133 238.0458 L 304.3963 241.4045 L 302.364 240.2504 L 302.6988 238.0287 L 299.8904 236.714 L 300.3651 234.6532 L 300.0805 232.7647 L 297.9699 231.5252 L 296.9759 231.7662 L 294.6085 230.9453 L 292.3642 231.967 L 290.6779 231.4736 L 289.1649 232.1218 L 287.54 231.37 L 285.5803 231.5825 L 282.9058 234.5557 L 282.1075 234.5902 L 280.3879 236.6852 L 278.6233 236.3466 L 277.1605 236.8632 L 277.9868 240.4113 L 279.8184 242.9893 L 281.2086 243.707 L 279.6339 246.4349 L 277.73 248.4277 L 277.8752 249.4444 L 276.6524 252.6725 L 276.8871 254.4706 L 277.8977 256.803 L 278.484 259.8656 L 277.2275 261.3194 L 276.5576 260.8196 L 276.312 262.4514 L 277.1383 264.2275 L 276.1387 265.5549 L 276.6412 266.331 L 275.6419 268.6474 L 276.6748 270.1995 L 276.9037 273.2236 L 274.7987 276.0408 L 271.5996 273.3959 L 269.0368 274.1548 L 268.2551 273.2179 L 266.9319 273.9135 L 266.5912 275.6728 L 265.441 276.3228 L 264.302 274.4193 L 263.8834 275.2417 L 262.4651 275.2705 L 261.1809 276.1387 L 259.8857 273.9594 L 258.6127 273.6031 L 255.7373 273.7294 L 255.1173 275.6959 L 250.807 276.9265 L 247.4347 278.7378 L 246.5803 277.5819 L 244.8607 278.1454 L 244.347 279.0827 L 241.8122 279.244 L 238.8587 280.831 L 238.9703 282.5565 L 238.1328 284.6618 L 239.5174 285.3004 L 240.8462 286.8475 L 240.0255 289.4078 L 237.9205 289.7933 L 238.6745 288.3608 L 237.9374 285.5535 L 236.2345 286.7325 L 236.8766 287.5093 L 236.011 288.3202 L 236.0335 289.8278 L 237.7029 289.9887 L 236.1507 291.8071 L 236.2289 294.0509 L 237.1836 296.8247 L 234.7215 298.5687 L 231.9576 298.275 L 230.3161 295.0177 L 230.4221 294.4079 L 228.7527 291.8644 L 226.7761 291.6113 L 225.6203 292.1521 L 222.3374 291.8644 L 221.5335 290.1212 L 220.0314 288.8268 L 218.8869 288.6541 L 217.5468 289.6723 L 215.7826 289.7299 L 213.5268 293.2741 L 214.4928 294.9373 L 212.9295 297.2046 L 210.6235 296.8365 L 209.987 298.3038 L 207.5972 298.4363 L 206.2684 295.5414 L 206.3522 294.189 L 203.7782 290.4949 L 201.3104 291.036 L 199.0325 293.7689 L 197.5194 292.5148 L 194.6661 294.2178 L 193.851 295.5243 L 192.1425 296.0707 L 192.9857 298.7357 L 192.751 299.737 L 196.0566 301.481 L 196.6984 303.0121 L 194.6717 303.5536 L 193.5886 306.5239 L 194.2699 308.0842 L 193.6278 309.3739 L 194.4261 311.0556 L 192.9801 313.163 L 190.4731 315.075 Z"/>
</svg>