<?xml version="1.0" encoding="UTF-8" standalone="no"?><svg xmlns="http://www.w3.org/2000/svg" xmlns:xlink="http://www.w3.org/1999/xlink" contentScriptType="text/ecmascript" zoomAndPan="magnify" contentStyleType="text/css" id="图层_1" mapName="宁波" mapType="省市地图" enable-background="new 0 0 800 600" version="1.1" xml:space="preserve" preserveAspectRatio="xMidYMid meet" viewBox="0 0 800 600" x="0px" y="0px"><path  id="_u5317__u4ed1__u533a_" title="北仑区" name="北仑区" stroke-miterlimit="10" stroke="#FFFFFF" fill="#D3D3D3" d="M 410.9915 306.838 L 410.5108 302.7614 L 409.344 297.4187 L 409.0121 296.5954 L 406.7012 295.5075 L 404.3866 294.0338 L 403.2423 293.8437 L 402.9627 293.176 L 401.524 293.1704 L 400.7598 292.4104 L 399.6975 291.9789 L 398.5793 290.2694 L 397.6363 289.1068 L 396.8235 289.2335 L 396.492 288.7499 L 395.4669 286.1773 L 394.5052 284.612 L 393.1299 283.3287 L 392.496 282.0454 L 391.1914 281.2457 L 391.1803 277.4366 L 390.2894 276.1304 L 388.9513 275.5148 L 388.6308 274.3642 L 387.7362 272.926 L 386.7037 271.7004 L 384.9295 270.4235 L 384.0945 270.0324 L 382.1527 269.6642 L 381.858 269.3249 L 382.3984 267.9441 L 382.9465 267.1159 L 382.7453 265.9657 L 380.8816 264.3895 L 379.8341 263.757 L 379.7781 262.8253 L 378.0411 262.9288 L 376.5129 262.3765 L 375.8495 261.9225 L 375.2791 259.9901 L 374.1685 260.088 L 373.6017 258.7997 L 372.6326 258.8283 L 371.7604 258.3742 L 371.6263 256.8445 L 370.0646 257.1264 L 369.3825 256.3901 L 370.2882 254.5792 L 370.3479 253.4289 L 369.893 250.9109 L 369.5575 249.8873 L 368.4767 249.5368 L 367.8801 249.0193 L 366.7994 248.7895 L 365.7667 249.9795 L 364.4175 250.8648 L 363.1799 252.0492 L 361.1932 253.6936 L 360.3659 254.5792 L 359.3593 254.9298 L 358.4351 254.8034 L 357.2794 255.6886 L 356.5637 255.4359 L 355.4568 256.1029 L 354.8417 255.5851 L 354.2005 253.5556 L 353.798 251.4628 L 352.9184 250.428 L 352.0163 250.3012 L 352.6388 248.4157 L 352.2101 246.8635 L 352.6127 245.3458 L 351.9158 244.11 L 350.585 243.8456 L 350.1526 242.7077 L 351.0285 241.65 L 350.2086 239.4142 L 349.6941 239.46 L 349.3588 238.4544 L 348.9784 238.6497 L 348.1994 237.6153 L 346.9471 236.937 L 347.9051 235.2246 L 348.8443 234.2592 L 349.8171 233.9315 L 352.02 233.5292 L 353.2241 233.11 L 354.9386 232.2135 L 355.6656 231.4778 L 356.7092 229.9034 L 357.8834 226.301 L 358.886 224.2556 L 359.363 223.8248 L 360.7497 223.394 L 363.5564 223.8308 L 365.1965 223.2965 L 366.0278 222.3542 L 366.5497 221.3951 L 367.4628 218.6838 L 368.0108 217.5233 L 369.3788 216.007 L 371.2573 214.9159 L 374.2952 214.0085 L 376.9715 212.6358 L 382.7675 207.6282 L 386.8975 211.0336 L 389.626 213.4168 L 395.124 219.1949 L 401.6618 224.1064 L 412.7061 231.2536 L 414.7749 231.6274 L 417.3841 232.2592 L 419.2254 231.0065 L 418.8416 229.6852 L 419.3893 228.6222 L 422.39 225.4622 L 425.2899 222.8139 L 426.1956 221.7337 L 428.9389 220.1368 L 430.1802 219.6947 L 430.9779 220.0565 L 431.4177 221.2627 L 432.3422 222.1761 L 433.3709 222.2912 L 433.8033 223.0321 L 434.5079 226.3471 L 434.8133 226.6343 L 436.6771 226.9616 L 437.1842 227.4157 L 438.1569 230.2713 L 439.3945 231.4261 L 439.607 232.5581 L 439.413 235.8797 L 439.413 238.46 L 439.5436 239.9373 L 439.9908 241.92 L 441.2059 242.7077 L 446.8605 242.3166 L 448.7986 242.6904 L 455.9254 242.4775 L 457.9456 243.0005 L 458.844 242.903 L 459.7835 242.1846 L 463.1007 238.529 L 464.0363 237.8106 L 466.9176 237.6153 L 469.4374 236.0807 L 470.5891 236.0807 L 471.8491 236.4657 L 475.6212 238.9714 L 476.307 241.0865 L 476.5939 243.5869 L 476.4002 247.4326 L 474.5066 249.347 L 470.2985 251.6697 L 465.613 253.7855 L 462.5231 256.8561 L 461.0097 259.1158 L 459.0974 260.3178 L 456.1751 261.957 L 451.4488 265.6147 L 450.2933 266.8572 L 449.231 268.4851 L 448.5526 269.9518 L 448.2321 272.454 L 447.0318 274.3181 L 445.0303 278.9265 L 443.7555 281.6139 L 443.3157 283.5702 L 442.8461 284.6638 L 439.4615 288.0649 L 438.0748 288.8076 L 435.9205 289.2736 L 433.2516 290.7758 L 427.8582 292.3816 L 424.5518 292.5026 L 422.1588 292.8997 L 418.9757 295.4614 L 413.9325 303.2161 L 410.9915 306.838 Z M 448.0645 273.7197 L 448.8023 274.6863 L 447.5239 275.9865 L 447.9227 276.6654 L 447.3525 277.3616 L 447.0653 274.9337 L 447.1772 274.3987 L 448.0645 273.7197 Z M 441.2619 238.6554 L 440.2033 237.5463 L 439.9945 236.6269 L 440.0281 234.9888 L 440.4045 234.2419 L 441.2096 233.696 L 441.9514 233.6788 L 443.4387 235.0578 L 444.1544 234.9026 L 444.7396 235.4027 L 445.0115 236.213 L 444.9595 237.9887 L 444.3371 239.0404 L 442.8683 239.1612 L 441.2619 238.6554 Z M 449.4958 273.3748 L 448.9739 271.3727 L 448.9069 270.4463 L 450.2413 272.667 L 449.4958 273.3748 Z M 440.2815 239.7359 L 441.1613 239.4142 L 443.1739 239.3107 L 443.7257 240.2361 L 443.1256 241.5409 L 442.4248 242.173 L 440.8332 242.173 L 440.3301 241.7074 L 440.0766 240.3051 L 440.2815 239.7359 Z M 480.4296 240.2706 L 480.0492 241.6099 L 479.4529 241.8108 L 479.1585 240.6613 L 479.9225 239.983 L 480.4296 240.2706 Z M 445.3769 236.4083 L 446.4019 235.7417 L 446.7673 236.8223 L 446.54 237.5924 L 445.9025 237.8335 L 445.2465 237.5579 L 445.3769 236.4083 Z"/>
<path  id="_u6148__u6eaa__u5e02_" title="慈溪市" name="慈溪市" stroke-miterlimit="10" stroke="#FFFFFF" fill="#D3D3D3" d="M 286.5443 188.116 L 285.2025 188.8678 L 284.4198 188.9713 L 281.7958 187.6454 L 280.7148 186.027 L 280.6662 184.8735 L 281.423 183.5997 L 282.7313 182.5611 L 283.5922 182.1422 L 283.7785 181.5227 L 283.6444 180.289 L 283.3538 180.0768 L 282.008 181.2528 L 280.9159 181.7923 L 280.4165 181.6776 L 279.7343 180.811 L 279.2721 179.5488 L 278.9107 179.3193 L 278.1465 180.1454 L 278.0683 181.3964 L 276.9313 181.729 L 275.433 180.8283 L 274.7844 180.9145 L 273.3306 182.1651 L 272.2385 182.6244 L 270.5387 182.3661 L 267.4488 179.7266 L 265.943 179.9733 L 264.5563 180.5703 L 262.454 179.9159 L 260.1022 178.9121 L 256.8145 178.3152 L 255.9386 178.5563 L 255.2676 179.0899 L 251.9876 179.2331 L 251.1489 179.1529 L 250.1463 178.6654 L 249.4679 178.8143 L 246.3703 180.2201 L 243.0863 180.289 L 242.7474 180.421 L 242.6727 181.4594 L 241.8937 181.666 L 240.0075 180.4439 L 239.1018 179.6579 L 237.6071 179.3366 L 236.8355 179.589 L 235.9411 179.2275 L 234.6439 179.721 L 232.1426 179.5661 L 231.2108 179.1757 L 229.6826 177.4546 L 228.6987 175.286 L 227.8339 174.8788 L 226.0446 174.9133 L 225.4483 175.3434 L 225.1352 174.3051 L 223.7599 172.3949 L 224.2295 171.4769 L 224.0619 169.9398 L 222.7609 167.9093 L 222.936 165.8157 L 222.1123 164.3761 L 221.0984 163.7053 L 220.4199 162.518 L 221.6501 160.7346 L 226.4844 159.7082 L 227.245 159.1232 L 228.1359 157.8561 L 228.9558 157.5752 L 230.5661 155.941 L 231.7364 152.9253 L 232.1091 152.5525 L 233.3765 152.524 L 234.1481 152.2604 L 235.4601 150.9186 L 235.4899 149.3481 L 233.1677 146.8086 L 232.8807 144.1547 L 232.9853 143.2892 L 232.4336 143.5528 L 230.0778 143.249 L 229.403 143.3064 L 229.2837 142.7274 L 227.8339 142.5497 L 227.722 142.9108 L 224.6693 143.4553 L 224.2593 144.9227 L 221.8626 144.7738 L 213.8674 144.5042 L 212.3986 144.9343 L 212.0295 147.181 L 211.2059 146.6995 L 211.3138 146.1493 L 209.372 145.9603 L 209.4316 145.4155 L 207.9407 145.3525 L 207.4225 145.9315 L 207.5157 146.6995 L 206.8969 146.6537 L 206.8597 148.1729 L 205.8644 148.0236 L 206.3193 146.6826 L 205.6931 146.7456 L 205.9056 145.5358 L 205.5514 146.0117 L 204.6865 145.9888 L 204.6829 144.8998 L 204.1237 144.8023 L 204.0158 145.7136 L 203.2032 145.0146 L 203.449 143.8453 L 203.3709 142.4293 L 202.5731 141.14 L 201.194 141.2544 L 200.4 135.7473 L 200.6238 134.7615 L 200.5381 131.7306 L 200.9293 130.9971 L 202.2788 130.7049 L 202.2154 129.2495 L 201.6563 126.2876 L 200.7952 119.5687 L 200.348 120.2786 L 199.815 120.3247 L 199.3192 117.2661 L 198.1712 117.7757 L 196.5757 118.7665 L 192.3078 120.273 L 190.0901 121.2811 L 189.654 119.9407 L 191.6183 117.9992 L 195.7111 115.9602 L 196.2217 115.5938 L 196.1955 113.6182 L 196.7734 112.1462 L 197.4442 111.2817 L 200.3741 109.1516 L 200.6537 109.1287 L 200.0125 106.7124 L 199.4309 105.3727 L 188.927 87.8749 L 185.2257 80.1905 L 186.8621 77.4159 L 190.5373 71.9247 L 197.6047 64.6099 L 198.8942 57.6509 L 200.9145 48.2359 L 203.5535 40.0633 L 206.1142 32.0009 L 217.2593 45.1265 L 223.007 51.511 L 234.1629 61.9563 L 248.234 61.825 L 261.2426 64.6099 L 272.8127 73.8408 L 278.9405 85.2657 L 294.152 99.3043 L 300.3767 106.0425 L 306.0537 113.3661 L 313.9072 125.2278 L 322.8644 139.5695 L 330.8446 153.8714 L 336.9205 166.2747 L 338.2958 173.2382 L 339.9098 177.0357 L 341.6505 179.0036 L 339.3246 180.6445 L 338.333 182.2056 L 336.5514 185.8264 L 336.2383 187.1174 L 335.6306 188.2539 L 333.834 190.0328 L 333.0587 190.2796 L 331.6796 190.1536 L 328.0902 190.8536 L 327.039 190.7847 L 325.7307 189.9871 L 323.3301 188.8622 L 322.1783 186.7443 L 321.5598 186.1305 L 319.4538 185.367 L 319.2412 184.5466 L 317.9219 184.9369 L 316.9602 184.9827 L 315.8902 185.4188 L 314.9024 185.1949 L 314.4478 184.5293 L 313.7248 185.0172 L 313.3557 184.7359 L 313.2103 183.6342 L 312.5728 183.1291 L 311.0037 183.6571 L 309.3709 183.8064 L 307.9919 185.2294 L 305.9605 185.8492 L 304.9539 185.8035 L 304.5627 187.2036 L 304.8534 188.4433 L 303.3178 189.3785 L 301.5697 188.9195 L 301.618 187.8464 L 301.976 187.5021 L 301.9274 185.9524 L 301.6032 184.8968 L 301.1259 184.5638 L 299.3554 184.6958 L 298.4684 185.5564 L 293.6116 187.0657 L 293.1903 186.5493 L 291.9491 186.1076 L 290.9911 186.0615 L 290.1712 187.0488 L 289.2467 187.387 L 287.5767 187.5422 L 286.5443 188.116 Z"/>
<path  id="_u5949__u5316__u533a_" title="奉化区" name="奉化区" stroke-miterlimit="10" stroke="#FFFFFF" fill="#D3D3D3" d="M 234.8601 413.2749 L 235.3706 411.8019 L 235.1024 410.9702 L 234.5246 410.3813 L 233.768 410.312 L 233.358 409.8037 L 231.4309 409.5035 L 232.262 408.129 L 231.5537 406.6335 L 231.4756 404.8201 L 230.6965 403.4344 L 230.0107 402.9493 L 229.9286 402.0486 L 231.4531 401.3383 L 232.0645 401.7656 L 233.6524 399.6006 L 233.7529 398.1399 L 232.754 397.707 L 231.4903 396.3216 L 231.7216 394.6993 L 231.4645 393.6719 L 232.6199 393.1524 L 232.6833 392.471 L 232.1764 390.9877 L 232.6719 388.1997 L 233.8276 386.053 L 234.1592 385.0488 L 234.957 383.6405 L 234.8192 383.2365 L 233.6859 382.4171 L 231.8594 381.4995 L 231.6807 380.6111 L 231.1923 379.9761 L 231.6097 379.307 L 232.7466 379.4281 L 233.2273 379.1743 L 233.3467 377.8991 L 234.0027 376.9586 L 234.9271 376.8776 L 235.7695 375.7756 L 235.1956 372.8968 L 235.188 371.8584 L 233.7566 370.6642 L 233.6001 369.9778 L 234.1927 368.7896 L 232.8995 368.7258 L 231.8446 369.5048 L 230.9275 369.7065 L 229.7908 368.7952 L 229.4999 367.8551 L 228.9894 367.3704 L 226.2162 367.0533 L 224.6431 367.5897 L 223.3499 366.7534 L 220.7592 367.307 L 219.3392 367.3127 L 217.5834 366.3669 L 215.7532 365.6802 L 213.2821 365.6918 L 211.6942 365.2363 L 211.1911 364.3652 L 210.7101 362.3466 L 209.2117 361.3143 L 205.4917 360.876 L 204.474 361.0777 L 204.2618 360.1263 L 204.407 357.8656 L 204.6047 357.1563 L 205.6855 356.0029 L 205.6482 355.0688 L 206.4349 353.7657 L 205.4508 351.4652 L 205.4582 349.9317 L 205.1042 349.8968 L 203.93 350.8137 L 203.464 350.1045 L 202.5509 350.3062 L 202.5433 349.3375 L 203.8814 348.4903 L 203.5646 346.5301 L 203.9448 346.0919 L 204.7874 346.1324 L 205.0184 345.7171 L 204.7201 344.2933 L 205.7116 344.3511 L 206.0659 343.8611 L 205.5849 343.1751 L 204.6718 342.8523 L 204.1686 343.1058 L 203.7325 342.5524 L 204.4854 340.8003 L 204.3996 339.9644 L 203.5797 339.1692 L 202.6776 339.0654 L 202.3049 337.2672 L 201.4924 335.936 L 200.2809 335.3883 L 199.498 334.6449 L 198.4769 334.8005 L 197.8021 335.3021 L 195.7222 333.8899 L 194.8389 333.4809 L 194.2312 332.0748 L 194.8276 326.8831 L 194.4662 323.9909 L 194.015 323.0575 L 192.6956 321.646 L 190.1683 315.661 L 188.9532 315.0334 L 188.0846 315.5515 L 188.3866 313.1328 L 189.3222 310.5929 L 190.2876 309.6542 L 191.5476 309.6943 L 191.8868 310.0111 L 193.5565 313.7948 L 194.8537 314.4055 L 198.0519 314.4228 L 198.7377 314.0426 L 199.6099 312.9427 L 200.0312 313.0233 L 203.0504 317.2104 L 204.3587 318.7486 L 205.7937 318.7774 L 208.2538 317.0608 L 209.4353 315.4537 L 210.2777 313.4956 L 211.0939 310.9787 L 211.5116 310.4778 L 212.9838 310.5063 L 214.4748 308.9171 L 216.2902 307.7193 L 217.0692 307.8401 L 217.5388 307.4832 L 217.9525 306.3315 L 218.7687 306.1759 L 219.6523 304.9898 L 220.189 303.5847 L 221.4413 302.6058 L 222.5967 302.0243 L 224.4159 301.9092 L 225.2954 300.867 L 225.3105 299.3704 L 224.8369 297.2976 L 226.1676 296.2329 L 226.9802 298.2015 L 228.4899 301.2356 L 229.6902 301.2989 L 232.8921 299.8079 L 233.5293 299.7446 L 234.4166 300.4123 L 234.9382 300.1589 L 235.6056 299.1688 L 236.4255 300.3028 L 236.8542 300.136 L 237.9239 298.386 L 238.4159 299.1114 L 238.9378 298.9787 L 239.5043 297.9541 L 240.2387 298.4088 L 240.9209 298.1899 L 242.203 297.1597 L 242.7175 297.0558 L 243.2392 297.6545 L 244.0557 299.4278 L 245.0395 299.6122 L 246.0572 300.4989 L 247.2351 299.6869 L 247.6561 299.7907 L 248.1482 300.6601 L 248.8789 300.4873 L 251.8683 299.2838 L 253.8811 299.4106 L 255.111 299.7907 L 256.6392 299.7847 L 257.8469 300.2743 L 258.585 300.1937 L 261.2352 299.0248 L 262.0477 298.8002 L 263.7549 299.7734 L 264.9217 299.5661 L 265.4584 298.3743 L 266.5655 297.033 L 267.4599 297.5282 L 268.3062 296.9985 L 269.3946 297.1252 L 269.8679 296.2329 L 270.3004 296.1118 L 271.1464 297.2515 L 271.6123 297.4244 L 272.6635 296.6528 L 273.1369 296.6183 L 274.1991 297.7411 L 275.1869 297.8907 L 275.8802 297.4476 L 276.883 297.6028 L 277.0208 296.6071 L 278.7914 296.6416 L 279.1081 296.4515 L 279.7568 294.9204 L 280.1593 294.5519 L 281.285 294.4079 L 285.6312 295.5765 L 286.865 295.1333 L 287.2489 293.907 L 286.4846 291.5759 L 286.8238 290.753 L 287.398 290.4017 L 288.7808 290.54 L 288.9188 288.8361 L 289.2654 287.2994 L 289.2541 285.2966 L 290.1376 284.8478 L 293.0934 285.2104 L 293.6489 283.6853 L 293.4253 282.9144 L 292.3852 282.4079 L 291.513 281.585 L 291.3118 280.7966 L 291.759 279.6977 L 292.9295 279.3063 L 293.8574 280.3249 L 294.2824 281.9704 L 294.6776 282.6899 L 295.3859 282.6325 L 295.9598 280.2214 L 296.4331 279.7266 L 297.0257 279.9969 L 297.3576 280.8138 L 297.2831 282.3446 L 296.8433 282.1605 L 295.5049 283.4667 L 295.4268 284.071 L 295.8964 284.3357 L 295.8853 285.0953 L 296.3177 285.5729 L 296.0978 286.7527 L 296.5524 288.3067 L 297.8684 287.9903 L 298.4945 288.9801 L 299.0423 290.3616 L 299.1841 292.3816 L 299.3443 300.5851 L 299.8662 303.2911 L 300.1159 305.6346 L 300.5594 306.291 L 301.7708 307.2642 L 303.5226 308.1164 L 306.6426 307.8805 L 307.9845 307.3276 L 310.9252 306.7746 L 314.049 306.7345 L 315.663 307.3853 L 316.9042 308.7672 L 317.9628 309.2969 L 320.147 310.0111 L 322.7636 310.374 L 323.7179 310.973 L 325.7418 310.7886 L 326.9942 311.4971 L 327.4416 313.0923 L 327.147 314.7684 L 325.4214 317.3949 L 325.179 319.0942 L 324.8398 319.8429 L 323.8 321.2082 L 323.3451 322.3028 L 323.032 324.0427 L 322.6443 325.1545 L 322.842 326.0014 L 322.6965 327.0559 L 322.1039 328.6173 L 322.063 329.4645 L 322.6107 330.8126 L 323.8409 331.5042 L 324.1688 332.8759 L 326.2973 333.2733 L 328.3175 334.5411 L 328.8244 335.1578 L 328.7684 336.7138 L 329.4022 337.4921 L 330.975 337.5727 L 332.3132 337.9588 L 333.3794 337.3421 L 334.4527 335.4921 L 336.3352 334.7371 L 338.0535 333.2388 L 339.47 332.6105 L 340.0439 332.8238 L 340.9869 333.74 L 342.3102 335.8033 L 343.4432 336.5526 L 344.4981 338.0105 L 347.0329 338.3333 L 347.6741 338.1834 L 350.9765 336.881 L 351.9902 335.7167 L 352.3817 334.9216 L 353.7124 333.9705 L 355.1324 334.1954 L 357.4547 333.4922 L 359.0201 334.1205 L 360.321 335.0483 L 361.4131 334.6738 L 362.1327 333.7171 L 364.149 333.6249 L 366.1693 333.2965 L 368.4543 333.8209 L 369.6359 333.9072 L 371.0226 334.3739 L 373.2963 334.0744 L 373.9335 334.495 L 374.433 335.6188 L 375.1674 336.0222 L 380.7884 340.7253 L 374.8245 349.5973 L 373.8628 350.6983 L 373.0389 352.3645 L 372.4389 353.1142 L 370.5305 354.6538 L 369.2779 355.8991 L 368.2827 357.2081 L 367.8878 358.1598 L 365.5431 361.3604 L 364.932 362.8021 L 363.8734 364.6362 L 363.3254 365.2708 L 359.613 366.9206 L 354.9685 369.4354 L 353.0823 370.3471 L 352.1581 371.0679 L 349.8804 372.4181 L 348.4082 372.8218 L 345.4635 372.8852 L 344.4796 373.1678 L 340.6701 373.6236 L 339.2163 374.091 L 335.6159 375.695 L 332.1643 376.5257 L 330.5017 376.67 L 327.7473 379.5724 L 325.3654 381.742 L 324.1392 383.1499 L 321.7274 383.7039 L 320.8442 383.6117 L 316.673 382.0651 L 314.5819 381.8229 L 309.6729 382.0134 L 307.9808 382.2671 L 306.5867 381.7825 L 303.9999 381.8919 L 302.4007 381.7536 L 300.6265 380.6283 L 300.1159 379.3359 L 299.24 378.2799 L 298.2968 377.5587 L 296.6232 377.022 L 296.2729 376.2258 L 293.306 374.2121 L 292.0795 374.0161 L 291.5019 376.0065 L 290.6632 376.5661 L 288.7174 376.7566 L 287.4389 377.149 L 286.4326 378.2912 L 285.6386 378.1472 L 283.7748 376.1392 L 282.8654 374.2755 L 281.5049 373.341 L 278.6161 372.92 L 278.4223 373.9063 L 278.605 375.1237 L 277.7365 376.5257 L 276.6109 377.645 L 273.9383 382.1689 L 273.5542 384.4599 L 272.2683 385.7528 L 269.4466 386.0065 L 268.3025 385.8161 L 267.311 385.0488 L 266.107 383.3519 L 264.6867 382.844 L 263.3003 382.7979 L 262.2454 381.667 L 261.4962 381.3439 L 261.2016 383.3002 L 260.7917 383.9464 L 257.9029 386.4222 L 257.5376 387.0051 L 257.012 388.7365 L 255.5585 389.3887 L 254.8576 390.2257 L 253.9667 390.2257 L 252.8484 389.816 L 250.5486 387.9977 L 250.0491 388.0325 L 249.3448 390.0237 L 248.7224 390.9761 L 246.9854 392.9676 L 245.7367 395.1439 L 245.4907 396.4772 L 246.1279 397.9379 L 246.072 399.5661 L 245.1142 401.1363 L 243.3997 402.9437 L 242.4678 405.9116 L 241.957 406.8355 L 240.8425 410.4795 L 238.3301 412.7896 L 236.6903 413.3439 L 234.8601 413.2749 Z"/>
<path  id="_u6d77__u66d9__u533a_" title="海曙区" name="海曙区" stroke-miterlimit="10" stroke="#FFFFFF" fill="#D3D3D3" d="M 224.8369 297.2976 L 223.853 297.1885 L 224.155 296.561 L 223.3201 295.6687 L 222.6379 295.8528 L 222.526 297.3381 L 221.2029 299.0075 L 220.435 299.4912 L 218.9403 299.6869 L 216.9087 298.5817 L 216.4092 297.8791 L 216.551 296.3536 L 217.6207 295.7148 L 216.9311 294.6441 L 215.5967 295.2484 L 214.3481 295.0988 L 213.9566 294.0109 L 214.2214 291.2707 L 214.8066 289.0146 L 214.7992 288.0881 L 214.1691 287.38 L 213.5131 287.1269 L 213.0509 286.2406 L 213.144 284.6926 L 213.3753 284.1918 L 212.8497 283.9214 L 212.2011 284.5543 L 211.6232 284.4853 L 211.53 283.3921 L 212.4136 283.1847 L 211.9215 280.4974 L 212.4954 280.5551 L 213.2784 279.6632 L 213.677 279.9568 L 214.6313 278.219 L 215.1382 278.5122 L 216.6218 278.1557 L 217.4678 278.7196 L 217.4456 281.2052 L 218.2468 281.257 L 218.4409 280.8371 L 217.9116 280.3017 L 218.4744 280.2155 L 219.3131 281.0211 L 220.856 280.6185 L 220.312 279.0476 L 219.5404 278.219 L 220.1256 276.1822 L 219.3577 275.3019 L 219.4472 273.9844 L 220.3642 272.0457 L 220.3157 271.384 L 221.2288 270.0264 L 222.0339 270.3717 L 222.8317 271.3439 L 223.9349 271.0218 L 224.4306 269.2211 L 224.5315 267.6164 L 223.9798 267.4323 L 223.592 266.696 L 223.9761 266.2015 L 223.7934 265.5285 L 224.4494 265.5859 L 226.3131 264.7348 L 226.4435 264.0674 L 227.0734 263.8144 L 226.4361 263.2797 L 227.2748 262.2847 L 227.4239 261.1921 L 228.7098 261.3357 L 230.5363 260.5765 L 230.8196 260.1397 L 232.4037 260.7606 L 232.5492 260.0186 L 234.5544 258.7881 L 235.1658 257.8047 L 236.3883 256.3556 L 236.6605 255.4127 L 236.7872 252.8313 L 238.4608 249.6747 L 238.3415 247.7948 L 238.9489 247.1739 L 240.3245 246.8579 L 241.1669 246.0701 L 241.3905 244.3342 L 242.792 244.2423 L 243.5076 242.7767 L 244.6071 241.4832 L 245.3191 241.2072 L 248.2229 241.8225 L 249.7772 241.6327 L 250.7537 240.9027 L 252.953 240.7074 L 253.5717 240.2878 L 253.2734 238.9714 L 253.3592 237.7761 L 253.676 237.1038 L 254.634 236.7934 L 254.8278 235.282 L 256.3114 233.7534 L 257.9177 233.5119 L 258.1899 234.0005 L 257.9438 236.0578 L 258.5143 236.3622 L 259.8112 234.8568 L 260.24 235.7589 L 260.0908 237.7188 L 260.2848 238.0348 L 261.2315 237.7705 L 262.5548 237.8912 L 264.601 236.3277 L 265.3317 236.4372 L 266.2337 238.4889 L 265.8274 239.6268 L 266.0064 240.1094 L 267.4264 241.4374 L 268.9324 241.8971 L 269.566 241.7074 L 272.6076 238.2647 L 273.8934 235.0923 L 273.9085 234.1156 L 273.6215 231.4089 L 273.9383 230.3631 L 277.1402 223.9455 L 277.5763 222.0899 L 279.2462 223.6354 L 280.5469 223.7963 L 282.0714 223.2275 L 283.1225 223.4686 L 284.7218 226.0539 L 285.605 228.9038 L 286.5295 229.3635 L 290.0183 228.7141 L 292.6238 226.9331 L 293.7159 226.617 L 294.2676 227.0996 L 294.6813 228.8577 L 294.5435 230.4033 L 294.9498 231.6214 L 296.3177 233.0867 L 298.6099 235.8452 L 300.5185 237.3221 L 301.5137 237.0004 L 302.0578 236.1211 L 303.3587 232.173 L 303.8172 231.5584 L 304.9616 231.3744 L 306.4526 231.9664 L 308.5399 235.3394 L 309.2666 237.7705 L 310.2283 238.529 L 311.1639 238.0922 L 312.4276 236.8796 L 313.583 236.414 L 314.5595 236.4601 L 315.4615 236.8796 L 315.0888 238.0176 L 314.2242 242.966 L 314.7834 243.2592 L 315.853 243.2708 L 317.7466 242.8224 L 317.7651 243.3571 L 318.6412 242.9315 L 319.1591 244.2712 L 321.8354 248.9102 L 322.7264 249.2897 L 322.3499 251.8366 L 321.9846 252.7735 L 320.5123 254.5964 L 319.2077 256.5974 L 318.1528 257.0919 L 316.7587 256.8962 L 316.0505 257.0803 L 315.8678 257.6382 L 315.9462 259.8923 L 315.2715 260.7779 L 313.6501 261.4681 L 313.5086 262.2558 L 313.6018 265.2237 L 312.7517 265.8449 L 311.1602 265.4824 L 310.2434 265.7471 L 310.2394 266.4602 L 311.902 268.1226 L 312.6324 269.3651 L 312.7182 270.3027 L 312.1742 270.993 L 311.0037 270.7973 L 310.7838 271.4991 L 311.0821 272.1897 L 310.9551 273.0122 L 310.3849 273.3575 L 309.4345 273.2308 L 308.0961 272.6096 L 307.5632 272.9545 L 307.8353 274.2892 L 308.8081 276.3434 L 308.7337 277.2064 L 308.0961 277.9716 L 306.8401 277.6263 L 305.3267 275.0087 L 304.7417 274.5712 L 304.2459 274.7957 L 303.8135 276.0269 L 303.5525 277.9544 L 302.8294 278.4778 L 301.0887 277.1892 L 300.7981 277.425 L 300.7532 279.0649 L 300.2651 279.1166 L 299.5008 277.747 L 298.938 277.4306 L 298.0584 278.2131 L 297.678 279.8301 L 297.0257 279.9969 L 296.4331 279.7266 L 295.9598 280.2214 L 295.3859 282.6325 L 294.6776 282.6899 L 294.2824 281.9704 L 293.8574 280.3249 L 292.9295 279.3063 L 291.759 279.6977 L 291.3118 280.7966 L 291.513 281.585 L 292.3852 282.4079 L 293.4253 282.9144 L 293.6489 283.6853 L 293.0934 285.2104 L 290.1376 284.8478 L 289.2541 285.2966 L 289.2654 287.2994 L 288.9188 288.8361 L 288.7808 290.54 L 287.398 290.4017 L 286.8238 290.753 L 286.4846 291.5759 L 287.2489 293.907 L 286.865 295.1333 L 285.6312 295.5765 L 281.285 294.4079 L 280.1593 294.5519 L 279.7568 294.9204 L 279.1081 296.4515 L 278.7914 296.6416 L 277.0208 296.6071 L 276.883 297.6028 L 275.8802 297.4476 L 275.1869 297.8907 L 274.1991 297.7411 L 273.1369 296.6183 L 272.6635 296.6528 L 271.6123 297.4244 L 271.1464 297.2515 L 270.3004 296.1118 L 269.8679 296.2329 L 269.3946 297.1252 L 268.3062 296.9985 L 267.4599 297.5282 L 266.5655 297.033 L 265.4584 298.3743 L 264.9217 299.5661 L 263.7549 299.7734 L 262.0477 298.8002 L 261.2352 299.0248 L 258.585 300.1937 L 257.8469 300.2743 L 256.6392 299.7847 L 255.111 299.7907 L 253.8811 299.4106 L 251.8683 299.2838 L 248.8789 300.4873 L 248.1482 300.6601 L 247.6561 299.7907 L 247.2351 299.6869 L 246.0572 300.4989 L 245.0395 299.6122 L 244.0557 299.4278 L 243.2392 297.6545 L 242.7175 297.0558 L 242.203 297.1597 L 240.9209 298.1899 L 240.2387 298.4088 L 239.5043 297.9541 L 238.9378 298.9787 L 238.4159 299.1114 L 237.9239 298.386 L 236.8542 300.136 L 236.4255 300.3028 L 235.6056 299.1688 L 234.9382 300.1589 L 234.4166 300.4123 L 233.5293 299.7446 L 232.8921 299.8079 L 229.6902 301.2989 L 228.4899 301.2356 L 226.9802 298.2015 L 226.1676 296.2329 L 224.8369 297.2976 Z"/>
<path  id="_u6c5f__u5317__u533aL_" title="江北区L" name="江北区L" stroke-miterlimit="10" stroke="#FFFFFF" fill="#D3D3D3" d="M 301.5697 188.9195 L 300.9881 189.1891 L 300.8279 189.8607 L 301.1671 190.716 L 300.6043 191.7776 L 299.706 192.0704 L 297.7752 192.0476 L 297.7826 192.7649 L 298.6213 194.2861 L 299.829 195.7497 L 300.2537 197.0354 L 301.0515 198.3156 L 301.6813 199.745 L 302.7624 200.9276 L 303.6195 204.4069 L 303.5266 205.2108 L 302.6581 206.0893 L 302.5572 206.9967 L 303.5488 208.1854 L 305.1778 207.9154 L 306.9185 207.9154 L 307.4478 208.1794 L 308.2751 209.2589 L 309.6917 209.437 L 310.2096 210.3789 L 312.1778 209.8045 L 312.6026 208.9949 L 313.9745 208.5067 L 315.1374 209.4257 L 315.5882 210.0572 L 316.3934 210.2927 L 319.4574 213.8131 L 320.5942 215.3467 L 320.8814 216.6733 L 321.8132 216.1851 L 323.1775 218.0348 L 323.0247 218.8904 L 324.385 218.5286 L 325.0412 218.6606 L 325.1901 219.2695 L 326.0884 219.5623 L 326.5433 221.1825 L 327.382 221.2399 L 327.5124 223.1068 L 329.7227 225.7209 L 329.842 225.3587 L 331.8137 226.6916 L 331.8549 225.5829 L 333.1183 226.0081 L 333.4538 226.8986 L 333.1558 228.0763 L 334.0578 229.191 L 333.603 230.2079 L 333.8192 234.1039 L 335.105 234.8853 L 335.5747 234.1384 L 336.3017 234.7361 L 337.7256 233.2075 L 338.5194 233.9544 L 338.7058 234.69 L 341.2366 234.3109 L 341.9375 234.8051 L 341.9227 235.5291 L 343.6185 235.3855 L 344.4347 235.1039 L 345.1581 236.6037 L 343.8086 239.0637 L 343.5404 238.8278 L 342.5861 239.9601 L 341.6988 238.3565 L 341.0763 237.8106 L 339.7308 237.8163 L 338.5902 238.2013 L 335.7349 239.4945 L 330.129 241.4142 L 329.2232 241.8626 L 326.9385 242.6042 L 325.4398 243.5123 L 324.6199 244.3514 L 323.6059 246.1968 L 322.7264 249.2897 L 321.8354 248.9102 L 319.1591 244.2712 L 318.6412 242.9315 L 317.7651 243.3571 L 317.7466 242.8224 L 315.853 243.2708 L 314.7834 243.2592 L 314.2242 242.966 L 315.0888 238.0176 L 315.4615 236.8796 L 314.5595 236.4601 L 313.583 236.414 L 312.4276 236.8796 L 311.1639 238.0922 L 310.2283 238.529 L 309.2666 237.7705 L 308.5399 235.3394 L 306.4526 231.9664 L 304.9616 231.3744 L 303.8172 231.5584 L 303.3587 232.173 L 302.0578 236.1211 L 301.5137 237.0004 L 300.5185 237.3221 L 298.6099 235.8452 L 296.3177 233.0867 L 294.9498 231.6214 L 294.5435 230.4033 L 294.6813 228.8577 L 294.2676 227.0996 L 293.7159 226.617 L 292.6238 226.9331 L 290.0183 228.7141 L 286.5295 229.3635 L 285.605 228.9038 L 284.7218 226.0539 L 283.1225 223.4686 L 282.0714 223.2275 L 280.5469 223.7963 L 279.2462 223.6354 L 277.5763 222.0899 L 276.8345 221.4292 L 275.4776 220.7629 L 274.1471 221.6936 L 273.1144 221.9118 L 271.4558 221.2571 L 269.8643 220.1484 L 272.1976 218.5113 L 274.1471 218.2875 L 274.6875 217.8507 L 275.2503 216.214 L 276.0518 215.1112 L 275.2912 213.6523 L 275.1759 212.7276 L 275.6938 209.7299 L 276.0816 209.1442 L 277.0282 208.9604 L 278.3291 210.281 L 278.9627 210.1434 L 280.0065 208.7594 L 280.1108 207.6454 L 281.1321 205.1651 L 281.1472 204.1429 L 279.9022 203.8673 L 280.04 202.0933 L 280.6028 200.7326 L 280.5469 200.0667 L 279.6337 199.6189 L 279.5218 199.2114 L 280.0065 197.4891 L 281.2551 195.0035 L 282.2242 193.5512 L 284.2109 193.3217 L 285.3741 192.4837 L 286.6897 191.8983 L 286.9841 190.3084 L 286.3318 188.9769 L 286.5443 188.116 L 287.5767 187.5422 L 289.2467 187.387 L 290.1712 187.0488 L 290.9911 186.0615 L 291.9491 186.1076 L 293.1903 186.5493 L 293.6116 187.0657 L 298.4684 185.5564 L 299.3554 184.6958 L 301.1259 184.5638 L 301.6032 184.8968 L 301.9274 185.9524 L 301.976 187.5021 L 301.618 187.8464 L 301.5697 188.9195 Z"/>
<path  id="_u5b81__u6d77__u53bf_" title="宁海县" name="宁海县" stroke-miterlimit="10" stroke="#FFFFFF" fill="#D3D3D3" d="M 234.8601 413.2749 L 236.6903 413.3439 L 238.3301 412.7896 L 240.8425 410.4795 L 241.957 406.8355 L 242.4678 405.9116 L 243.3997 402.9437 L 245.1142 401.1363 L 246.072 399.5661 L 246.1279 397.9379 L 245.4907 396.4772 L 245.7367 395.1439 L 246.9854 392.9676 L 248.7224 390.9761 L 249.3448 390.0237 L 250.0491 388.0325 L 250.5486 387.9977 L 252.8484 389.816 L 253.9667 390.2257 L 254.8576 390.2257 L 255.5585 389.3887 L 257.012 388.7365 L 257.5376 387.0051 L 257.9029 386.4222 L 260.7917 383.9464 L 261.2016 383.3002 L 261.4962 381.3439 L 262.2454 381.667 L 263.3003 382.7979 L 264.6867 382.844 L 266.107 383.3519 L 267.311 385.0488 L 268.3025 385.8161 L 269.4466 386.0065 L 272.2683 385.7528 L 273.5542 384.4599 L 273.9383 382.1689 L 276.6109 377.645 L 277.7365 376.5257 L 278.605 375.1237 L 278.4223 373.9063 L 278.6161 372.92 L 281.5049 373.341 L 282.8654 374.2755 L 283.7748 376.1392 L 285.6386 378.1472 L 286.4326 378.2912 L 287.4389 377.149 L 288.7174 376.7566 L 290.6632 376.5661 L 291.5019 376.0065 L 292.0795 374.0161 L 293.306 374.2121 L 296.2729 376.2258 L 296.6232 377.022 L 298.2968 377.5587 L 299.24 378.2799 L 300.1159 379.3359 L 300.6265 380.6283 L 302.4007 381.7536 L 303.9999 381.8919 L 306.5867 381.7825 L 307.9808 382.2671 L 309.6729 382.0134 L 314.5819 381.8229 L 316.673 382.0651 L 320.8442 383.6117 L 321.7274 383.7039 L 324.1392 383.1499 L 325.3654 381.742 L 327.7473 379.5724 L 330.5017 376.67 L 332.1643 376.5257 L 335.6159 375.695 L 336.5102 375.9488 L 342.9625 376.52 L 343.7566 377.3278 L 342.8097 378.8913 L 341.1846 380.0743 L 340.2377 381.4305 L 338.5902 382.9595 L 334.5533 384.3389 L 330.7551 386.1107 L 327.1956 387.3976 L 325.9879 388.9674 L 325.6376 390.5432 L 326.2637 392.6962 L 327.628 394.8436 L 327.982 395.7905 L 328.7201 398.8903 L 329.0369 399.3465 L 329.9687 399.5601 L 331.881 399.0695 L 333.7931 400.0335 L 335.8505 399.9065 L 337.1813 399.5429 L 338.2697 397.4701 L 338.5455 397.4472 L 339.2836 398.6883 L 340.1706 399.664 L 341.1474 400.3165 L 341.6579 401.0152 L 343.8793 401.6273 L 344.1404 401.9853 L 344.3975 403.6191 L 345.9482 404.7046 L 347.0329 405.9404 L 347.5957 406.9682 L 348.5721 407.7767 L 348.1548 409.5785 L 348.1994 410.6527 L 349.1313 412.2352 L 351.0436 413.5579 L 352.9931 414.3953 L 353.8241 414.3837 L 354.592 414.7937 L 355.5165 415.8102 L 357.0634 416.5152 L 357.3876 416.0066 L 357.753 414.043 L 358.4499 412.6164 L 359.1283 412.5875 L 360.2576 413.2169 L 360.8094 413.0092 L 361.9088 413.8582 L 363.1725 413.9852 L 364.2311 412.5759 L 364.8164 412.2063 L 365.465 413.2862 L 365.1519 415.0655 L 365.9607 416.7113 L 366.1582 417.6416 L 365.9792 419.0741 L 365.3008 420.501 L 365.2561 423.609 L 365.7593 425.8275 L 365.7371 427.3009 L 365.4985 427.8672 L 365.5766 429.0168 L 366.1917 430.0801 L 367.4628 431.2128 L 368.3909 432.796 L 369.17 432.9118 L 369.9004 433.5703 L 370.9442 433.998 L 370.8658 435.2697 L 371.097 436.4833 L 370.9516 437.3675 L 371.4212 437.951 L 372.0028 439.3963 L 372.1891 440.9742 L 371.2647 442.1533 L 370.441 444.7488 L 370.4857 446.1824 L 371.563 446.9395 L 371.742 447.6044 L 371.7829 450.7148 L 372.1781 452.386 L 372.8079 453.5482 L 373.0429 455.0399 L 372.5917 458.8219 L 372.5508 460.4815 L 374.0156 460.2386 L 374.4665 460.4178 L 375.7674 458.868 L 377.1467 459.0936 L 381.8433 459.5389 L 382.9652 459.5505 L 384.7542 459.2439 L 385.6636 458.8564 L 387.6058 458.5153 L 389.0595 459.2091 L 390.882 461.3607 L 391.1951 462.2917 L 391.1207 463.6046 L 390.3641 466.0339 L 389.7863 466.7108 L 385.7943 469.7705 L 384.8213 470.673 L 384.2064 471.7261 L 383.1479 475.2145 L 382.749 477.1353 L 381.7538 480.0746 L 381.3438 482.4009 L 380.3074 486.9382 L 379.4352 491.9159 L 377.3925 497.7045 L 372.6215 508.254 L 363.5564 512.3834 L 354.1559 507.4318 L 345.9146 503.2453 L 335.2653 496.8418 L 327.8814 495.852 L 325.7941 495.5163 L 323.6059 495.4585 L 322.1525 496.0199 L 321.3658 496.8999 L 319.4611 500.9582 L 316.6582 506.2794 L 315.4019 508.0108 L 314.4814 508.4046 L 313.2066 508.3177 L 308.8456 506.876 L 302.5535 506.0883 L 300.6003 505.6134 L 298.8596 504.409 L 296.2916 501.5893 L 294.8603 500.6396 L 293.4551 500.1824 L 292.184 500.0782 L 288.4305 500.1303 L 286.5295 500.8484 L 285.061 500.5875 L 284.0246 501.0163 L 282.0975 501.1437 L 281.3818 500.8712 L 280.5954 499.8002 L 280.6028 498.6714 L 281.5608 497.2934 L 281.0204 494.4568 L 281.2253 493.4206 L 279.6562 492.0373 L 278.9627 490.6308 L 276.3833 487.054 L 275.2727 486.1917 L 274.6389 486.2438 L 271.5044 489.7973 L 270.3339 489.6583 L 268.7125 490.8913 L 268.5858 492.101 L 270.2256 494.4279 L 270.1847 495.3772 L 266.5357 503.3031 L 265.8274 505.266 L 265.8013 506.0999 L 266.3939 506.9513 L 266.4647 509.3951 L 265.7192 510.2173 L 265.3689 511.5668 L 264.2245 512.9275 L 263.5015 513.4432 L 261.7682 513.8603 L 260.1243 515.1284 L 259.0621 517.347 L 258.3762 518.349 L 258.3242 519.1832 L 257.0455 519.3976 L 256.6244 518.7894 L 256.7139 516.9475 L 256.0094 516.0552 L 253.4786 516.038 L 253.0572 517.4223 L 253.7729 518.7429 L 253.1766 519.5771 L 253.2325 521.0892 L 252.2558 522.3866 L 252.5765 523.7364 L 251.8944 524.1943 L 250.4705 524.2116 L 250.0827 522.943 L 248.7224 522.2475 L 247.9769 521.1761 L 246.2436 520.4056 L 245.3341 518.9111 L 246.1095 517.5324 L 245.0546 516.9936 L 244.3463 516.3216 L 243.6454 516.4607 L 242.244 516.2291 L 241.8863 514.4857 L 242.6801 513.2172 L 242.9485 510.8832 L 242.613 506.6444 L 242.6317 503.9285 L 242.9298 503.39 L 244.4358 502.0292 L 244.6594 501.4041 L 244.0929 501.2999 L 243.6417 501.9427 L 242.9522 502.2204 L 242.7474 501.1549 L 242.2292 500.6224 L 241.4502 501.0391 L 240.8351 499.6094 L 240.9095 498.8044 L 239.7839 496.9808 L 237.7077 494.5089 L 236.7125 492.2978 L 236.1423 490.6885 L 236.336 487.0945 L 235.0092 486.7703 L 234.5098 486.0991 L 234.1257 484.6116 L 233.6336 484.3163 L 231.3787 484.027 L 228.1581 484.7158 L 224.4718 484.0851 L 220.4498 483.7204 L 218.7949 482.6962 L 218.1278 481.8919 L 218.4036 481.0644 L 219.0932 480.2946 L 220.2 479.6699 L 220.8711 478.1307 L 219.8907 477.4595 L 219.4659 476.7998 L 219.4659 475.7411 L 217.6096 473.2938 L 216.7635 471.1358 L 216.5845 470.3143 L 217.4755 468.6656 L 217.9636 468.1106 L 218.6906 465.2472 L 219.1043 465.0276 L 220.8077 465.4208 L 221.978 465.305 L 221.691 462.9626 L 220.8523 460.8979 L 220.9234 458.4171 L 221.8924 455.6991 L 222.6342 455.3926 L 222.1385 454.3285 L 222.403 453.5827 L 223.5584 452.4377 L 226.6523 449.6395 L 227.547 448.0553 L 227.722 446.3848 L 226.6969 445.2225 L 224.9974 446.4193 L 224.7252 446.3383 L 224.1511 444.5003 L 224.4122 443.9047 L 225.4818 443.3208 L 226.5665 442.084 L 226.6074 441.4423 L 226.2236 439.4191 L 226.3912 438.032 L 225.7054 436.1883 L 226.4958 436.2348 L 227.4984 435.8532 L 228.4155 434.3679 L 229.1385 433.6629 L 230.3127 432.9695 L 230.9017 431.9178 L 231.6097 431.4785 L 232.7577 431.3053 L 233.6114 430.6637 L 235.378 428.7165 L 235.5235 425.9718 L 235.382 424.9032 L 234.5098 423.3028 L 234.4126 420.9804 L 234.5842 419.6229 L 235.0016 418.7274 L 235.6615 418.5254 L 235.7286 417.6416 L 235.0016 415.3541 L 234.8601 413.2749 Z"/>
<path  id="_u8c61__u5c71__u53bf_" title="象山县" name="象山县" stroke-miterlimit="10" stroke="#FFFFFF" fill="#D3D3D3" d="M 394.6842 326.4797 L 401.3973 332.2993 L 403.4733 333.5211 L 404.9642 333.746 L 408.6135 332.9794 L 410.604 332.311 L 412.0165 330.9858 L 412.9297 329.6546 L 414.7562 327.5515 L 416.7503 326.9982 L 418.4129 326.9926 L 420.0752 328.0988 L 421.2383 329.5395 L 422.1514 330.2019 L 424.7308 330.5303 L 426.4081 331.0143 L 428.0667 331.896 L 429.6733 332.5644 L 430.8362 334.501 L 434.1014 341.4113 L 434.7687 342.9618 L 435.4321 343.6767 L 437.2847 345.0026 L 438.5558 347.4062 L 438.8056 349.0091 L 438.705 351.367 L 437.8885 352.8372 L 435.2457 355.5186 L 434.9923 356.2972 L 434.873 357.9233 L 436.2148 361.4125 L 437.6836 362.8542 L 437.3294 364.5035 L 435.0446 365.8822 L 430.4375 374.8928 L 429.8299 378.0606 L 430.8251 386.3529 L 431.5296 388.1191 L 432.6516 389.4408 L 434.9363 391.8071 L 436.5356 393.9662 L 436.8671 397.2336 L 436.4498 399.3986 L 435.7006 401.1768 L 434.6568 403.0071 L 433.7474 405.0337 L 432.1669 411.646 L 428.9875 412.4316 L 427.9812 413.0609 L 424.3282 417.2255 L 422.1849 421.1709 L 421.9911 422.2226 L 421.8457 425.4692 L 422.4122 426.3129 L 421.1934 428.9534 L 420.8394 430.4212 L 420.7351 431.9583 L 420.9848 433.1198 L 421.7303 433.842 L 423.2696 434.4777 L 425.9757 435.2464 L 426.9746 435.7955 L 427.5153 436.7374 L 427.6383 438.6793 L 426.1845 441.8932 L 424.5183 444.8931 L 423.4784 448.4949 L 423.0199 451.3797 L 423.3219 454.7682 L 424.0674 456.3408 L 426.93 456.2598 L 428.1414 456.5143 L 430.0685 457.3123 L 432.4913 456.8786 L 433.6354 456.3756 L 434.7613 456.37 L 435.9242 456.7283 L 437.7768 457.8561 L 438.6862 458.226 L 438.4476 459.5445 L 438.5484 460.7359 L 438.239 462.7024 L 438.4663 463.2403 L 439.2266 463.5004 L 439.1522 464.8192 L 436.2486 464.5764 L 432.0589 467.2254 L 431.7532 468.7177 L 430.266 468.3767 L 429.9193 468.9722 L 430.1878 470.5227 L 432.3124 476.2965 L 432.674 477.4883 L 432.603 478.6688 L 433.0019 479.3573 L 432.5882 479.9708 L 431.7382 485.5898 L 431.5632 487.8643 L 431.2129 488.3039 L 429.0807 488.4429 L 428.3241 488.2983 L 425.7893 488.2518 L 424.5333 488.5819 L 422.0732 490.5094 L 422.0732 492.0084 L 425.1893 491.8462 L 426.2962 492.8419 L 426.9411 494.4452 L 428.186 496.3269 L 431.2313 499.1807 L 435.1116 501.8614 L 435.5588 502.7994 L 435.5403 503.8243 L 434.8358 505.0693 L 433.1621 505.3878 L 432.9757 506.3315 L 433.2479 506.8007 L 434.765 507.9298 L 434.9142 508.758 L 435.6 517.3065 L 435.1415 519.4148 L 434.2394 520.7414 L 431.8092 521.564 L 430.6648 522.4795 L 430.3742 523.615 L 432.5433 523.9451 L 433.4715 523.8698 L 434.2283 524.1827 L 434.165 525.1038 L 434.5116 525.7645 L 434.165 526.309 L 431.3731 528.5919 L 430.6648 529.6581 L 430.3927 531.3208 L 430.1429 534.7167 L 430.2958 536.3164 L 429.6884 537.7592 L 428.3426 537.8 L 427.1275 538.5765 L 425.864 539.6662 L 421.488 538.1245 L 420.9437 537.4871 L 420.5709 536.4322 L 420.7238 532.3004 L 420.5709 531.4715 L 415.6695 531.4891 L 413.243 532.0628 L 411.9941 530.8516 L 412.0762 529.4666 L 414.7786 526.1408 L 414.197 524.6867 L 413.6158 524.1767 L 411.7222 519.7858 L 410.6673 519.0907 L 408.1363 519.2529 L 406.1535 521.0948 L 404.9458 522.804 L 403.1528 524.7272 L 401.6768 525.9496 L 399.4924 526.0017 L 397.0138 525.2601 L 395.0606 523.3774 L 392.9657 520.5214 L 391.3517 519.021 L 390.3976 518.355 L 388.78 517.6831 L 387.8703 517.7929 L 386.7932 518.6792 L 384.307 519.3395 L 382.1078 518.8935 L 380.6989 517.7813 L 379.9085 515.453 L 377.7542 504.1717 L 377.3925 497.7045 L 379.4352 491.9159 L 380.3074 486.9382 L 381.3438 482.4009 L 381.7538 480.0746 L 382.749 477.1353 L 383.1479 475.2145 L 384.2064 471.7261 L 384.8213 470.673 L 385.7943 469.7705 L 389.7863 466.7108 L 390.3641 466.0339 L 391.1207 463.6046 L 391.1951 462.2917 L 390.882 461.3607 L 389.0595 459.2091 L 387.6058 458.5153 L 385.6636 458.8564 L 384.7542 459.2439 L 382.9652 459.5505 L 381.8433 459.5389 L 377.1467 459.0936 L 375.7674 458.868 L 374.4665 460.4178 L 374.0156 460.2386 L 372.5508 460.4815 L 372.5917 458.8219 L 373.0429 455.0399 L 372.8079 453.5482 L 372.1781 452.386 L 371.7829 450.7148 L 371.742 447.6044 L 371.563 446.9395 L 370.4857 446.1824 L 370.441 444.7488 L 371.2647 442.1533 L 372.1891 440.9742 L 372.0028 439.3963 L 371.4212 437.951 L 370.9516 437.3675 L 371.097 436.4833 L 370.8658 435.2697 L 370.9442 433.998 L 369.9004 433.5703 L 369.17 432.9118 L 368.3909 432.796 L 367.4628 431.2128 L 366.1917 430.0801 L 365.5766 429.0168 L 365.4985 427.8672 L 365.7371 427.3009 L 365.7593 425.8275 L 365.2561 423.609 L 365.3008 420.501 L 365.9792 419.0741 L 366.1582 417.6416 L 365.9607 416.7113 L 365.1519 415.0655 L 365.465 413.2862 L 364.8164 412.2063 L 364.2311 412.5759 L 363.1725 413.9852 L 361.9088 413.8582 L 360.8094 413.0092 L 360.2576 413.2169 L 359.1283 412.5875 L 358.4499 412.6164 L 357.753 414.043 L 357.3876 416.0066 L 357.0634 416.5152 L 355.5165 415.8102 L 354.592 414.7937 L 353.8241 414.3837 L 352.9931 414.3953 L 351.0436 413.5579 L 349.1313 412.2352 L 348.1994 410.6527 L 348.1548 409.5785 L 348.5721 407.7767 L 347.5957 406.9682 L 347.0329 405.9404 L 345.9482 404.7046 L 344.3975 403.6191 L 344.1404 401.9853 L 343.8793 401.6273 L 341.6579 401.0152 L 341.1474 400.3165 L 340.1706 399.664 L 339.2836 398.6883 L 338.5455 397.4472 L 338.2697 397.4701 L 337.1813 399.5429 L 335.8505 399.9065 L 333.7931 400.0335 L 331.881 399.0695 L 329.9687 399.5601 L 329.0369 399.3465 L 328.7201 398.8903 L 327.982 395.7905 L 327.628 394.8436 L 326.2637 392.6962 L 325.6376 390.5432 L 325.9879 388.9674 L 327.1956 387.3976 L 330.7551 386.1107 L 334.5533 384.3389 L 338.5902 382.9595 L 340.2377 381.4305 L 341.1846 380.0743 L 342.8097 378.8913 L 343.7566 377.3278 L 342.9625 376.52 L 336.5102 375.9488 L 335.6159 375.695 L 339.2163 374.091 L 340.6701 373.6236 L 344.4796 373.1678 L 345.4635 372.8852 L 348.4082 372.8218 L 349.8804 372.4181 L 352.1581 371.0679 L 353.0823 370.3471 L 354.9685 369.4354 L 359.613 366.9206 L 363.3254 365.2708 L 363.8734 364.6362 L 364.932 362.8021 L 365.5431 361.3604 L 367.8878 358.1598 L 368.2827 357.2081 L 369.2779 355.8991 L 370.5305 354.6538 L 372.4389 353.1142 L 373.0389 352.3645 L 373.8628 350.6983 L 374.8245 349.5973 L 380.7884 340.7253 L 382.3799 338.5755 L 383.1254 337.7744 L 392.1159 330.0002 L 394.6842 326.4797 Z M 445.5857 493.5885 L 448.564 493.6233 L 449.41 493.1717 L 449.3802 491.9564 L 448.6421 492.2168 L 446.8196 490.9029 L 446.484 490.4108 L 447.1548 489.7509 L 447.8892 489.7509 L 448.4037 489.2996 L 447.796 487.702 L 446.8829 487.2624 L 446.8829 486.5387 L 447.3935 485.8731 L 448.5154 486.4461 L 448.5304 485.468 L 447.7327 484.8084 L 448.1949 483.379 L 449.2049 483.2284 L 449.395 484.166 L 450.1146 484.8432 L 450.5953 484.5652 L 451.1396 485.0977 L 451.6016 484.7507 L 451.7135 485.6707 L 452.228 486.0294 L 453.0591 485.3466 L 453.4579 485.7922 L 452.8653 487.0945 L 451.8888 487.7541 L 452.0974 488.5182 L 453.827 489.855 L 453.4915 490.5206 L 452.5931 490.5615 L 452.3548 491.1169 L 451.5047 491.4006 L 450.6587 491.1457 L 450.3865 491.5685 L 450.42 493.253 L 450.7854 494.0168 L 451.5718 494.7405 L 453.1039 494.8447 L 453.7784 494.2252 L 454.8631 494.1326 L 455.5677 495.1344 L 457.2152 494.0689 L 458.2999 493.6582 L 458.6502 494.2776 L 457.6476 495.6785 L 457.4388 496.5352 L 456.9467 496.9576 L 456.5592 498.0691 L 456.0149 498.4341 L 455.4222 498.2025 L 454.9935 499.3313 L 453.5997 500.5935 L 452.4479 500.1881 L 451.5681 500.275 L 451.4414 499.1518 L 450.9308 499.8523 L 450.3231 499.7481 L 450.1779 498.7062 L 449.1529 498.903 L 449.5555 500.4545 L 448.7688 500.7787 L 448.8509 502.1394 L 448.5603 502.8863 L 447.7475 503.1644 L 447.0431 502.7645 L 446.4355 501.4678 L 445.9212 501.5316 L 445.1868 503.2802 L 444.624 503.2393 L 444.5308 502.3013 L 444.0163 502.73 L 443.3754 502.3538 L 442.7378 503.1007 L 442.1602 503.037 L 442.0969 501.8036 L 443.0248 500.7326 L 442.9467 499.1578 L 443.6027 498.9202 L 443.7444 497.5366 L 442.6895 497.3282 L 442.4472 496.5641 L 442.7194 495.5395 L 444.0984 495.4064 L 444.9146 496.4888 L 445.4888 495.4642 L 446.0962 495.5916 L 446.3536 494.3121 L 445.5223 494.1675 L 445.5857 493.5885 Z M 499.689 605.7014 L 499.566 605.1207 L 500.8632 604.9348 L 501.4297 605.2892 L 502.6636 603.9943 L 502.973 605.2079 L 502.2349 606.0383 L 502.4622 607.1706 L 501.6386 608.0009 L 499.9425 607.9312 L 499.991 607.1878 L 499.0853 606.4448 L 499.689 605.7014 Z M 486.658 412.8649 L 485.9947 412.3623 L 486.0356 411.4323 L 486.4791 410.3813 L 485.6591 409.5785 L 485.6591 408.2388 L 486.1512 407.8404 L 486.0915 406.8876 L 487.5339 407.0664 L 488.1266 407.9038 L 489.0286 407.4592 L 489.0437 406.7605 L 489.6846 406.3621 L 490.6986 406.6046 L 491.3583 405.623 L 491.2838 404.9588 L 490.8028 404.7796 L 490.8812 403.3534 L 491.254 402.8223 L 493.0393 402.0314 L 494.3553 401.1652 L 495.3914 401.5231 L 495.846 402.3661 L 496.9009 402.5914 L 497.106 401.9099 L 497.9856 402.0718 L 498.1236 403.0648 L 498.608 403.9771 L 498.3844 404.9992 L 497.7321 405.5941 L 496.2673 405.2245 L 494.5564 405.4033 L 493.5126 405.1319 L 492.5808 405.6747 L 493.3785 406.7662 L 492.7001 408.0308 L 492.8382 409.2033 L 492.331 409.5556 L 491.5185 409.3821 L 490.5383 410.6988 L 489.7221 410.7048 L 488.8385 409.9769 L 487.8919 410.7625 L 487.1836 412.6741 L 486.658 412.8649 Z M 383.4235 527.404 L 382.8459 523.0645 L 383.3826 521.6569 L 384.1988 521.3613 L 388.3027 521.425 L 391.1877 521.3789 L 394.1697 522.9314 L 395.2842 524.3158 L 396.2198 525.7817 L 397.1778 526.3206 L 397.215 527.4621 L 396.6371 527.6764 L 394.6467 527.0855 L 394.9263 527.8039 L 394.6467 529.374 L 396.6968 529.8316 L 396.7976 531.2687 L 396.2198 532.0103 L 394.9487 532.0628 L 394.6879 532.9955 L 395.7837 533.8477 L 395.5823 534.2764 L 394.3075 535.0993 L 396.026 536.044 L 395.4371 537.5565 L 394.7214 537.2552 L 394.7214 538.2115 L 394.3711 538.6346 L 392.7458 537.9507 L 392.0452 538.397 L 390.8337 537.2435 L 391.2809 536.2003 L 390.6772 536.1133 L 390.4871 535.3717 L 391.0275 534.8617 L 390.405 534.1778 L 389.0856 534.3457 L 388.0978 535.5108 L 387.412 535.0877 L 387.2069 534.4675 L 384.896 531.3961 L 383.4794 530.2431 L 383.0658 528.7077 L 383.4235 527.404 Z M 487.2842 394.2375 L 487.2657 393.9028 L 488.4098 393.5565 L 489.0025 392.7944 L 490.1505 392.5924 L 489.9085 393.51 L 490.7844 393.6719 L 490.0312 394.3181 L 489.5059 395.2938 L 490.3147 395.5131 L 489.8747 396.7658 L 489.1368 397.0548 L 488.5255 396.304 L 488.6113 395.8482 L 487.8359 396.2406 L 487.001 396.0097 L 486.9376 395.4153 L 488.1303 394.5839 L 487.2842 394.2375 Z M 445.6192 337.4861 L 445.6081 336.4372 L 446.6369 336.2644 L 447.5687 336.4777 L 447.8557 337.3939 L 447.606 338.8926 L 447.908 339.5842 L 448.5526 339.7687 L 448.5603 340.4487 L 447.1213 340.7771 L 447.0767 341.8091 L 446.592 343.054 L 445.9769 343.0311 L 445.4104 343.665 L 445.1235 343.0829 L 444.2737 342.7774 L 444.0947 341.8379 L 445.0004 341.0597 L 444.5791 339.8088 L 444.9297 339.1404 L 444.4712 338.7599 L 444.5345 338.0739 L 445.6192 337.4861 Z M 506.9465 596.2846 L 507.5874 595.4487 L 509.1193 596.1917 L 509.4474 596.8594 L 509.0187 597.2191 L 509.3767 597.7995 L 508.9815 598.5081 L 507.744 598.5137 L 507.1141 598.9258 L 506.9127 598.3222 L 507.4533 597.254 L 506.9465 596.2846 Z M 434.2619 476.1867 L 435.298 475.7816 L 436.0622 476.1114 L 435.8943 475.2145 L 436.2148 475.0699 L 437.0648 476.2617 L 437.9632 476.3718 L 438.0376 477.3148 L 438.5072 477.4422 L 439.1036 478.4256 L 438.4365 478.3274 L 438.2726 479.3457 L 437.1506 479.6062 L 436.2782 479.2127 L 436.2745 478.4316 L 434.3065 476.6436 L 434.2619 476.1867 Z M 433.5386 390.0008 L 432.9871 388.8463 L 434.1053 388.6964 L 434.4818 389.2504 L 435.5477 389.4464 L 435.3949 390.3816 L 436.0472 390.8663 L 437.3705 389.4408 L 437.8288 389.4813 L 437.8066 390.1507 L 438.3695 389.816 L 438.3283 390.7741 L 437.7879 390.7107 L 436.2074 391.6917 L 435.0034 391.49 L 433.5386 390.0008 Z M 432.3348 379.9821 L 432.2041 378.7702 L 432.8752 378.401 L 433.4567 378.7935 L 433.9113 378.5742 L 434.0568 377.8125 L 435.9691 376.8315 L 436.8299 377.0163 L 437.4376 377.5123 L 438.0564 378.5858 L 439.3013 378.6375 L 439.9349 379.0529 L 440.1772 379.8723 L 439.838 380.2763 L 438.1382 379.5375 L 437.4561 379.9071 L 436.4012 379.301 L 434.6011 379.0127 L 435.2273 379.7744 L 434.1164 380.7783 L 434.3588 381.4189 L 433.7511 381.8631 L 433.1138 381.5804 L 432.9013 380.6512 L 432.2041 381.1362 L 432.3348 379.9821 Z M 501.0979 394.1161 L 501.8286 393.0598 L 502.3244 393.1292 L 502.3877 392.402 L 503.0327 392.673 L 502.9469 393.5332 L 503.2935 394.0644 L 502.6523 394.0471 L 502.6076 394.7222 L 501.5155 394.6705 L 501.0979 394.1161 Z M 440.3374 334.691 L 440.9599 335.25 L 441.1128 336.1722 L 439.3982 337.9415 L 438.4811 337.2154 L 440.0914 334.3222 L 440.3374 334.691 Z M 425.9683 490.3239 L 428.488 489.3229 L 429.5614 489.2936 L 430.1057 488.715 L 430.9668 489.1895 L 432.193 488.7498 L 432.4502 489.6351 L 431.6413 490.3355 L 431.1271 491.2211 L 431.1271 492.761 L 431.9172 493.9186 L 433.3187 494.0284 L 433.8218 494.4568 L 433.6394 495.1689 L 434.0605 495.8809 L 433.4195 496.4483 L 433.6244 497.5194 L 434.2767 498.1445 L 433.6505 498.5612 L 433.561 499.4936 L 433.0766 499.9568 L 432.8044 499.1057 L 431.9359 498.5151 L 431.0785 498.8914 L 429.8486 497.6873 L 429.0807 496.3269 L 427.1871 493.7391 L 426.8814 492.9405 L 425.8825 491.9215 L 425.9683 490.3239 Z M 492.2603 399.0463 L 492.1785 398.3363 L 492.9387 398.117 L 493.893 398.6133 L 494.2806 399.7854 L 493.2109 399.5545 L 492.9424 399.0234 L 492.2603 399.0463 Z M 420.2729 543.6773 L 420.0976 543.3236 L 420.4144 541.7992 L 422.1738 541.2371 L 422.5912 541.3413 L 423.881 540.2515 L 425.4277 540.0544 L 426.6317 540.4775 L 425.0254 541.6774 L 425.0663 542.7439 L 423.933 542.5119 L 423.1429 543.0339 L 423.0534 544.5062 L 421.7749 544.715 L 421.7116 543.689 L 420.2729 543.6773 Z M 440.3784 473.6929 L 441.6159 474.046 L 442.5591 473.2069 L 443.1739 473.2473 L 442.8944 474.0111 L 443.066 474.7052 L 442.2796 474.4279 L 441.7205 475.9551 L 441.5264 477.4595 L 440.9003 477.8875 L 439.5584 477.1413 L 438.9024 476.3254 L 438.9286 475.041 L 439.7971 474.7228 L 440.3784 473.6929 Z M 439.0553 411.9117 L 439.3124 411.4612 L 440.3971 410.9878 L 441.6906 411.4496 L 441.806 411.9522 L 442.9168 411.7847 L 443.6251 412.1715 L 442.9316 414.0951 L 442.0708 413.9564 L 441.3139 414.4879 L 441.1389 413.7195 L 440.4343 414.0486 L 439.6405 413.7945 L 439.1485 412.8533 L 439.0553 411.9117 Z M 432.2192 474.9541 L 432.4763 473.184 L 433.0689 473.1143 L 433.0541 473.7218 L 433.6354 474.7052 L 434.5039 474.3177 L 434.2656 475.4979 L 433.7138 475.9262 L 433.5164 475.4345 L 432.5769 475.3592 L 432.2192 474.9541 Z M 503.983 598.5081 L 503.4651 598.2814 L 504.3111 597.8752 L 504.8404 598.9202 L 504.2401 599.0885 L 503.983 598.5081 Z M 433.7249 439.2921 L 432.2601 439.0263 L 432.0999 437.7606 L 430.8063 437.1073 L 430.7617 436.3963 L 432.003 434.8015 L 433.2144 434.3911 L 433.8369 433.8769 L 434.7091 433.715 L 434.9179 434.4027 L 433.2516 435.628 L 433.0019 436.5178 L 433.8854 437.2921 L 434.7315 437.6737 L 434.2022 438.8472 L 433.7249 439.2921 Z M 439.6292 452.7908 L 439.8789 451.9175 L 440.7474 452.3511 L 441.6159 452.2181 L 442.298 452.675 L 442.3614 453.5711 L 441.7912 453.5943 L 441.0642 452.9583 L 440.2889 453.8199 L 439.5547 453.8372 L 439.6292 452.7908 Z M 431.5035 413.604 L 431.168 412.7607 L 431.7979 412.0965 L 432.2229 413.1824 L 433.6244 414.5628 L 433.3337 414.9384 L 432.372 414.8342 L 431.5035 413.604 Z M 497.3185 424.308 L 497.4787 423.2507 L 498.7163 422.6615 L 499.4319 422.8927 L 499.8643 424.0828 L 499.1151 424.9437 L 497.3185 424.308 Z M 439.4652 435.8416 L 438.6899 435.7378 L 439.2044 435.1306 L 440.617 434.9114 L 441.3179 436.2348 L 442.0111 436.4428 L 441.9029 437.2693 L 440.0391 437.113 L 439.1669 436.5987 L 439.4652 435.8416 Z M 438.4104 355.1958 L 438.8615 355.357 L 438.4811 356.6199 L 437.7953 356.7642 L 438.4104 355.1958 Z M 438.3507 359.3189 L 438.5595 358.6903 L 439.2005 358.4421 L 440.5426 359.8321 L 439.1297 359.7687 L 438.3507 359.3189 Z M 499.3274 393.712 L 499.1075 392.8866 L 500.0393 392.7019 L 501.4894 393.0137 L 501.4485 393.2907 L 500.0768 393.8623 L 499.3274 393.712 Z M 505.4555 397.0949 L 505.0938 396.6158 L 505.5561 396.3388 L 506.8868 396.3793 L 507.2519 396.997 L 506.909 397.8108 L 506.1189 397.7936 L 505.4555 397.0949 Z M 453.8196 510.8776 L 453.6219 511.445 L 452.9286 511.5552 L 453.3238 510.9586 L 452.7869 510.281 L 453.5474 509.8062 L 453.8196 510.8776 Z M 485.7 413.4597 L 486.6728 413.4421 L 487.3626 414.2739 L 487.668 415.2847 L 487.2916 415.712 L 486.043 415.6948 L 485.4614 415.3541 L 484.5335 415.6543 L 484.8131 414.2394 L 485.7 413.4597 Z M 444.8291 547.1031 L 444.5456 546.8135 L 446.5994 546.7205 L 446.6704 547.2189 L 445.8428 547.6712 L 444.8291 547.1031 Z M 496.8562 395.1379 L 496.6846 394.6821 L 497.1432 394.0989 L 497.1469 393.2907 L 497.6242 392.9444 L 498.5111 393.4005 L 498.9137 394.1626 L 498.7796 394.7454 L 498.0452 394.4452 L 496.8562 395.1379 Z M 381.8245 530.834 L 381.6643 530.0692 L 382.324 529.4029 L 382.7453 530.2314 L 382.6072 530.8749 L 381.8245 530.834 Z M 505.6305 598.3162 L 505.8876 597.6489 L 506.7936 598.2641 L 506.3425 599.2859 L 505.2279 599.338 L 504.997 598.4556 L 505.6305 598.3162 Z M 434.7949 455.9015 L 434.4556 455.4563 L 434.2804 454.0336 L 435.1341 454.5485 L 435.8759 454.4964 L 436.9083 454.878 L 436.5466 455.4968 L 435.5665 455.942 L 434.7949 455.9015 Z M 446.0442 456.237 L 446.6332 455.9652 L 447.2258 455.0631 L 448.3813 454.9241 L 447.617 455.8378 L 447.427 456.5027 L 445.992 456.5724 L 446.0442 456.237 Z M 387.3336 542.7728 L 386.8975 541.8801 L 387.1287 541.2716 L 388.2393 541.7992 L 388.5785 542.8425 L 387.7995 543.2367 L 387.3336 542.7728 Z M 455.1165 481.2379 L 455.4745 480.2485 L 456.1828 480.4104 L 455.7131 481.3537 L 455.1165 481.2379 Z M 436.2969 334.0054 L 435.7787 333.06 L 436.2932 332.5704 L 437.1169 333.9477 L 436.9344 335.4115 L 436.3157 334.8698 L 436.2969 334.0054 Z M 449.9467 463.946 L 449.4882 464.2005 L 448.1165 463.7376 L 448.4111 463.4138 L 449.8535 463.4775 L 449.9467 463.946 Z M 458.7621 489.9884 L 458.8553 490.5323 L 458.3073 490.654 L 458.7621 489.9884 Z M 460.6779 378.7935 L 461.5055 378.7586 L 461.0694 379.1683 L 460.6779 378.7935 Z M 454.7438 483.6162 L 454.6804 484.7102 L 454.0767 484.7331 L 454.0656 483.5004 L 454.7438 483.6162 Z M 419.449 326.912 L 418.972 325.8458 L 420.0865 325.8173 L 420.2578 326.1746 L 419.8143 327.0503 L 419.449 326.912 Z M 448.5228 458.5037 L 449.2981 457.7983 L 450.3717 458.8043 L 449.9578 459.082 L 448.5228 458.5037 Z M 447.5202 520.8921 L 447.7923 520.2434 L 448.1986 520.6024 L 447.5202 520.8921 Z M 397.64 530.8865 L 398.348 530.7879 L 398.2588 531.4486 L 397.5542 531.3092 L 397.64 530.8865 Z M 442.954 538.6694 L 443.364 539.278 L 442.5143 539.3009 L 442.954 538.6694 Z M 434.6531 526.2453 L 434.6122 525.7064 L 435.2122 525.7469 L 435.3761 526.7029 L 434.6531 526.2453 Z M 492.7859 420.0329 L 493.4047 419.6401 L 493.5203 420.3159 L 492.7859 420.0329 Z M 443.8859 456.1155 L 445.1161 455.6414 L 445.6937 456.2486 L 445.1868 457.2373 L 444.378 457.2429 L 443.8859 456.1155 Z"/>
<path  id="_u911e__u5dde__u533a_" title="鄞州区" name="鄞州区" stroke-miterlimit="10" stroke="#FFFFFF" fill="#D3D3D3" d="M 346.9471 236.937 L 348.1994 237.6153 L 348.9784 238.6497 L 349.3588 238.4544 L 349.6941 239.46 L 350.2086 239.4142 L 351.0285 241.65 L 350.1526 242.7077 L 350.585 243.8456 L 351.9158 244.11 L 352.6127 245.3458 L 352.2101 246.8635 L 352.6388 248.4157 L 352.0163 250.3012 L 352.9184 250.428 L 353.798 251.4628 L 354.2005 253.5556 L 354.8417 255.5851 L 355.4568 256.1029 L 356.5637 255.4359 L 357.2794 255.6886 L 358.4351 254.8034 L 359.3593 254.9298 L 360.3659 254.5792 L 361.1932 253.6936 L 363.1799 252.0492 L 364.4175 250.8648 L 365.7667 249.9795 L 366.7994 248.7895 L 367.8801 249.0193 L 368.4767 249.5368 L 369.5575 249.8873 L 369.893 250.9109 L 370.3479 253.4289 L 370.2882 254.5792 L 369.3825 256.3901 L 370.0646 257.1264 L 371.6263 256.8445 L 371.7604 258.3742 L 372.6326 258.8283 L 373.6017 258.7997 L 374.1685 260.088 L 375.2791 259.9901 L 375.8495 261.9225 L 376.5129 262.3765 L 378.0411 262.9288 L 379.7781 262.8253 L 379.8341 263.757 L 380.8816 264.3895 L 382.7453 265.9657 L 382.9465 267.1159 L 382.3984 267.9441 L 381.858 269.3249 L 382.1527 269.6642 L 384.0945 270.0324 L 384.9295 270.4235 L 386.7037 271.7004 L 387.7362 272.926 L 388.6308 274.3642 L 388.9513 275.5148 L 390.2894 276.1304 L 391.1803 277.4366 L 391.1914 281.2457 L 392.496 282.0454 L 393.1299 283.3287 L 394.5052 284.612 L 395.4669 286.1773 L 396.492 288.7499 L 396.8235 289.2335 L 397.6363 289.1068 L 398.5793 290.2694 L 399.6975 291.9789 L 400.7598 292.4104 L 401.524 293.1704 L 402.9627 293.176 L 403.2423 293.8437 L 404.3866 294.0338 L 406.7012 295.5075 L 409.0121 296.5954 L 409.344 297.4187 L 410.5108 302.7614 L 410.9915 306.838 L 402.5192 317.2914 L 394.6842 326.4797 L 392.1159 330.0002 L 383.1254 337.7744 L 382.3799 338.5755 L 380.7884 340.7253 L 375.1674 336.0222 L 374.433 335.6188 L 373.9335 334.495 L 373.2963 334.0744 L 371.0226 334.3739 L 369.6359 333.9072 L 368.4543 333.8209 L 366.1693 333.2965 L 364.149 333.6249 L 362.1327 333.7171 L 361.4131 334.6738 L 360.321 335.0483 L 359.0201 334.1205 L 357.4547 333.4922 L 355.1324 334.1954 L 353.7124 333.9705 L 352.3817 334.9216 L 351.9902 335.7167 L 350.9765 336.881 L 347.6741 338.1834 L 347.0329 338.3333 L 344.4981 338.0105 L 343.4432 336.5526 L 342.3102 335.8033 L 340.9869 333.74 L 340.0439 332.8238 L 339.47 332.6105 L 338.0535 333.2388 L 336.3352 334.7371 L 334.4527 335.4921 L 333.3794 337.3421 L 332.3132 337.9588 L 330.975 337.5727 L 329.4022 337.4921 L 328.7684 336.7138 L 328.8244 335.1578 L 328.3175 334.5411 L 326.2973 333.2733 L 324.1688 332.8759 L 323.8409 331.5042 L 322.6107 330.8126 L 322.063 329.4645 L 322.1039 328.6173 L 322.6965 327.0559 L 322.842 326.0014 L 322.6443 325.1545 L 323.032 324.0427 L 323.3451 322.3028 L 323.8 321.2082 L 324.8398 319.8429 L 325.179 319.0942 L 325.4214 317.3949 L 327.147 314.7684 L 327.4416 313.0923 L 326.9942 311.4971 L 325.7418 310.7886 L 323.7179 310.973 L 322.7636 310.374 L 320.147 310.0111 L 317.9628 309.2969 L 316.9042 308.7672 L 315.663 307.3853 L 314.049 306.7345 L 310.9252 306.7746 L 307.9845 307.3276 L 306.6426 307.8805 L 303.5226 308.1164 L 301.7708 307.2642 L 300.5594 306.291 L 300.1159 305.6346 L 299.8662 303.2911 L 299.3443 300.5851 L 299.1841 292.3816 L 299.0423 290.3616 L 298.4945 288.9801 L 297.8684 287.9903 L 296.5524 288.3067 L 296.0978 286.7527 L 296.3177 285.5729 L 295.8853 285.0953 L 295.8964 284.3357 L 295.4268 284.071 L 295.5049 283.4667 L 296.8433 282.1605 L 297.2831 282.3446 L 297.3576 280.8138 L 297.0257 279.9969 L 297.678 279.8301 L 298.0584 278.2131 L 298.938 277.4306 L 299.5008 277.747 L 300.2651 279.1166 L 300.7532 279.0649 L 300.7981 277.425 L 301.0887 277.1892 L 302.8294 278.4778 L 303.5525 277.9544 L 303.8135 276.0269 L 304.2459 274.7957 L 304.7417 274.5712 L 305.3267 275.0087 L 306.8401 277.6263 L 308.0961 277.9716 L 308.7337 277.2064 L 308.8081 276.3434 L 307.8353 274.2892 L 307.5632 272.9545 L 308.0961 272.6096 L 309.4345 273.2308 L 310.3849 273.3575 L 310.9551 273.0122 L 311.0821 272.1897 L 310.7838 271.4991 L 311.0037 270.7973 L 312.1742 270.993 L 312.7182 270.3027 L 312.6324 269.3651 L 311.902 268.1226 L 310.2394 266.4602 L 310.2434 265.7471 L 311.1602 265.4824 L 312.7517 265.8449 L 313.6018 265.2237 L 313.5086 262.2558 L 313.6501 261.4681 L 315.2715 260.7779 L 315.9462 259.8923 L 315.8678 257.6382 L 316.0505 257.0803 L 316.7587 256.8962 L 318.1528 257.0919 L 319.2077 256.5974 L 320.5123 254.5964 L 321.9846 252.7735 L 322.3499 251.8366 L 322.7264 249.2897 L 323.6059 246.1968 L 324.6199 244.3514 L 325.4398 243.5123 L 326.9385 242.6042 L 329.2232 241.8626 L 330.129 241.4142 L 335.7349 239.4945 L 338.5902 238.2013 L 339.7308 237.8163 L 341.0763 237.8106 L 341.6988 238.3565 L 342.5861 239.9601 L 343.4583 241.3969 L 343.9168 241.5236 L 345.0015 241.0235 L 345.4078 240.4487 L 346.9471 236.937 Z"/>
<path  id="_u4f59__u59da__u5e02_" title="余姚市" name="余姚市" stroke-miterlimit="10" stroke="#FFFFFF" fill="#D3D3D3" d="M 185.2257 80.1905 L 188.927 87.8749 L 199.4309 105.3727 L 200.0125 106.7124 L 200.6537 109.1287 L 200.3741 109.1516 L 197.4442 111.2817 L 196.7734 112.1462 L 196.1955 113.6182 L 196.2217 115.5938 L 195.7111 115.9602 L 191.6183 117.9992 L 189.654 119.9407 L 190.0901 121.2811 L 192.3078 120.273 L 196.5757 118.7665 L 198.1712 117.7757 L 199.3192 117.2661 L 199.815 120.3247 L 200.348 120.2786 L 200.7952 119.5687 L 201.6563 126.2876 L 202.2154 129.2495 L 202.2788 130.7049 L 200.9293 130.9971 L 200.5381 131.7306 L 200.6238 134.7615 L 200.4 135.7473 L 201.194 141.2544 L 202.5731 141.14 L 203.3709 142.4293 L 203.449 143.8453 L 203.2032 145.0146 L 204.0158 145.7136 L 204.1237 144.8023 L 204.6829 144.8998 L 204.6865 145.9888 L 205.5514 146.0117 L 205.9056 145.5358 L 205.6931 146.7456 L 206.3193 146.6826 L 205.8644 148.0236 L 206.8597 148.1729 L 206.8969 146.6537 L 207.5157 146.6995 L 207.4225 145.9315 L 207.9407 145.3525 L 209.4316 145.4155 L 209.372 145.9603 L 211.3138 146.1493 L 211.2059 146.6995 L 212.0295 147.181 L 212.3986 144.9343 L 213.8674 144.5042 L 221.8626 144.7738 L 224.2593 144.9227 L 224.6693 143.4553 L 227.722 142.9108 L 227.8339 142.5497 L 229.2837 142.7274 L 229.403 143.3064 L 230.0778 143.249 L 232.4336 143.5528 L 232.9853 143.2892 L 232.8807 144.1547 L 233.1677 146.8086 L 235.4899 149.3481 L 235.4601 150.9186 L 234.1481 152.2604 L 233.3765 152.524 L 232.1091 152.5525 L 231.7364 152.9253 L 230.5661 155.941 L 228.9558 157.5752 L 228.1359 157.8561 L 227.245 159.1232 L 226.4844 159.7082 L 221.6501 160.7346 L 220.4199 162.518 L 221.0984 163.7053 L 222.1123 164.3761 L 222.936 165.8157 L 222.7609 167.9093 L 224.0619 169.9398 L 224.2295 171.4769 L 223.7599 172.3949 L 225.1352 174.3051 L 225.4483 175.3434 L 226.0446 174.9133 L 227.8339 174.8788 L 228.6987 175.286 L 229.6826 177.4546 L 231.2108 179.1757 L 232.1426 179.5661 L 234.6439 179.721 L 235.9411 179.2275 L 236.8355 179.589 L 237.6071 179.3366 L 239.1018 179.6579 L 240.0075 180.4439 L 241.8937 181.666 L 242.6727 181.4594 L 242.7474 180.421 L 243.0863 180.289 L 246.3703 180.2201 L 249.4679 178.8143 L 250.1463 178.6654 L 251.1489 179.1529 L 251.9876 179.2331 L 255.2676 179.0899 L 255.9386 178.5563 L 256.8145 178.3152 L 260.1022 178.9121 L 262.454 179.9159 L 264.5563 180.5703 L 265.943 179.9733 L 267.4488 179.7266 L 270.5387 182.3661 L 272.2385 182.6244 L 273.3306 182.1651 L 274.7844 180.9145 L 275.433 180.8283 L 276.9313 181.729 L 278.0683 181.3964 L 278.1465 180.1454 L 278.9107 179.3193 L 279.2721 179.5488 L 279.7343 180.811 L 280.4165 181.6776 L 280.9159 181.7923 L 282.008 181.2528 L 283.3538 180.0768 L 283.6444 180.289 L 283.7785 181.5227 L 283.5922 182.1422 L 282.7313 182.5611 L 281.423 183.5997 L 280.6662 184.8735 L 280.7148 186.027 L 281.7958 187.6454 L 284.4198 188.9713 L 285.2025 188.8678 L 286.5443 188.116 L 286.3318 188.9769 L 286.9841 190.3084 L 286.6897 191.8983 L 285.3741 192.4837 L 284.2109 193.3217 L 282.2242 193.5512 L 281.2551 195.0035 L 280.0065 197.4891 L 279.5218 199.2114 L 279.6337 199.6189 L 280.5469 200.0667 L 280.6028 200.7326 L 280.04 202.0933 L 279.9022 203.8673 L 281.1472 204.1429 L 281.1321 205.1651 L 280.1108 207.6454 L 280.0065 208.7594 L 278.9627 210.1434 L 278.3291 210.281 L 277.0282 208.9604 L 276.0816 209.1442 L 275.6938 209.7299 L 275.1759 212.7276 L 275.2912 213.6523 L 276.0518 215.1112 L 275.2503 216.214 L 274.6875 217.8507 L 274.1471 218.2875 L 272.1976 218.5113 L 269.8643 220.1484 L 271.4558 221.2571 L 273.1144 221.9118 L 274.1471 221.6936 L 275.4776 220.7629 L 276.8345 221.4292 L 277.5763 222.0899 L 277.1402 223.9455 L 273.9383 230.3631 L 273.6215 231.4089 L 273.9085 234.1156 L 273.8934 235.0923 L 272.6076 238.2647 L 269.566 241.7074 L 268.9324 241.8971 L 267.4264 241.4374 L 266.0064 240.1094 L 265.8274 239.6268 L 266.2337 238.4889 L 265.3317 236.4372 L 264.601 236.3277 L 262.5548 237.8912 L 261.2315 237.7705 L 260.2848 238.0348 L 260.0908 237.7188 L 260.24 235.7589 L 259.8112 234.8568 L 258.5143 236.3622 L 257.9438 236.0578 L 258.1899 234.0005 L 257.9177 233.5119 L 256.3114 233.7534 L 254.8278 235.282 L 254.634 236.7934 L 253.676 237.1038 L 253.3592 237.7761 L 253.2734 238.9714 L 253.5717 240.2878 L 252.953 240.7074 L 250.7537 240.9027 L 249.7772 241.6327 L 248.2229 241.8225 L 245.3191 241.2072 L 244.6071 241.4832 L 243.5076 242.7767 L 242.792 244.2423 L 241.3905 244.3342 L 241.1669 246.0701 L 240.3245 246.8579 L 238.9489 247.1739 L 238.3415 247.7948 L 238.4608 249.6747 L 236.7872 252.8313 L 236.6605 255.4127 L 236.3883 256.3556 L 235.1658 257.8047 L 234.5544 258.7881 L 232.5492 260.0186 L 232.4037 260.7606 L 230.8196 260.1397 L 230.5363 260.5765 L 228.7098 261.3357 L 227.4239 261.1921 L 227.2748 262.2847 L 226.4361 263.2797 L 227.0734 263.8144 L 226.4435 264.0674 L 226.3131 264.7348 L 224.4494 265.5859 L 223.7934 265.5285 L 223.9761 266.2015 L 223.592 266.696 L 223.9798 267.4323 L 224.5315 267.6164 L 224.4306 269.2211 L 223.9349 271.0218 L 222.8317 271.3439 L 222.0339 270.3717 L 221.2288 270.0264 L 220.3157 271.384 L 220.3642 272.0457 L 219.4472 273.9844 L 219.3577 275.3019 L 220.1256 276.1822 L 219.5404 278.219 L 220.312 279.0476 L 220.856 280.6185 L 219.3131 281.0211 L 218.4744 280.2155 L 217.9116 280.3017 L 218.4409 280.8371 L 218.2468 281.257 L 217.4456 281.2052 L 217.4678 278.7196 L 216.6218 278.1557 L 215.1382 278.5122 L 214.6313 278.219 L 213.677 279.9568 L 213.2784 279.6632 L 212.4954 280.5551 L 211.9215 280.4974 L 212.4136 283.1847 L 211.53 283.3921 L 211.6232 284.4853 L 212.2011 284.5543 L 212.8497 283.9214 L 213.3753 284.1918 L 213.144 284.6926 L 213.0509 286.2406 L 213.5131 287.1269 L 214.1691 287.38 L 214.7992 288.0881 L 214.8066 289.0146 L 214.2214 291.2707 L 213.9566 294.0109 L 214.3481 295.0988 L 215.5967 295.2484 L 216.9311 294.6441 L 217.6207 295.7148 L 216.551 296.3536 L 216.4092 297.8791 L 216.9087 298.5817 L 218.9403 299.6869 L 220.435 299.4912 L 221.2029 299.0075 L 222.526 297.3381 L 222.6379 295.8528 L 223.3201 295.6687 L 224.155 296.561 L 223.853 297.1885 L 224.8369 297.2976 L 225.3105 299.3704 L 225.2954 300.867 L 224.4159 301.9092 L 222.5967 302.0243 L 221.4413 302.6058 L 220.189 303.5847 L 219.6523 304.9898 L 218.7687 306.1759 L 217.9525 306.3315 L 217.5388 307.4832 L 217.0692 307.8401 L 216.2902 307.7193 L 214.4748 308.9171 L 212.9838 310.5063 L 211.5116 310.4778 L 211.0939 310.9787 L 210.2777 313.4956 L 209.4353 315.4537 L 208.2538 317.0608 L 205.7937 318.7774 L 204.3587 318.7486 L 203.0504 317.2104 L 200.0312 313.0233 L 199.6099 312.9427 L 198.7377 314.0426 L 198.0519 314.4228 L 194.8537 314.4055 L 193.5565 313.7948 L 191.8868 310.0111 L 191.5476 309.6943 L 190.2876 309.6542 L 189.3222 310.5929 L 188.3866 313.1328 L 188.0846 315.5515 L 186.5192 317.153 L 184.7859 318.5124 L 184.2083 318.4547 L 182.3631 319.2614 L 180.8499 320.3501 L 179.3365 320.638 L 177.8901 319.9294 L 176.3693 319.48 L 175.0798 319.601 L 173.4695 319.0192 L 172.6459 318.4951 L 172.1427 317.1875 L 172.2282 315.7765 L 172.8544 315.1253 L 174.4013 315.2235 L 175.6875 314.6185 L 177.3387 314.6533 L 178.3674 313.6797 L 178.1811 312.2285 L 176.4403 310.4778 L 176.6304 308.5831 L 177.1895 306.8095 L 178.6319 305.7729 L 180.9766 305.6518 L 183.8316 304.3562 L 184.32 303.4467 L 184.1112 302.5368 L 182.9969 301.8519 L 182.0463 301.5407 L 179.8547 301.7424 L 178.9041 301.0803 L 177.9163 299.4912 L 177.4802 297.5739 L 178.591 295.3118 L 179.3925 294.6092 L 180.4772 294.5001 L 181.9383 293.3432 L 183.3435 294.7131 L 183.9995 294.1027 L 183.8316 293.4005 L 181.7071 288.7671 L 181.1928 287.4894 L 181.517 286.5915 L 183.6268 285.7802 L 186.6647 286.298 L 187.3766 286.5743 L 189.1881 288.6291 L 190.2279 288.5369 L 192.0916 286.1773 L 194.727 284.2724 L 195.808 283.2481 L 196.3112 282.3734 L 196.6765 280.4055 L 198.2456 279.571 L 199.088 278.6791 L 199.9974 275.5493 L 202.0961 274.2836 L 202.4614 273.743 L 202.3458 272.8627 L 201.6563 271.2633 L 200.169 269.2443 L 200.646 267.2483 L 201.7941 265.7355 L 201.9694 264.5852 L 202.7075 262.9172 L 202.7521 262.0316 L 201.3318 260.2717 L 199.7292 259.5012 L 198.8309 259.4784 L 197.2021 257.3964 L 196.1955 257.2127 L 194.9767 257.5404 L 194.1866 257.2472 L 193.0459 256.1891 L 192.4718 254.6939 L 191.3089 254.0097 L 190.8243 254.418 L 190.6305 255.7231 L 189.5907 255.4014 L 189.1546 254.7629 L 185.278 250.8993 L 183.5745 249.6286 L 182.8588 248.5248 L 183.239 247.1451 L 181.7667 246.5245 L 180.5442 244.4148 L 179.8769 242.6155 L 178.9899 241.4719 L 179.3402 241.0291 L 180.7678 240.5177 L 180.8201 239.0865 L 182.3707 236.4428 L 183.0006 235.6956 L 183.0864 234.9716 L 182.654 234.0406 L 182.773 232.9776 L 183.6566 231.7193 L 184.7115 230.8746 L 185.4419 229.1565 L 185.7365 227.9039 L 185.8968 225.8473 L 186.3178 222.7967 L 186.3218 220.4757 L 186.538 220.0048 L 188.5358 218.7067 L 189.4824 218.6148 L 190.8243 217.9084 L 192.103 218.184 L 192.6582 217.8968 L 193.5304 216.8915 L 194.3318 215.3178 L 194.9244 214.8124 L 195.7072 215.019 L 197.3064 214.0085 L 197.5001 213.6639 L 197.832 211.2863 L 198.5661 210.2008 L 198.8272 208.8742 L 196.516 207.6109 L 195.8935 205.1707 L 194.6525 203.6892 L 193.4522 202.811 L 191.6445 201.9899 L 190.3845 202.6731 L 189.5645 202.8223 L 188.2151 202.0015 L 187.7679 202.2883 L 186.8025 204.1141 L 185.8445 204.4815 L 185.17 204.3439 L 184.7078 204.8377 L 183.8131 202.9888 L 184.6183 201.5478 L 184.268 201.0427 L 185.0692 199.4926 L 184.4802 198.815 L 183.4776 199.9347 L 181.5244 200.0839 L 180.436 200.5605 L 179.4445 200.5946 L 178.9527 200.2043 L 178.9785 199.5155 L 176.9844 198.9703 L 176.7497 198.2065 L 176.0227 197.4603 L 174.9792 197.2765 L 174.1888 196.3526 L 172.0456 194.6075 L 171.945 193.4076 L 171.0503 192.9831 L 171.6916 191.6745 L 171.3262 190.8308 L 171.0878 188.8048 L 171.5873 188.6154 L 171.8555 186.9337 L 172.6794 186.6468 L 172.3549 186.0731 L 171.1623 185.6025 L 171.1214 185.235 L 172.668 184.2368 L 172.493 182.8997 L 171.3711 182.5956 L 170.6068 183.0947 L 169.7869 181.3045 L 169.7457 180.679 L 168.8772 180.8054 L 169.0488 181.276 L 167.5354 181.5227 L 167.3865 180.7825 L 168.7656 180.4957 L 168.307 179.7495 L 167.3379 180.2662 L 166.7118 179.652 L 166.9391 178.4127 L 167.5689 177.5637 L 167.7479 176.8295 L 167.2186 176.0892 L 166.1004 172.7219 L 165.3512 171.7409 L 164.0168 171.1098 L 162.8948 171.2876 L 162.3917 172.171 L 161.4823 172.3548 L 159.8981 170.043 L 159.16 168.1328 L 159.3538 166.8252 L 158.3586 164.6056 L 156.5806 164.6686 L 156.286 163.8429 L 157.7548 162.7764 L 158.3324 161.9274 L 158.6643 160.1327 L 156.4874 152.7876 L 156.398 151.7556 L 155.5928 148.6086 L 155.5408 146.2296 L 153.6808 142.7619 L 153.4123 141.971 L 152.9092 139.3576 L 151.8244 136.3087 L 148.2572 128.0637 L 146.5128 123.8473 L 142.2712 115.1813 L 139.5463 108.745 L 144.1608 107.1073 L 152.4804 103.804 L 160.7368 97.9133 L 162.6005 96.5339 L 166.3873 94.7194 L 173.3689 91.7836 L 178.3225 90.4844 L 183.239 85.7746 L 183.8205 83.9039 L 185.2257 80.1905 Z"/>
<path  id="_u9547__u6d77__u533a_" title="镇海区" name="镇海区" stroke-miterlimit="10" stroke="#FFFFFF" fill="#D3D3D3" d="M 341.6505 179.0036 L 342.3662 179.8128 L 344.8001 179.4112 L 347.0513 179.3538 L 348.2852 180.6505 L 350.8498 187.1864 L 352.2178 188.9998 L 359.3743 201.5594 L 364.999 206.8644 L 366.0352 207.1287 L 375.7228 206.2731 L 378.2908 206.164 L 381.6157 206.675 L 382.7675 207.6282 L 376.9715 212.6358 L 374.2952 214.0085 L 371.2573 214.9159 L 369.3788 216.007 L 368.0108 217.5233 L 367.4628 218.6838 L 366.5497 221.3951 L 366.0278 222.3542 L 365.1965 223.2965 L 363.5564 223.8308 L 360.7497 223.394 L 359.363 223.8248 L 358.886 224.2556 L 357.8834 226.301 L 356.7092 229.9034 L 355.6656 231.4778 L 354.9386 232.2135 L 353.2241 233.11 L 352.02 233.5292 L 349.8171 233.9315 L 348.8443 234.2592 L 347.9051 235.2246 L 346.9471 236.937 L 345.4078 240.4487 L 345.0015 241.0235 L 343.9168 241.5236 L 343.4583 241.3969 L 342.5861 239.9601 L 343.5404 238.8278 L 343.8086 239.0637 L 345.1581 236.6037 L 344.4347 235.1039 L 343.6185 235.3855 L 341.9227 235.5291 L 341.9375 234.8051 L 341.2366 234.3109 L 338.7058 234.69 L 338.5194 233.9544 L 337.7256 233.2075 L 336.3017 234.7361 L 335.5747 234.1384 L 335.105 234.8853 L 333.8192 234.1039 L 333.603 230.2079 L 334.0578 229.191 L 333.1558 228.0763 L 333.4538 226.8986 L 333.1183 226.0081 L 331.8549 225.5829 L 331.8137 226.6916 L 329.842 225.3587 L 329.7227 225.7209 L 327.5124 223.1068 L 327.382 221.2399 L 326.5433 221.1825 L 326.0884 219.5623 L 325.1901 219.2695 L 325.0412 218.6606 L 324.385 218.5286 L 323.0247 218.8904 L 323.1775 218.0348 L 321.8132 216.1851 L 320.8814 216.6733 L 320.5942 215.3467 L 319.4574 213.8131 L 316.3934 210.2927 L 315.5882 210.0572 L 315.1374 209.4257 L 313.9745 208.5067 L 312.6026 208.9949 L 312.1778 209.8045 L 310.2096 210.3789 L 309.6917 209.437 L 308.2751 209.2589 L 307.4478 208.1794 L 306.9185 207.9154 L 305.1778 207.9154 L 303.5488 208.1854 L 302.5572 206.9967 L 302.6581 206.0893 L 303.5266 205.2108 L 303.6195 204.4069 L 302.7624 200.9276 L 301.6813 199.745 L 301.0515 198.3156 L 300.2537 197.0354 L 299.829 195.7497 L 298.6213 194.2861 L 297.7826 192.7649 L 297.7752 192.0476 L 299.706 192.0704 L 300.6043 191.7776 L 301.1671 190.716 L 300.8279 189.8607 L 300.9881 189.1891 L 301.5697 188.9195 L 303.3178 189.3785 L 304.8534 188.4433 L 304.5627 187.2036 L 304.9539 185.8035 L 305.9605 185.8492 L 307.9919 185.2294 L 309.3709 183.8064 L 311.0037 183.6571 L 312.5728 183.1291 L 313.2103 183.6342 L 313.3557 184.7359 L 313.7248 185.0172 L 314.4478 184.5293 L 314.9024 185.1949 L 315.8902 185.4188 L 316.9602 184.9827 L 317.9219 184.9369 L 319.2412 184.5466 L 319.4538 185.367 L 321.5598 186.1305 L 322.1783 186.7443 L 323.3301 188.8622 L 325.7307 189.9871 L 327.039 190.7847 L 328.0902 190.8536 L 331.6796 190.1536 L 333.0587 190.2796 L 333.834 190.0328 L 335.6306 188.2539 L 336.2383 187.1174 L 336.5514 185.8264 L 338.333 182.2056 L 339.3246 180.6445 L 341.6505 179.0036 Z"/>
</svg>