<?xml version="1.0" encoding="UTF-8" standalone="no"?><svg xmlns="http://www.w3.org/2000/svg" xmlns:xlink="http://www.w3.org/1999/xlink" contentScriptType="text/ecmascript" zoomAndPan="magnify" contentStyleType="text/css" id="图层_1" mapName="深圳" mapType="省市地图" enable-background="new 0 0 1000 600" version="1.1" xml:space="preserve" preserveAspectRatio="xMidYMid meet" viewBox="0 0 1000 600" x="0px" y="0px"><path  id="_u7f57__u6e56__u533a_" title="罗湖区" name="罗湖区" stroke-miterlimit="10" stroke="#FFFFFF" fill="#D3D3D3" d="M 432.8218 405.3113 L 432.5801 404.5363 L 432.4363 392.6969 L 432.2346 384.4636 L 432.4185 384.0275 L 432.3956 373.5725 L 430.4778 374.9832 L 427.3443 376.1663 L 424.9536 376.676 L 424.3258 376.5577 L 422.961 373.7765 L 421.5437 372.0969 L 419.3205 371.4445 L 418.0128 371.5461 L 415.6971 373.0059 L 414.9542 372.2029 L 414.505 370.6862 L 413.6236 369.5486 L 412.6273 367.0652 L 412.6102 366.3392 L 411.1988 363.6692 L 410.0639 362.9634 L 409.0676 361.8871 L 407.2936 357.9859 L 407.3737 356.1513 L 408.2729 355.7555 L 408.6643 354.5899 L 410.2366 352.8648 L 410.7666 351.7886 L 412.0914 352.0784 L 413.975 350.4479 L 413.2433 348.6255 L 413.2204 347.1053 L 414.5109 347.129 L 417.0507 344.6875 L 418.1797 344.3898 L 419.7467 344.5894 L 422.2352 346.2533 L 422.6385 346.7419 L 423.8246 345.5194 L 425.0975 345.3075 L 427.2806 347.7245 L 429.1242 350.5372 L 429.6653 351.736 L 430.8981 352.2579 L 433.1962 354.7239 L 433.3636 355.6819 L 434.3429 355.7756 L 434.6943 355.0584 L 437.4475 354.6626 L 438.7032 353.7624 L 440.8804 353.0977 L 442.2682 354.2108 L 443.6914 353.6109 L 444.008 355.0628 L 444.8375 355.132 L 445.0043 356.1837 L 445.7071 355.3684 L 448.2764 355.1197 L 449.0422 355.6784 L 449.67 357.0892 L 451.6745 354.928 L 452.596 355.8536 L 455.0845 355.2905 L 455.6894 353.9051 L 456.9681 353.1056 L 458.5175 353.0855 L 459.6064 351.7317 L 459.6405 349.3795 L 462.4345 346.0125 L 465.055 344.1857 L 468.7934 344.2225 L 469.8652 341.5079 L 469.9053 340.8231 L 471.1032 339.8493 L 473.3842 337.3054 L 475.8149 336.4656 L 477.1515 336.3675 L 478.7875 334.7615 L 479.3458 332.9278 L 480.1122 331.7867 L 483.0381 331.4356 L 484.0634 332.3813 L 485.0945 332.0512 L 487.7328 332.0923 L 490.1116 331.2604 L 493.0375 333.7956 L 495.0249 337.4761 L 495.2325 339.2783 L 494.6046 339.8572 L 494.2473 341.1979 L 494.3563 342.7759 L 497.1732 344.402 L 498.6825 343.7251 L 499.6788 343.9905 L 501.3497 346.5142 L 503.4054 345.7594 L 504.1948 346.0615 L 504.3505 346.9337 L 504.0851 348.8786 L 506.0844 352.0417 L 506.7641 354.1249 L 507.593 355.1443 L 507.9273 358.9395 L 507.4262 361.2715 L 507.547 362.7637 L 508.2156 364.5493 L 506.5507 367.1878 L 504.2986 368.3288 L 502.7263 368.3822 L 500.0361 369.4549 L 498.9301 370.7186 L 497.5706 371.7545 L 497.5883 373.597 L 499.7426 378.6936 L 499.6618 380.896 L 497.9108 383.4407 L 497.3348 383.8646 L 496.9946 385.8051 L 495.9924 385.496 L 495.4453 386.4742 L 494.6966 386.7518 L 493.2792 386.5889 L 492.1502 387.6362 L 491.2518 387.7833 L 490.5779 386.9313 L 489.6624 387.4979 L 486.431 386.8822 L 485.8551 388.0688 L 483.7468 386.7719 L 483.4874 383.2892 L 482.5889 382.8575 L 480.809 383.2323 L 479.0174 383.1833 L 478.004 381.8864 L 476.9209 381.8093 L 475.7808 383.3383 L 474.2078 383.4653 L 473.2174 381.2585 L 472.5028 381.438 L 471.0743 383.8112 L 469.5368 386.9225 L 468.7822 387.4444 L 467.3018 387.4085 L 466.7777 387.8035 L 466.5872 390.4498 L 465.5968 390.9683 L 465.2914 392.7871 L 465.4353 394.0674 L 466.092 394.2915 L 466.6799 393.6146 L 466.5354 394.7443 L 465.7466 395.0621 L 464.5427 396.8363 L 464.324 398.7576 L 462.3478 399.3075 L 461.7146 398.5903 L 460.3722 398.5781 L 459.8021 397.9047 L 457.6827 397.2978 L 457.0489 397.4607 L 455.3032 399.0221 L 453.5641 398.7164 L 452.481 398.9897 L 451.8991 399.9521 L 450.8739 400.699 L 449.4395 400.6045 L 447.5276 402.0362 L 445.8857 404.8017 L 443.9213 405.4296 L 442.7063 408.2843 L 440.9895 409.386 L 439.6936 409.0839 L 439.008 407.9542 L 439.1695 404.2833 L 438.4668 403.3743 L 437.4475 405.2623 L 434.6194 404.7036 L 432.8218 405.3113 Z"/>
<path  id="_u798f__u7530__u533a_" title="福田区" name="福田区" stroke-miterlimit="10" stroke="#FFFFFF" fill="#D3D3D3" d="M 407.2936 357.9859 L 409.0676 361.8871 L 410.0639 362.9634 L 411.1988 363.6692 L 412.6102 366.3392 L 412.6273 367.0652 L 413.6236 369.5486 L 414.505 370.6862 L 414.9542 372.2029 L 415.6971 373.0059 L 418.0128 371.5461 L 419.3205 371.4445 L 421.5437 372.0969 L 422.961 373.7765 L 424.3258 376.5577 L 424.9536 376.676 L 427.3443 376.1663 L 430.4778 374.9832 L 432.3956 373.5725 L 432.4185 384.0275 L 432.2346 384.4636 L 432.4363 392.6969 L 432.5801 404.5363 L 432.8218 405.3113 L 430.7024 405.6502 L 429.5215 404.8174 L 427.6149 402.8804 L 425.5585 403.6107 L 424.7638 404.5083 L 423.6749 406.6774 L 423.0877 407.3342 L 421.7111 407.8649 L 420.0232 408.1258 L 418.929 408.8798 L 418.5777 410.1408 L 420.196 412.098 L 421.6593 412.9264 L 423.0818 414.6227 L 423.0529 415.9931 L 421.3079 419.0852 L 419.107 421.2841 L 417.3219 422.1283 L 416.4865 421.6265 L 415.7667 420.4031 L 414.3205 419.4486 L 409.1424 420.9408 L 406.1758 423.772 L 405.1105 426.1539 L 404.6783 430.535 L 403.1402 432.3713 L 401.2336 433.3381 L 399.0741 433.1052 L 396.9711 431.9633 L 393.9644 431.0946 L 391.4016 430.5639 L 388.0258 430.0621 L 384.0399 429.2626 L 382.859 428.3974 L 380.2732 424.8368 L 379.5416 424.4209 L 370.6765 424.0329 L 357.6703 423.7396 L 357.5383 415.0719 L 360.061 413.8074 L 359.3464 408.7704 L 360.038 406.2413 L 360.7808 406.2702 L 361.2189 404.9243 L 360.7519 404.1449 L 362.3479 404.6388 L 361.5933 399.1771 L 361.5814 395.0867 L 361.9098 393.5945 L 361.2708 392.0322 L 362.2553 390.4139 L 363.4592 390.1363 L 363.6667 389.4472 L 362.9928 389.1004 L 362.5436 387.3963 L 362.7104 385.8261 L 362.1574 384.8918 L 364.5363 384.1544 L 365.6482 384.1658 L 367.3591 383.6684 L 367.2842 381.9442 L 366.3339 380.0474 L 365.9418 377.6786 L 366.414 374.9753 L 367.3072 373.2546 L 367.0419 370.4454 L 367.2093 367.2079 L 369.9625 363.9503 L 373.5164 363.3426 L 376.1375 363.7629 L 378.297 362.6989 L 379.1902 361.508 L 382.1799 361.6752 L 383.6602 362.4581 L 386.2749 360.6524 L 388.8382 360.3503 L 390.739 359.5306 L 393.5099 359.3065 L 394.9555 360.8433 L 398.2676 361.4221 L 398.9066 360.9948 L 399.0452 358.9028 L 399.6323 358.3195 L 401.6486 357.3536 L 402.7547 356.3553 L 404.5457 357.2801 L 407.2936 357.9859 Z"/>
<path  id="_u5357__u5c71__u533a_" title="南山区" name="南山区" stroke-miterlimit="10" stroke="#FFFFFF" fill="#D3D3D3" d="M 379.1902 361.508 L 378.297 362.6989 L 376.1375 363.7629 L 373.5164 363.3426 L 369.9625 363.9503 L 367.2093 367.2079 L 367.0419 370.4454 L 367.3072 373.2546 L 366.414 374.9753 L 365.9418 377.6786 L 366.3339 380.0474 L 367.2842 381.9442 L 367.3591 383.6684 L 365.6482 384.1658 L 364.5363 384.1544 L 362.1574 384.8918 L 362.7104 385.8261 L 362.5436 387.3963 L 362.9928 389.1004 L 363.6667 389.4472 L 363.4592 390.1363 L 362.2553 390.4139 L 361.2708 392.0322 L 361.9098 393.5945 L 361.5814 395.0867 L 361.5933 399.1771 L 362.3479 404.6388 L 360.7519 404.1449 L 361.2189 404.9243 L 360.7808 406.2702 L 360.038 406.2413 L 359.3464 408.7704 L 360.061 413.8074 L 357.5383 415.0719 L 357.6703 423.7396 L 348.3395 423.7028 L 341.4388 424.4979 L 338.8984 426.3421 L 336.911 428.696 L 335.5292 432.522 L 334.037 440.9015 L 333.2134 443.2475 L 334.3365 443.9612 L 334.2327 444.4831 L 332.9999 443.8474 L 330.2355 450.2768 L 328.8589 452.8513 L 324.2793 457.7806 L 308.405 471.572 L 298.6072 478.9953 L 296.4583 481.3991 L 295.1106 482.5787 L 293.8837 483.1707 L 292.6628 483.2398 L 290.5775 482.7171 L 288.3714 481.5664 L 286.0674 479.6074 L 278.3661 468.43 L 276.3846 463.4315 L 273.6426 454.1692 L 271.3905 436.8295 L 271.8864 431.2496 L 272.4853 428.6794 L 274.2593 422.5153 L 274.4668 419.0117 L 272.4105 409.8755 L 295.2143 395.2828 L 298.9816 393.2722 L 305.087 386.4584 L 308.428 383.2892 L 308.6296 382.861 L 308.5199 375.9658 L 308.6868 375.2687 L 312.7942 370.3473 L 315.4726 368.3375 L 317.1368 364.0317 L 317.4711 362.2584 L 316.5897 360.6638 L 314.4473 358.9352 L 314.1071 356.2818 L 314.1419 354.2309 L 315.3281 353.4848 L 316.8144 353.5137 L 316.463 352.3228 L 315.818 352.2291 L 315.334 351.2877 L 315.0233 349.4329 L 313.5252 345.3355 L 314.5104 342.6498 L 316.3421 341.9282 L 316.8262 339.5472 L 317.7476 338.5611 L 317.8225 337.3422 L 317.483 335.3202 L 317.0101 334.6152 L 316.1293 331.778 L 317.523 329.178 L 318.0701 328.5177 L 318.6001 325.2768 L 317.3043 322.5096 L 317.3155 321.2459 L 317.8803 319.9341 L 317.7706 318.9962 L 317.0738 317.9813 L 317.3444 316.4856 L 317.8856 315.4672 L 318.8596 314.9575 L 319.314 313.4215 L 320.3682 312.9854 L 322.0961 311.5633 L 322.7936 307.7155 L 322.7129 305.9553 L 324.6825 304.9369 L 324.85 303.7389 L 326.9924 301.1346 L 328.7552 300.8045 L 330.518 299.7291 L 331.4683 300.9271 L 332.816 300.8001 L 333.9969 302.2345 L 335.9035 300.2589 L 337.4699 299.4839 L 338.2305 300.5067 L 340.3269 300.6092 L 341.2832 300.3237 L 342.1297 300.9673 L 342.6309 302.6303 L 343.2128 306.6603 L 341.894 308.3635 L 341.8303 309.6762 L 342.3721 310.0431 L 344.0712 309.9406 L 345.0097 311.8891 L 347.1528 313.8042 L 348.109 312.7893 L 349.5946 313.0581 L 352.0024 312.777 L 352.9875 313.552 L 354.5257 313.5187 L 356.4435 314.8025 L 357.1692 315.6257 L 357.9817 317.4603 L 358.7593 318.1039 L 358.7882 319.343 L 359.6577 322.8152 L 360.3664 322.2241 L 361.4895 322.1146 L 363.2234 323.4632 L 364.8876 322.9176 L 365.5904 325.9782 L 366.3339 326.614 L 366.5815 327.7103 L 367.3932 328.7174 L 368.2227 328.7008 L 369.5245 331.5091 L 369.8529 335.7317 L 372.1916 339.992 L 373.1821 340.4194 L 374.0923 341.6261 L 374.6861 343.1384 L 377.4334 343.8074 L 378.1302 343.3749 L 378.9715 345.4862 L 379.2763 347.9285 L 378.9886 349.6895 L 379.4437 351.2632 L 380.8492 352.4979 L 381.0968 353.9454 L 380.3074 356.4814 L 379.4726 360.8433 L 379.1902 361.508 Z M 245.482 523.7804 L 241.7089 522.4528 L 237.1876 520.3546 L 235.0157 518.436 L 233.9845 517.2398 L 233.6049 516.2809 L 233.2877 514.1258 L 231.2143 512.7168 L 227.292 510.5862 L 224.6419 509.7613 L 223.6515 508.6798 L 223.3809 506.5737 L 223.7605 505.529 L 224.6537 504.7208 L 225.8399 504.2426 L 227.8733 504.606 L 229.106 505.8959 L 229.7109 505.8959 L 230.6265 505.0308 L 231.2773 503.7452 L 231.6694 500.8834 L 232.2047 500.267 L 233.8985 499.9736 L 234.8141 500.4141 L 235.3382 501.7732 L 235.7362 504.1121 L 236.9972 504.4432 L 238.0973 504.0228 L 239.774 502.6918 L 241.7726 503.5736 L 242.164 504.6139 L 243.5984 506.635 L 244.4739 509.4635 L 244.952 511.6843 L 248.2753 516.7748 L 248.6674 519.6611 L 248.4021 522.3836 L 247.3197 523.6087 L 245.482 523.7804 Z M 261.6046 424.0618 L 260.314 421.9164 L 260.3311 419.1544 L 261.5586 418.0493 L 262.3822 418.2323 L 264.3748 421.1203 L 265.4749 421.3778 L 266.9783 422.6624 L 269.7374 424.6205 L 269.8353 428.7932 L 269.6973 429.8782 L 268.5742 430.5271 L 265.5728 428.7853 L 262.526 424.7922 L 261.6046 424.0618 Z M 258.4192 434.297 L 258.3154 432.4239 L 260.4756 429.915 L 261.5868 430.0744 L 266.535 435.9775 L 266.4719 437.1281 L 264.6632 440.2649 L 263.4245 440.0652 L 258.4192 434.297 Z"/>
<path  id="_u5b9d__u5b89__u533a_" title="宝安区" name="宝安区" stroke-miterlimit="10" stroke="#FFFFFF" fill="#D3D3D3" d="M 305.2656 144.0332 L 302.9787 144.359 L 301.4872 145.3722 L 300.0699 145.5963 L 298.7452 144.9658 L 296.9535 145.9011 L 296.3026 146.8004 L 296.5391 147.5211 L 295.5769 149.3487 L 294.88 151.5301 L 295.1566 152.7709 L 294.6902 153.5853 L 294.1543 153.2885 L 294.264 152.3646 L 293.3248 153.5652 L 292.2135 152.2587 L 293.2907 151.0213 L 292.0638 151.4443 L 292.1268 152.4907 L 291.6316 152.9181 L 291.1936 151.3751 L 290.4048 153.1501 L 290.3588 154.5171 L 290.8021 155.5023 L 289.5635 157.7817 L 289.4774 158.4446 L 287.9682 160.675 L 288.1409 161.591 L 287.2713 164.888 L 287.2424 167.3995 L 286.6205 169.439 L 286.1016 170.2937 L 286.0615 172.3244 L 284.5411 172.8131 L 283.0719 174.3762 L 275.6648 178.809 L 274.5877 178.7074 L 273.24 180.2425 L 271.7878 180.1322 L 270.3594 180.7916 L 271.114 181.5368 L 271.1199 184.6385 L 271.4601 186.1736 L 272.6752 189.3244 L 273.4758 188.9951 L 272.3356 190.7781 L 271.8686 192.9971 L 272.1281 193.9656 L 274.2363 194.2099 L 273.9309 195.2809 L 274.4031 196.4009 L 275.561 196.6242 L 275.5899 197.6672 L 277.1681 198.1681 L 277.5307 200.2601 L 278.2104 200.7733 L 278.2282 201.6324 L 281.0963 203.4932 L 280.3476 204.6982 L 282.7665 207.0354 L 283.6479 209.0793 L 282.9859 213.0664 L 284.5871 214.3817 L 284.8117 215.5008 L 284.5464 216.4746 L 285.8369 217.5902 L 285.5256 218.6446 L 286.2802 220.4284 L 286.9259 221.0309 L 287.582 222.6273 L 286.5745 224.5582 L 286.0037 226.5285 L 286.6205 227.9252 L 285.5775 229.787 L 284.7999 230.6259 L 283.7346 230.6784 L 283.0088 233.1225 L 283.527 234.7023 L 284.0511 235.0893 L 284.126 236.4616 L 283.7346 237.5571 L 284.7539 239.9644 L 286.0786 241.1089 L 286.453 242.2858 L 286.1824 244.2903 L 284.8458 244.9129 L 283.6886 244.856 L 281.6723 246.1634 L 281.8969 247.5322 L 282.8591 248.0865 L 282.1156 249.7232 L 281.1081 250.9982 L 282.2082 253.9642 L 282.6975 253.7768 L 282.9162 255.17 L 283.5907 255.8907 L 285.3759 255.7681 L 285.232 257.1981 L 284.0341 257.2673 L 283.2216 256.7743 L 283.4233 258.3751 L 284.149 259.2963 L 284.7539 261.1861 L 284.6212 261.6379 L 282.2312 263.2764 L 281.1883 265.1416 L 282.7612 266.9508 L 283.2394 266.8116 L 284.5063 268.6496 L 284.8518 269.9369 L 286.3321 268.7758 L 287.3462 266.6776 L 291.4182 267.492 L 292.2365 268.3598 L 294.1143 267.8957 L 296.4931 265.4306 L 296.8786 264.6083 L 296.0609 263.0312 L 297.2589 263.3534 L 297.7777 264.4244 L 299.0906 264.8325 L 300.7267 265.9078 L 301.4872 265.8387 L 301.4465 264.7388 L 300.7496 264.0619 L 300.6347 262.2246 L 300.1907 261.6099 L 299.0447 262.2702 L 299.2115 260.6729 L 300.4672 260.172 L 302.1781 257.3242 L 301.7 255.7234 L 302.1611 253.3818 L 305.6919 253.19 L 306.769 252.2977 L 307.1315 249.9473 L 308.7387 248.9534 L 309.1248 249.7687 L 310.9395 249.2836 L 311.97 249.8011 L 314.5912 249.5769 L 316.1004 251.7968 L 316.2095 252.8599 L 317.2524 252.1515 L 317.5059 251.4754 L 318.6349 250.8353 L 321.1175 252.2653 L 322.5513 255.1577 L 323.2081 255.3854 L 324.6195 254.1883 L 324.9479 252.2819 L 323.4156 250.2372 L 324.9071 250.4123 L 326.2319 248.1233 L 328.6862 248.0173 L 331.249 245.5566 L 331.9517 243.997 L 332.5454 241.9522 L 332.9717 242.5757 L 333.9851 242.1921 L 334.6878 243.0276 L 335.2238 241.362 L 336.1281 242.123 L 336.6634 243.8218 L 337.1993 244.1721 L 337.3951 245.3123 L 338.2935 245.4506 L 338.5529 244.2413 L 339.2846 244.3429 L 339.9295 245.8333 L 341.2024 246.7703 L 342.6368 247.0479 L 343.0282 248.2248 L 344.215 249.0226 L 345.3729 247.984 L 346.6398 247.4998 L 347.1468 247.8089 L 348.8118 246.7011 L 349.2032 247.1863 L 349.4278 248.7459 L 348.2469 251.035 L 347.625 254.6726 L 346.5249 254.9169 L 346.4441 256.1639 L 347.8496 255.4021 L 348.2758 256.0939 L 347.9074 256.685 L 348.5005 257.4836 L 347.1757 257.516 L 347.3426 258.2779 L 349.3181 257.8987 L 349.8252 258.9373 L 350.4708 258.7989 L 350.6718 260.9496 L 349.4856 261.158 L 349.2032 260.0818 L 347.7399 261.2596 L 347.9645 262.0583 L 349.6584 262.1966 L 349.4856 263.3779 L 348.5294 263.6389 L 347.6138 263.3534 L 347.0201 263.793 L 347.8207 264.9542 L 346.8933 266.0663 L 347.5731 267.3133 L 346.9912 268.3721 L 346.5998 270.0184 L 347.6421 269.8432 L 347.7399 271.1261 L 346.8244 273.1385 L 347.049 275.009 L 345.6665 275.0782 L 343.9037 276.5038 L 344.5086 277.4373 L 343.2995 278.3051 L 343.0459 279.7264 L 342.0838 281.5277 L 342.5967 282.0855 L 342.7635 283.4385 L 344.0304 284.5462 L 344.9348 287.1138 L 346.2884 289.1918 L 345.8911 290.5115 L 346.2313 291.9336 L 345.413 294.256 L 345.7762 295.1238 L 344.3418 296.4076 L 344.3129 298.384 L 343.4374 299.2518 L 342.3951 299.1827 L 342.1297 300.9673 L 341.2832 300.3237 L 340.3269 300.6092 L 338.2305 300.5067 L 337.4699 299.4839 L 335.9035 300.2589 L 333.9969 302.2345 L 332.816 300.8001 L 331.4683 300.9271 L 330.518 299.7291 L 328.7552 300.8045 L 326.9924 301.1346 L 324.85 303.7389 L 324.6825 304.9369 L 322.7129 305.9553 L 322.7936 307.7155 L 322.0961 311.5633 L 320.3682 312.9854 L 319.314 313.4215 L 318.8596 314.9575 L 317.8856 315.4672 L 317.3444 316.4856 L 317.0738 317.9813 L 317.7706 318.9962 L 317.8803 319.9341 L 317.3155 321.2459 L 317.3043 322.5096 L 318.6001 325.2768 L 318.0701 328.5177 L 317.523 329.178 L 316.1293 331.778 L 317.0101 334.6152 L 317.483 335.3202 L 317.8225 337.3422 L 317.7476 338.5611 L 316.8262 339.5472 L 316.3421 341.9282 L 314.5104 342.6498 L 313.5252 345.3355 L 315.0233 349.4329 L 315.334 351.2877 L 315.818 352.2291 L 316.463 352.3228 L 316.8144 353.5137 L 315.3281 353.4848 L 314.1419 354.2309 L 314.1071 356.2818 L 314.4473 358.9352 L 316.5897 360.6638 L 317.4711 362.2584 L 317.1368 364.0317 L 315.4726 368.3375 L 312.7942 370.3473 L 308.6868 375.2687 L 308.5199 375.9658 L 308.6296 382.861 L 308.428 383.2892 L 305.087 386.4584 L 298.9816 393.2722 L 295.2143 395.2828 L 272.4105 409.8755 L 271.5921 407.2974 L 269.5358 398.3127 L 268.3549 395.9554 L 267.1917 395.4746 L 265.9879 395.711 L 260.5616 398.5903 L 258.033 399.7603 L 256.1093 399.3163 L 255.176 398.3574 L 254.9055 396.8162 L 254.8477 394.2425 L 255.4525 388.1503 L 256.0056 386.0214 L 257.5956 381.0632 L 257.4918 378.4168 L 256.5008 375.9211 L 253.5348 371.5058 L 234.6302 351.4059 L 220.7597 322.9378 L 214.8442 307.5815 L 212.0332 297.6625 L 210.7203 293.3636 L 209.7292 287.8511 L 204.7009 276.467 L 205.0405 272.5159 L 201.6305 259.1614 L 200.8706 252.9948 L 200.5074 244.3796 L 207.6899 225.5801 L 212.2755 221.0519 L 216.4973 217.5412 L 219.6944 215.4071 L 223.8472 213.5708 L 225.1838 212.5331 L 226.3699 211.1074 L 227.5679 208.7579 L 228.1557 207.186 L 228.5589 203.3873 L 228.2594 201.0378 L 227.0438 198.6278 L 227.4181 196.14 L 229.198 193.6766 L 230.1601 192.8867 L 232.2165 192.1336 L 233.3337 191.0268 L 233.6851 189.6256 L 233.4322 187.9732 L 232.5219 186.206 L 232.6257 184.5334 L 233.8755 183.5395 L 235.1773 183.8854 L 236.2603 185.5387 L 236.8993 185.9906 L 239.3241 185.8111 L 241.4041 184.0895 L 242.0143 182.5911 L 240.9142 179.8756 L 241.2137 178.6917 L 242.101 177.5314 L 243.1551 177.055 L 246.081 177.2257 L 248.7534 176.4893 L 250.9714 173.8674 L 250.4703 173.314 L 250.4354 171.6528 L 252.6593 172.4628 L 253.6096 171.2911 L 254.8365 170.7858 L 256.8462 169.4548 L 258.6957 163.268 L 258.7187 160.8177 L 257.8603 159.7923 L 257.7335 158.5471 L 257.9063 155.0994 L 257.6009 153.8901 L 257.7913 152.9907 L 256.5067 151.5056 L 255.1931 150.8829 L 256.3799 149.389 L 256.3917 147.0693 L 256.9618 146.2391 L 257.7394 144.2206 L 259.3866 142.7923 L 259.6572 140.5295 L 260.4637 140.7896 L 262.0939 140.1512 L 262.7907 139.3412 L 265.6194 138.0347 L 266.0739 137.4733 L 268.1362 139.4594 L 269.3 139.0522 L 269.8701 141.738 L 272.4446 140.3912 L 272.9865 141.083 L 273.441 139.7283 L 274.6796 137.9252 L 275.9124 138.194 L 277.3179 137.624 L 278.8843 137.9086 L 280.146 137.4453 L 279.8984 135.3086 L 280.1978 134.6448 L 280.7279 135.1501 L 279.3053 132.5414 L 279.0229 130.3154 L 280.607 130.4739 L 281.206 131.2681 L 281.9317 128.867 L 282.5885 128.1673 L 283.2965 124.8344 L 283.7865 124.1058 L 283.4121 122.6171 L 283.8673 121.9533 L 284.8925 122.2064 L 284.195 122.8281 L 284.08 124.3992 L 285.0652 124.802 L 285.3759 123.1049 L 286.0963 123.5164 L 285.5834 124.1391 L 285.6182 125.2784 L 286.6723 126.0428 L 287.2306 124.8633 L 287.8184 125.2337 L 287.8532 123.8536 L 288.6019 124.1102 L 288.9244 122.7633 L 290.6984 121.4699 L 289.0105 118.9392 L 289.7362 119.0486 L 291.2744 117.954 L 291.8563 117.9785 L 292.1958 116.2245 L 292.1387 118.3288 L 290.9401 119.5977 L 291.3203 120.3184 L 292.7377 120.7168 L 293.1002 120.3306 L 293.3708 121.7826 L 294.4019 121.6407 L 294.6784 122.702 L 297.052 122.1039 L 297.138 121.2256 L 297.8927 120.2974 L 297.7311 121.7055 L 296.8037 122.914 L 295.6235 125.1882 L 294.8111 126.1567 L 294.5517 124.7205 L 293.5264 123.2073 L 292.5071 123.3614 L 292.4664 124.7696 L 293.3938 125.1234 L 293.3425 126.2224 L 294.4538 126.556 L 293.3077 127.4588 L 293.3478 128.7689 L 294.0794 129.8478 L 295.5427 130.0387 L 296.3144 130.7961 L 297.2766 130.5352 L 296.1299 131.5361 L 296.8274 132.8628 L 298.2211 131.6464 L 298.4687 129.9091 L 298.5606 131.3084 L 299.9891 131.9232 L 301.4064 130.8364 L 300.4561 132.0738 L 300.1907 133.1351 L 301.677 132.9854 L 300.9572 133.4731 L 301.2678 135.1536 L 302.5584 135.2394 L 305.1619 135.8454 L 306.5214 135.0643 L 307.7653 136.0048 L 308.958 135.8174 L 309.09 134.6694 L 310.7031 133.0213 L 311.4406 133.8357 L 312.6846 132.2813 L 314.182 132.7936 L 315.3228 132.1832 L 316.7625 132.5335 L 317.8744 133.4933 L 319.9308 133.5957 L 320.91 134.6291 L 318.9397 133.7131 L 317.6439 133.8839 L 316.0026 132.8996 L 314.6542 133.791 L 313.543 133.1763 L 312.7883 133.2209 L 311.6423 134.2184 L 310.7431 134.3804 L 310.8646 135.4592 L 309.7928 135.1746 L 309.8158 137.046 L 311.2731 138.5802 L 312.8225 138.9673 L 313.1686 139.8421 L 312.1375 139.4551 L 310.9796 140.0164 L 311.2101 139.0076 L 309.9543 138.3727 L 308.9981 136.8507 L 306.9647 137.7457 L 305.9684 137.1108 L 305.5822 136.3542 L 303.5666 137.1196 L 302.3857 136.525 L 302.0284 137.0057 L 300.663 135.1501 L 299.6377 135.0844 L 299.5399 136.7001 L 300.8764 141.5059 L 303.9521 141.689 L 304.6489 142.4097 L 305.2656 144.0332 Z M 247.7171 394.6462 L 248.3561 393.7328 L 248.4829 394.4553 L 247.7171 394.6462 Z"/>
<path  id="_u9f99__u5c97__u533a_" title="龙岗区" name="龙岗区" stroke-miterlimit="10" stroke="#FFFFFF" fill="#D3D3D3" d="M 597.4155 200.2523 L 595.8891 200.0771 L 595.0485 198.0945 L 594.0515 197.5122 L 593.0203 198.4037 L 592.1915 200.6962 L 592.3235 201.4739 L 591.961 204.34 L 590.763 204.8978 L 591.0566 205.517 L 589.9617 206.6037 L 590.1463 209.5355 L 589.15 209.4988 L 588.6029 210.1424 L 587.9343 209.7764 L 587.4909 210.4069 L 586.4427 214.2389 L 585.3196 216.3485 L 585.7341 217.24 L 587.0995 217.183 L 587.3931 219.3898 L 586.9839 221.5729 L 586.4257 221.9722 L 586.1492 226.3376 L 586.4598 227.3797 L 587.6295 228.1783 L 587.7215 232.2424 L 587.1514 236.649 L 587.353 238.7104 L 588.2397 240.9215 L 588.1017 244.4409 L 585.4175 247.5199 L 584.4842 248.0296 L 582.6525 248.0821 L 579.6628 248.6198 L 579.7896 251.3774 L 579.2254 253.9799 L 578.4071 253.3976 L 577.8889 254.1305 L 576.4834 253.874 L 576.6102 254.8276 L 576.0631 255.7033 L 574.8073 254.7374 L 574.3121 255.8294 L 576.2069 257.5116 L 575.5968 265.0602 L 575.8036 268.0708 L 572.9756 265.5821 L 571.3514 269.5499 L 567.5381 270.3073 L 562.3654 270.2706 L 562.1467 271.5456 L 560.1192 274.3119 L 558.9442 274.7883 L 556.7782 273.9739 L 555.1021 275.7095 L 554.5668 277.4732 L 554.048 277.9181 L 552.6543 277.6002 L 551.5654 276.9233 L 550.9835 277.0581 L 550.1487 278.1869 L 549.7225 279.4173 L 548.4779 279.2088 L 545.506 279.9225 L 545.1257 280.5942 L 543.2769 281.0837 L 542.3495 283.597 L 542.6661 284.2818 L 541.583 285.7118 L 541.8884 286.8283 L 541.0478 287.1217 L 540.5756 288.2907 L 539.769 288.8205 L 539.1063 291.1184 L 539.5155 292.4345 L 539.3599 295.0546 L 540.9381 298.2982 L 537.3495 301.1836 L 536.2264 302.5734 L 535.4258 302.8335 L 534.7289 304.1216 L 534.0722 308.2251 L 533.1737 309.7042 L 533.8876 312.5248 L 533.6577 315.504 L 536.5436 318.0917 L 537.027 319.0085 L 538.5711 320.6513 L 538.663 322.4325 L 538.0003 325.6848 L 536.4687 327.5396 L 534.4354 328.9127 L 531.1114 327.8329 L 528.548 327.6123 L 527.2982 327.7226 L 524.7814 329.6754 L 523.6636 331.3664 L 521.9245 331.7377 L 517.9267 337.2283 L 517.5004 338.5366 L 517.9845 339.2372 L 518.4107 342.1559 L 517.9037 343.3223 L 516.8844 343.9861 L 516.7688 344.7979 L 515.2713 346.7586 L 515.0408 349.9627 L 514.5108 350.9251 L 514.1082 353.5382 L 513.1572 354.3903 L 511.464 357.8186 L 511.1875 359.0656 L 509.7419 359.6813 L 507.9161 361.5045 L 507.4262 361.2715 L 507.9273 358.9395 L 507.593 355.1443 L 506.7641 354.1249 L 506.0844 352.0417 L 504.0851 348.8786 L 504.3505 346.9337 L 504.1948 346.0615 L 503.4054 345.7594 L 501.3497 346.5142 L 499.6788 343.9905 L 498.6825 343.7251 L 497.1732 344.402 L 494.3563 342.7759 L 494.2473 341.1979 L 494.6046 339.8572 L 495.2325 339.2783 L 495.0249 337.4761 L 493.0375 333.7956 L 490.1116 331.2604 L 487.7328 332.0923 L 485.0945 332.0512 L 484.0634 332.3813 L 483.0381 331.4356 L 480.1122 331.7867 L 479.3458 332.9278 L 478.7875 334.7615 L 477.1515 336.3675 L 475.8149 336.4656 L 473.3842 337.3054 L 471.1032 339.8493 L 469.9053 340.8231 L 469.8652 341.5079 L 468.7934 344.2225 L 465.055 344.1857 L 462.4345 346.0125 L 459.6405 349.3795 L 459.6064 351.7317 L 458.5175 353.0855 L 456.9681 353.1056 L 455.6894 353.9051 L 455.0845 355.2905 L 452.596 355.8536 L 451.6745 354.928 L 449.67 357.0892 L 449.0422 355.6784 L 448.2764 355.1197 L 445.7071 355.3684 L 445.0043 356.1837 L 444.8375 355.132 L 444.008 355.0628 L 443.6914 353.6109 L 442.2682 354.2108 L 440.8804 353.0977 L 438.7032 353.7624 L 437.4475 354.6626 L 434.6943 355.0584 L 434.3429 355.7756 L 433.3636 355.6819 L 433.1962 354.7239 L 430.8981 352.2579 L 429.6653 351.736 L 429.1242 350.5372 L 427.2806 347.7245 L 425.0975 345.3075 L 423.8246 345.5194 L 422.6385 346.7419 L 422.2352 346.2533 L 419.7467 344.5894 L 418.1797 344.3898 L 417.0507 344.6875 L 414.5109 347.129 L 413.2204 347.1053 L 413.2433 348.6255 L 413.975 350.4479 L 412.0914 352.0784 L 410.7666 351.7886 L 409.6784 349.3673 L 408.1862 347.9609 L 406.8037 348.3935 L 405.8362 347.1701 L 405.4212 346.0571 L 404.3729 346.5379 L 405.4159 348.4092 L 404.8051 349.2245 L 403.7392 347.0931 L 403.4285 344.219 L 401.9422 342.874 L 402.8354 340.3178 L 402.9615 339.1312 L 402.4952 336.2046 L 402.1038 335.3403 L 402.0401 330.319 L 400.5945 329.9075 L 400.7613 326.924 L 400.1223 325.571 L 399.3217 325.5622 L 398.3943 324.2864 L 399.235 323.6874 L 397.2423 322.0778 L 397.5471 320.0926 L 398.573 319.6162 L 398.636 317.1949 L 397.997 316.8035 L 398.0948 314.2692 L 400.4277 314.8148 L 400.6405 313.4539 L 399.3329 310.2095 L 399.6094 309.1954 L 400.4848 308.3635 L 399.9837 304.8712 L 398.8147 303.9465 L 396.7353 304.1339 L 397.3284 301.4569 L 399.8458 302.4832 L 399.5522 293.3111 L 400.5367 292.537 L 400.8592 290.5772 L 399.7532 289.5579 L 399.3329 288.6252 L 399.4018 287.5534 L 401.5849 287.9939 L 402.9904 288.8985 L 405.5427 285.1496 L 408.376 281.7799 L 409.2692 279.7877 L 411.4116 281.4007 L 412.3679 281.124 L 413.6466 279.5512 L 415.4495 280.3096 L 415.8415 281.6783 L 416.5325 282.7782 L 416.5555 283.9113 L 417.2063 284.4446 L 417.1433 285.6058 L 417.9669 288.12 L 418.4562 288.9878 L 419.8045 289.9169 L 419.7237 291.1148 L 420.1671 292.6219 L 422.3384 293.8812 L 424.0381 291.6201 L 424.5734 289.9169 L 426.1746 288.0753 L 428.3695 285.9806 L 429.821 285.3247 L 429.4466 282.1792 L 429.4985 279.4497 L 429.1701 279.0582 L 426.3302 272.3039 L 426.2324 271.1874 L 427.2287 268.8327 L 427.5801 268.5682 L 430.1605 268.2048 L 430.6794 267.6426 L 429.5675 266.6609 L 428.4556 266.5226 L 426.9811 264.7913 L 426.4281 263.7238 L 425.4147 262.9418 L 425.4607 261.4593 L 425.1152 257.7113 L 427.632 254.3179 L 428.6631 253.7925 L 429.9537 253.7925 L 432.079 253.0272 L 432.4474 250.6934 L 433.692 249.2879 L 433.9626 247.512 L 435.5179 245.5119 L 435.6098 242.6239 L 438.2021 239.4512 L 439.5669 237.7445 L 440.9842 237.5938 L 442.3608 240.7061 L 443.3742 241.5082 L 443.8582 243.63 L 444.8953 244.5548 L 445.5514 244.5425 L 446.2949 243.1659 L 447.5099 243.0477 L 449.1289 243.4549 L 449.5492 244.8683 L 450.2808 246.0619 L 452.6308 247.2712 L 453.1838 246.7668 L 453.9213 245.1695 L 453.9266 243.5687 L 455.315 243.7237 L 458.7598 245.4471 L 458.6672 248.6811 L 457.7628 249.3851 L 458.218 251.1777 L 459.6465 252.6357 L 458.7362 255.459 L 459.0186 256.84 L 460.1016 257.5528 L 462.1869 258.347 L 462.6591 260.1676 L 463.5346 261.94 L 464.1454 265.0111 L 463.4308 266.5068 L 468.0617 270.1769 L 468.8971 271 L 469.8994 270.7636 L 471.207 272.9957 L 473.7126 274.7725 L 474.2367 276.4513 L 472.9928 276.8261 L 473.5169 279.7229 L 473.6837 281.7475 L 472.9061 283.5523 L 471.3916 288.1891 L 470.8615 287.8467 L 470.5502 286.6777 L 469.1566 285.1496 L 467.336 285.7319 L 465.8556 285.0725 L 465.8444 285.7074 L 464.8481 289.4318 L 465.3492 289.9861 L 464.6058 292.2927 L 465.562 292.6675 L 466.3055 289.4361 L 466.8697 289.2444 L 466.9616 291.4774 L 467.4916 291.4205 L 468.1885 290.3731 L 468.7704 288.4212 L 469.3753 288.5237 L 470.6021 291.9827 L 469.5368 293.7384 L 469.3871 295.1728 L 470.4872 295.6869 L 471.6214 295.3813 L 471.7889 291.4853 L 473.465 290.6542 L 474.2597 290.9765 L 474.4902 292.459 L 475.4806 293.5554 L 475.7571 294.4311 L 474.9513 295.7193 L 475.3887 296.6484 L 477.0595 297.8052 L 479.4495 297.9646 L 481.391 296.2815 L 482.7387 293.1929 L 483.3376 290.2715 L 484.0634 289.0079 L 485.7973 288.7592 L 486.8974 287.3134 L 486.0738 285.7608 L 486.2524 284.428 L 485.7802 284.1434 L 486.2695 282.1994 L 486.8914 281.0259 L 489.0916 278.9768 L 489.1842 278.003 L 492.0524 275.3146 L 493.2333 273.3136 L 493.0316 272.5483 L 490.8255 271.493 L 490.2554 272.1165 L 489.2243 268.429 L 489.7944 267.5375 L 491.8856 268.3397 L 493.2044 268.246 L 493.2562 266.9666 L 494.4141 263.0478 L 494.2532 261.2027 L 493.2851 260.6317 L 494.6328 257.1 L 494.7655 256.086 L 494.3971 252.2977 L 493.228 251.4754 L 492.8359 250.5262 L 492.9456 248.9088 L 495.0939 246.4769 L 496.1881 245.8578 L 497.2711 244.2001 L 498.9531 244.4444 L 499.4601 245.4997 L 500.3987 245.0233 L 501.1881 241.2026 L 500.7908 240.5143 L 500.5202 236.6209 L 500.7849 234.6252 L 500.75 232.0962 L 501.4587 230.6014 L 502.6048 229.7949 L 503.0658 228.3333 L 505.3987 226.7203 L 505.0821 224.7412 L 505.3238 223.3523 L 503.8264 221.4346 L 502.8872 219.7033 L 500.8427 218.9099 L 500.5773 217.7811 L 501.1481 216.9186 L 501.24 215.4404 L 501.9946 213.9456 L 501.4994 213.0742 L 498.7173 211.8159 L 498.4349 213.0129 L 497.8129 213.1636 L 497.1444 209.5846 L 497.6113 209.4953 L 499.4194 207.736 L 498.8093 206.5144 L 497.9739 206.0914 L 496.7529 206.5468 L 494.9323 204.8287 L 495.8026 201.1481 L 495.3645 200.3784 L 493.8092 200.346 L 493.1932 201.0054 L 492.208 200.3661 L 490.1116 201.2865 L 487.2888 202.1981 L 486.5289 202.0439 L 485.2672 200.7978 L 484.288 201.2821 L 483.3146 200.7041 L 483.4296 198.4159 L 484.0864 197.7442 L 486.01 198.2084 L 486.9611 197.5568 L 487.2257 196.2293 L 485.7454 194.1127 L 484.749 194.0146 L 483.9025 193.315 L 483.712 191.7632 L 483.0782 191.039 L 482.514 191.5679 L 482.6927 193.0172 L 483.3435 194.8212 L 483.0033 195.1872 L 481.7193 193.9577 L 481.6326 193.2002 L 481.984 190.3183 L 481.5348 188.5468 L 484.1093 188.0792 L 485.4689 186.227 L 485.7684 184.9363 L 488.5275 182.7908 L 490.6876 182.9458 L 492.9049 182.8398 L 493.89 181.2557 L 496.7069 180.507 L 497.2021 179.9781 L 499.8575 179.2451 L 501.7759 176.7494 L 502.5476 173.8061 L 503.6477 171.0424 L 502.8872 170.0616 L 505.3757 163.5202 L 506.9599 162.1077 L 508.6011 163.0806 L 510.6404 161.0008 L 511.0319 159.104 L 512.0571 158.3062 L 513.3765 158.5015 L 514.2809 159.3404 L 514.1082 161.1234 L 514.321 162.401 L 515.9682 164.078 L 516.487 166.0071 L 516.9363 169.6667 L 517.5411 171.9383 L 517.3047 175.5978 L 518.0364 176.4359 L 521.3307 177.2301 L 522.9727 177.971 L 523.7332 177.4902 L 524.9883 178.4841 L 525.6911 181.2312 L 528.2203 184.9161 L 528.4732 186.3567 L 529.4005 186.7358 L 530.1322 186.4057 L 530.8697 185.2533 L 533.4154 185.3837 L 535.4488 186.2594 L 537.2116 183.9099 L 537.6667 183.7838 L 540.6215 179.9903 L 539.861 178.1093 L 540.0685 177.2178 L 544.0374 175.5321 L 544.9989 174.4375 L 544.993 172.532 L 547.3837 171.2465 L 549.5267 168.2139 L 549.4519 166.1455 L 550.8055 163.0648 L 552.1762 163.9965 L 555.2807 162.7714 L 556.0354 163.7076 L 557.4002 164.7094 L 557.0488 167.3014 L 557.8093 167.8557 L 559.8026 168.2664 L 564.295 168.8041 L 564.7961 168.0221 L 566.2594 167.1753 L 568.103 167.1718 L 569.318 168.3155 L 569.3699 169.8051 L 570.2802 170.1755 L 571.5871 169.0642 L 572.7628 166.2147 L 572.9644 164.5544 L 574.3463 164.599 L 576.5813 166.0684 L 578.8452 165.6814 L 580.032 164.7374 L 580.8207 162.1812 L 583.966 162.4299 L 585.2908 161.9938 L 588.0958 161.6321 L 589.1152 162.7066 L 590.5495 162.8485 L 592.2197 162.2504 L 593.4814 164.5587 L 595.6934 164.4974 L 595.8313 166.2839 L 595.4747 167.0168 L 594.4028 167.7331 L 593.6252 171.0547 L 594.0922 172.4348 L 594.7431 172.7238 L 594.904 174.3841 L 594.8291 177.0795 L 594.3569 179.3265 L 592.4391 180.4746 L 591.3153 180.6944 L 590.5266 181.4799 L 589.8468 182.9046 L 588.8564 183.9266 L 588.7638 184.5737 L 589.7949 186.4871 L 589.9335 187.9732 L 591.1833 189.6467 L 592.1967 190.0696 L 593.9076 189.1046 L 596.3154 189.4347 L 597.0411 190.4523 L 597.8877 192.8018 L 597.7038 194.1206 L 597.9396 197.6917 L 597.4155 200.2523 Z M 586.5866 324.9834 L 586.9839 323.1541 L 588.6318 322.1391 L 589.2248 322.1514 L 589.5184 320.5778 L 590.3131 319.9096 L 589.8928 318.047 L 591.0566 317.6801 L 592.0818 318.4708 L 594.1782 317.8999 L 594.8061 320.0234 L 594.9736 321.8291 L 596.3554 322.4448 L 596.4999 321.5848 L 598.5964 324.2294 L 600.0367 324.6533 L 600.8084 325.5911 L 602.1101 325.0281 L 603.5964 326.0194 L 604.7136 324.8818 L 604.3793 320.0602 L 604.9263 319.6443 L 605.3414 317.6232 L 605.128 316.7711 L 607.4037 317.533 L 608.0887 316.6774 L 609.5119 317.2562 L 610.2718 316.8937 L 610.0242 314.8962 L 608.9701 314.489 L 610.0879 312.1334 L 609.9494 311.6202 L 608.1353 311.2656 L 607.6165 310.1202 L 608.5038 308.5264 L 609.9664 307.3127 L 610.4965 306.4808 L 611.2971 306.9291 L 612.1903 309.2646 L 613.9064 311.1027 L 613.9872 312.0808 L 615.0183 311.9705 L 616.8613 312.8707 L 617.7315 312.4346 L 619.0391 313.5231 L 619.868 313.0178 L 619.4247 310.3443 L 619.7071 308.5798 L 622.7249 307.712 L 623.6871 306.9948 L 624.3551 305.8739 L 626.8554 304.4964 L 628.2031 304.4684 L 629.1994 303.5226 L 629.4878 302.7441 L 630.8584 302.3693 L 631.3655 302.9762 L 632.2699 302.8545 L 633.2202 301.9008 L 631.4285 299.7492 L 632.5175 299.5618 L 633.5079 301.1915 L 634.476 299.8552 L 634.4241 298.6003 L 635.5583 297.842 L 638.3982 298.4944 L 638.8652 298.9786 L 639.4931 297.6257 L 640.3278 297.4716 L 640.2129 296.6274 L 641.5547 295.6746 L 642.7126 295.6256 L 644.0721 294.4031 L 645.4599 292.0352 L 646.6407 290.7768 L 647.4361 292.0807 L 648.703 291.3793 L 649.878 291.3671 L 650.6155 290.6665 L 653.5244 289.8311 L 657.6483 288.3275 L 659.1175 288.2461 L 659.5897 287.4719 L 659.5838 286.2661 L 660.5801 284.8238 L 661.5364 284.1714 L 663.4548 284.3798 L 664.6817 284.9175 L 665.9834 286.0743 L 670.3148 286.2048 L 671.8642 286.6488 L 673.4253 287.4352 L 673.9842 288.8652 L 677.7568 291.318 L 679.1104 290.2873 L 679.6982 288.5718 L 680.3602 285.6671 L 681.593 285.6916 L 683.914 284.8807 L 685.0259 284.9499 L 686.9155 284.3019 L 688.384 284.4122 L 689.0349 285.1575 L 691.0853 284.8886 L 694.7318 285.0883 L 695.9698 285.4753 L 698.1818 287.7285 L 699.2589 287.9326 L 701.6496 292.2392 L 700.1922 294.1465 L 700.1633 296.0205 L 701.3212 296.905 L 702.1448 296.8358 L 711.7009 295.3567 L 722.2414 296.2 L 727.0799 296.2123 L 735.3802 294.876 L 742.5863 292.1701 L 744.8443 291.5877 L 753.5939 292.769 L 757.2285 294.5336 L 759.7052 297.0311 L 760.8631 300.2668 L 761.2486 304.1584 L 760.8631 307.761 L 759.872 311.5055 L 758.167 314.9619 L 755.0276 322.3423 L 753.2077 326.8951 L 749.0779 334.1669 L 746.8777 336.3675 L 743.4099 339.4491 L 739.6138 343.0815 L 734.9947 350.8595 L 732.4661 355.8457 L 730.922 360.106 L 730.813 366.1273 L 731.3653 368.9243 L 733.1222 373.1898 L 734.885 376.7162 L 736.8606 379.8075 L 739.7753 382.3846 L 741.3188 384.2236 L 743.7383 386.0626 L 746.9867 387.7588 L 751.0016 389.4515 L 754.6362 390.5567 L 757.3894 390.9963 L 761.1915 391.4008 L 763.9965 391.4735 L 767.3605 393.4561 L 768.5178 395.5114 L 769.6757 398.8881 L 770.6667 403.003 L 771.5475 406.0128 L 773.973 411.1523 L 775.5742 415.557 L 776.4556 421.0678 L 776.5074 425.3263 L 776.0694 430.3966 L 774.7447 434.4354 L 770.4993 442.7046 L 768.6793 445.4989 L 765.3213 448.7347 L 755.955 453.1412 L 748.2425 456.2954 L 735.7605 460.645 L 733.4217 461.0811 L 730.945 461.11 L 728.3067 461.3999 L 725.836 462.2765 L 724.4653 463.0033 L 722.6217 465.88 L 721.6313 467.9729 L 720.4274 471.5317 L 717.9277 477.4523 L 715.3466 481.0445 L 712.709 483.1619 L 708.838 485.0394 L 703.7289 486.0473 L 696.7014 486.7943 L 692.6406 485.6025 L 688.3032 483.8196 L 685.4463 482.3414 L 682.4337 479.6854 L 679.1912 474.2368 L 676.8294 468.7934 L 675.349 464.0883 L 672.2156 445.8212 L 671.2304 440.5302 L 671.1785 437.2989 L 672.3824 426.3176 L 673.4312 421.1816 L 673.8109 416.8496 L 673.7018 413.542 L 672.6076 409.4998 L 670.8508 403.7981 L 668.8115 399.8995 L 664.5838 393.57 L 658.7661 386.1318 L 655.6898 383.1833 L 652.5563 380.4599 L 650.8513 378.176 L 649.256 374.6855 L 648.4324 370.9384 L 647.4991 365.7201 L 646.6178 359.9913 L 644.3079 355.2502 L 641.2782 351.793 L 637.0446 348.1894 L 633.3581 345.8373 L 629.4989 344.1455 L 627.2409 343.3381 L 625.3691 342.9344 L 619.1422 342.8696 L 614.5691 344.1253 L 609.9382 346.6281 L 602.8818 351.2308 L 599.8692 352.8166 L 595.9292 354.1862 L 593.9713 348.0546 L 593.752 345.5764 L 593.9195 343.1708 L 592.5429 342.4738 L 590.6934 342.9309 L 589.812 343.8031 L 586.5058 343.3591 L 585.5213 342.4011 L 585.7052 340.3055 L 588.7756 333.7185 L 588.8616 332.9321 L 588.3434 330.869 L 589.19 329.826 L 588.5569 328.2848 L 587.906 327.6814 L 587.3353 326.092 L 586.5866 324.9834 Z"/>
<path  id="_u76d0__u7530__u533a_" title="盐田区" name="盐田区" stroke-miterlimit="10" stroke="#FFFFFF" fill="#D3D3D3" d="M 496.9946 385.8051 L 497.3348 383.8646 L 497.9108 383.4407 L 499.6618 380.896 L 499.7426 378.6936 L 497.5883 373.597 L 497.5706 371.7545 L 498.9301 370.7186 L 500.0361 369.4549 L 502.7263 368.3822 L 504.2986 368.3288 L 506.5507 367.1878 L 508.2156 364.5493 L 507.547 362.7637 L 507.4262 361.2715 L 507.9161 361.5045 L 509.7419 359.6813 L 511.1875 359.0656 L 511.464 357.8186 L 513.1572 354.3903 L 514.1082 353.5382 L 514.5108 350.9251 L 515.0408 349.9627 L 515.2713 346.7586 L 516.7688 344.7979 L 516.8844 343.9861 L 517.9037 343.3223 L 518.4107 342.1559 L 517.9845 339.2372 L 517.5004 338.5366 L 517.9267 337.2283 L 521.9245 331.7377 L 523.6636 331.3664 L 524.7814 329.6754 L 527.2982 327.7226 L 528.548 327.6123 L 531.1114 327.8329 L 534.4354 328.9127 L 536.4687 327.5396 L 538.0003 325.6848 L 538.663 322.4325 L 538.5711 320.6513 L 537.027 319.0085 L 536.5436 318.0917 L 533.6577 315.504 L 533.8876 312.5248 L 533.1737 309.7042 L 534.0722 308.2251 L 534.7289 304.1216 L 535.4258 302.8335 L 536.2264 302.5734 L 537.3495 301.1836 L 540.9381 298.2982 L 543.8818 300.6582 L 544.0197 301.8273 L 544.8262 304.4798 L 545.546 305.3152 L 547.758 307.1253 L 547.7121 307.8092 L 548.3859 309.0728 L 549.8492 309.2646 L 551.5135 309.9617 L 556.6055 310.2918 L 557.7056 310.6745 L 559.0073 315.736 L 563.9495 318.7195 L 565.2801 319.2896 L 567.4633 320.8265 L 567.7279 322.5297 L 569.6924 324.1278 L 571.8925 324.0867 L 572.8777 323.8345 L 573.212 322.8117 L 574.4907 322.9422 L 575.2736 323.6716 L 575.7288 324.796 L 576.4144 325.2566 L 579.4501 325.4116 L 580.1298 324.9387 L 581.6962 322.6812 L 583.9082 322.7661 L 586.5866 324.9834 L 587.3353 326.092 L 587.906 327.6814 L 588.5569 328.2848 L 589.19 329.826 L 588.3434 330.869 L 588.8616 332.9321 L 588.7756 333.7185 L 585.7052 340.3055 L 585.5213 342.4011 L 586.5058 343.3591 L 589.812 343.8031 L 590.6934 342.9309 L 592.5429 342.4738 L 593.9195 343.1708 L 593.752 345.5764 L 593.9713 348.0546 L 595.9292 354.1862 L 591.6496 355.3518 L 589.2826 355.6495 L 585.141 355.6618 L 580.8956 355.16 L 577.4167 355.3886 L 575.3203 356.4937 L 571.8696 361.0272 L 568.5634 364.1701 L 567.2327 366.348 L 566.2423 368.933 L 565.1015 371.2606 L 563.9672 372.8308 L 561.2311 373.8991 L 559.8256 374.6575 L 557.2044 377.1935 L 555.8048 377.8538 L 554.2036 378.0088 L 552.1184 377.8582 L 548.2881 377.9641 L 544.6075 378.4738 L 535.2012 380.8224 L 533.7379 381.4993 L 528.1507 386.3481 L 520.0579 395.4089 L 518.4048 396.9143 L 516.487 397.9414 L 515.6398 397.2523 L 515.1387 395.3152 L 515.4382 394.6996 L 515.3061 392.7792 L 514.1423 390.9849 L 512.3796 390.132 L 512.0229 388.9778 L 510.3928 386.8043 L 509.5055 386.6983 L 508.7049 387.5303 L 506.5967 387.5145 L 505.5544 386.0179 L 504.627 385.7403 L 503.3883 386.0503 L 502.2193 385.8708 L 499.5751 386.0871 L 499.1488 385.2018 L 496.9946 385.8051 Z"/>
<path  id="_u9f99__u534e__u533a_" title="龙华区" name="龙华区" stroke-miterlimit="10" stroke="#FFFFFF" fill="#D3D3D3" d="M 438.2021 239.4512 L 435.6098 242.6239 L 435.5179 245.5119 L 433.9626 247.512 L 433.692 249.2879 L 432.4474 250.6934 L 432.079 253.0272 L 429.9537 253.7925 L 428.6631 253.7925 L 427.632 254.3179 L 425.1152 257.7113 L 425.4607 261.4593 L 425.4147 262.9418 L 426.4281 263.7238 L 426.9811 264.7913 L 428.4556 266.5226 L 429.5675 266.6609 L 430.6794 267.6426 L 430.1605 268.2048 L 427.5801 268.5682 L 427.2287 268.8327 L 426.2324 271.1874 L 426.3302 272.3039 L 429.1701 279.0582 L 429.4985 279.4497 L 429.4466 282.1792 L 429.821 285.3247 L 428.3695 285.9806 L 426.1746 288.0753 L 424.5734 289.9169 L 424.0381 291.6201 L 422.3384 293.8812 L 420.1671 292.6219 L 419.7237 291.1148 L 419.8045 289.9169 L 418.4562 288.9878 L 417.9669 288.12 L 417.1433 285.6058 L 417.2063 284.4446 L 416.5555 283.9113 L 416.5325 282.7782 L 415.8415 281.6783 L 415.4495 280.3096 L 413.6466 279.5512 L 412.3679 281.124 L 411.4116 281.4007 L 409.2692 279.7877 L 408.376 281.7799 L 405.5427 285.1496 L 402.9904 288.8985 L 401.5849 287.9939 L 399.4018 287.5534 L 399.3329 288.6252 L 399.7532 289.5579 L 400.8592 290.5772 L 400.5367 292.537 L 399.5522 293.3111 L 399.8458 302.4832 L 397.3284 301.4569 L 396.7353 304.1339 L 398.8147 303.9465 L 399.9837 304.8712 L 400.4848 308.3635 L 399.6094 309.1954 L 399.3329 310.2095 L 400.6405 313.4539 L 400.4277 314.8148 L 398.0948 314.2692 L 397.997 316.8035 L 398.636 317.1949 L 398.573 319.6162 L 397.5471 320.0926 L 397.2423 322.0778 L 399.235 323.6874 L 398.3943 324.2864 L 399.3217 325.5622 L 400.1223 325.571 L 400.7613 326.924 L 400.5945 329.9075 L 402.0401 330.319 L 402.1038 335.3403 L 402.4952 336.2046 L 402.9615 339.1312 L 402.8354 340.3178 L 401.9422 342.874 L 403.4285 344.219 L 403.7392 347.0931 L 404.8051 349.2245 L 405.4159 348.4092 L 404.3729 346.5379 L 405.4212 346.0571 L 405.8362 347.1701 L 406.8037 348.3935 L 408.1862 347.9609 L 409.6784 349.3673 L 410.7666 351.7886 L 410.2366 352.8648 L 408.6643 354.5899 L 408.2729 355.7555 L 407.3737 356.1513 L 407.2936 357.9859 L 404.5457 357.2801 L 402.7547 356.3553 L 401.6486 357.3536 L 399.6323 358.3195 L 399.0452 358.9028 L 398.9066 360.9948 L 398.2676 361.4221 L 394.9555 360.8433 L 393.5099 359.3065 L 390.739 359.5306 L 388.8382 360.3503 L 386.2749 360.6524 L 383.6602 362.4581 L 382.1799 361.6752 L 379.1902 361.508 L 379.4726 360.8433 L 380.3074 356.4814 L 381.0968 353.9454 L 380.8492 352.4979 L 379.4437 351.2632 L 378.9886 349.6895 L 379.2763 347.9285 L 378.9715 345.4862 L 378.1302 343.3749 L 377.4334 343.8074 L 374.6861 343.1384 L 374.0923 341.6261 L 373.1821 340.4194 L 372.1916 339.992 L 369.8529 335.7317 L 369.5245 331.5091 L 368.2227 328.7008 L 367.3932 328.7174 L 366.5815 327.7103 L 366.3339 326.614 L 365.5904 325.9782 L 364.8876 322.9176 L 363.2234 323.4632 L 361.4895 322.1146 L 360.3664 322.2241 L 359.6577 322.8152 L 358.7882 319.343 L 358.7593 318.1039 L 357.9817 317.4603 L 357.1692 315.6257 L 356.4435 314.8025 L 354.5257 313.5187 L 352.9875 313.552 L 352.0024 312.777 L 349.5946 313.0581 L 348.109 312.7893 L 347.1528 313.8042 L 345.0097 311.8891 L 344.0712 309.9406 L 342.3721 310.0431 L 341.8303 309.6762 L 341.894 308.3635 L 343.2128 306.6603 L 342.6309 302.6303 L 342.1297 300.9673 L 342.3951 299.1827 L 343.4374 299.2518 L 344.3129 298.384 L 344.3418 296.4076 L 345.7762 295.1238 L 345.413 294.256 L 346.2313 291.9336 L 345.8911 290.5115 L 346.2884 289.1918 L 344.9348 287.1138 L 344.0304 284.5462 L 342.7635 283.4385 L 342.5967 282.0855 L 342.0838 281.5277 L 343.0459 279.7264 L 343.2995 278.3051 L 344.5086 277.4373 L 343.9037 276.5038 L 345.6665 275.0782 L 347.049 275.009 L 346.8244 273.1385 L 347.7399 271.1261 L 347.6421 269.8432 L 346.5998 270.0184 L 346.9912 268.3721 L 347.5731 267.3133 L 346.8933 266.0663 L 347.8207 264.9542 L 347.0201 263.793 L 347.6138 263.3534 L 348.5294 263.6389 L 349.4856 263.3779 L 349.6584 262.1966 L 347.9645 262.0583 L 347.7399 261.2596 L 349.2032 260.0818 L 349.4856 261.158 L 350.6718 260.9496 L 350.4708 258.7989 L 349.8252 258.9373 L 349.3181 257.8987 L 347.3426 258.2779 L 347.1757 257.516 L 348.5005 257.4836 L 347.9074 256.685 L 348.2758 256.0939 L 347.8496 255.4021 L 346.4441 256.1639 L 346.5249 254.9169 L 347.625 254.6726 L 348.2469 251.035 L 349.4278 248.7459 L 349.2032 247.1863 L 348.8118 246.7011 L 350.2114 245.5286 L 351.7088 243.0766 L 352.3767 243.4628 L 353.31 242.7867 L 354.4567 241.3497 L 355.3664 239.4065 L 355.8964 237.4721 L 357.6244 236.3477 L 357.9468 235.4151 L 359.0988 234.2671 L 360.8964 231.7135 L 361.7141 231.3177 L 363.5288 228.7729 L 365.262 227.4655 L 366.0226 225.877 L 367.1804 225.3603 L 367.8024 226.37 L 369.4962 226.5084 L 369.225 226.1458 L 369.3347 223.8655 L 369.7898 222.8926 L 369.5711 219.3206 L 368.4362 218.2129 L 367.8024 217.134 L 366.2071 215.2364 L 367.7965 213.3799 L 366.8402 212.3535 L 366.5066 213.7993 L 364.3235 212.5453 L 363.4999 210.8106 L 362.2211 210.4638 L 361.5296 211.1565 L 360.2797 210.8062 L 359.531 211.0461 L 358.7074 210.5986 L 359.3005 208.9821 L 359.0128 207.3288 L 359.5599 206.144 L 361.4895 206.5836 L 362.7682 204.5195 L 363.8224 203.5221 L 365.3776 202.7235 L 365.5155 202.1578 L 367.0478 201.677 L 368.0618 201.7138 L 368.7987 203.3995 L 369.4962 204.1325 L 370.9759 203.4319 L 372.2376 203.8146 L 373.2339 204.8698 L 375.4919 205.1141 L 376.1717 204.0957 L 378.5046 203.7375 L 380.7225 202.1823 L 380.9011 200.5614 L 381.4712 199.6051 L 382.2311 200.0079 L 382.8997 201.0378 L 384.1095 201.6078 L 384.8523 199.817 L 386.8738 199.4055 L 387.4905 200.9686 L 388.5788 201.5877 L 389.9154 201.5754 L 391.3038 199.479 L 393.014 198.6848 L 393.5959 196.7547 L 394.3965 195.4114 L 395.6812 194.9753 L 396.4299 195.5375 L 396.47 197.0113 L 395.739 197.9194 L 396.0437 200.0403 L 397.0637 200.8714 L 398.037 202.4511 L 397.8183 204.5353 L 396.4187 205.5537 L 395.716 206.926 L 395.6411 207.919 L 396.3609 208.5057 L 398.8777 209.1038 L 399.1371 208.5504 L 400.848 208.2369 L 401.2743 209.7431 L 402.4552 210.6923 L 403.1001 209.6371 L 405.41 208.835 L 406.1587 208.9129 L 406.1876 211.9954 L 405.5249 212.907 L 405.4041 214.4544 L 407.2187 215.8511 L 409.0676 214.3817 L 410.2425 214.8493 L 411.2908 217.24 L 411.3545 220.8312 L 412.8808 222.0616 L 413.5087 220.84 L 415.9565 218.1769 L 417.1026 217.5902 L 416.9817 216.1856 L 419.1766 213.5874 L 420.5644 215.07 L 422.8224 214.4832 L 424.7119 215.8187 L 423.9685 216.7391 L 424.2686 217.5412 L 426.9121 217.2111 L 428.4155 216.5438 L 428.6001 218.205 L 428.1738 220.0947 L 429.6075 221.7235 L 430.1034 224.757 L 429.9648 225.8691 L 429.0316 226.6511 L 431.2895 230.3895 L 432.1828 230.1495 L 432.8566 230.752 L 434.1413 237.7243 L 436.3415 238.2252 L 437.148 239.0974 L 438.2021 239.4512 Z"/>
<path  id="_u576a__u5c71__u533a_" title="坪山区" name="坪山区" stroke-miterlimit="10" stroke="#FFFFFF" fill="#D3D3D3" d="M 597.4155 200.2523 L 597.5363 201.0299 L 599.3221 202.0238 L 601.2865 201.6525 L 603.884 200.0202 L 605.526 200.1752 L 606.2458 201.2497 L 608.1866 202.1867 L 611.1073 203.0335 L 613.0828 204.4539 L 613.6759 205.1465 L 615.5773 205.6509 L 617.4721 205.6798 L 618.647 207.7649 L 619.7701 207.5162 L 623.0652 205.5126 L 623.9117 200.3538 L 623.4566 197.7609 L 623.255 195.2529 L 623.4796 195.0655 L 624.0444 190.1589 L 626.0318 188.8156 L 627.2298 188.299 L 629.5337 186.6544 L 630.2943 187.1833 L 630.9333 188.6974 L 632.2469 189.5897 L 633.4737 189.6712 L 634.0898 190.6887 L 634.5797 192.4191 L 635.6161 193.3631 L 636.0831 194.3973 L 636.3189 197.2031 L 638.416 199.7067 L 638.0757 200.8267 L 639.032 204.6535 L 639.4294 203.6158 L 640.4145 203.326 L 641.2959 204.0432 L 641.4397 205.0809 L 640.1091 205.4522 L 640.3968 206.3638 L 639.5101 206.8892 L 638.2196 207.0442 L 637.9549 207.6834 L 639.9193 208.0784 L 640.138 209.0066 L 639.9475 210.6801 L 638.5191 211.6285 L 635.7836 211.9954 L 635.8926 214.4544 L 636.2269 216.4133 L 636.7799 217.6883 L 636.9119 219.0439 L 636.3937 220.9538 L 635.5931 222.6964 L 635.1728 224.2771 L 635.599 226.1257 L 634.7525 226.8061 L 633.9748 228.3902 L 631.3885 230.6382 L 630.7488 233.6269 L 631.0483 235.3582 L 630.0119 235.2689 L 628.6983 236.8977 L 628.7903 238.0702 L 629.6717 239.0641 L 631.3136 242.221 L 631.5211 243.7483 L 632.5175 245.9804 L 631.5441 248.0374 L 634.3262 247.8176 L 635.5412 246.9945 L 637.2232 246.8561 L 637.6666 247.667 L 639.0031 246.9253 L 639.9705 245.5934 L 640.714 247.6504 L 641.5435 248.9989 L 642.9602 250.0743 L 642.1254 251.6296 L 642.2003 255.0229 L 643.7785 257.9276 L 646.468 257.3242 L 648.6682 258.0335 L 650.2872 259.6501 L 651.5541 260.4119 L 652.8157 260.6563 L 654.0367 259.9969 L 654.3421 261.5039 L 655.8862 264.4857 L 656.2375 267.513 L 655.9091 268.6496 L 653.5874 273.4642 L 650.6326 274.3119 L 650.4999 275.2857 L 648.8587 276.9968 L 647.0729 277.7832 L 646.2092 277.7018 L 644.9587 278.2272 L 644.7978 279.2053 L 645.2819 280.6844 L 645.207 282.0163 L 645.8979 285.2231 L 646.7274 286.1435 L 647.2804 286.0708 L 647.6778 288.0341 L 647.3093 289.7943 L 646.6407 290.7768 L 645.4599 292.0352 L 644.0721 294.4031 L 642.7126 295.6256 L 641.5547 295.6746 L 640.2129 296.6274 L 640.3278 297.4716 L 639.4931 297.6257 L 638.8652 298.9786 L 638.3982 298.4944 L 635.5583 297.842 L 634.4241 298.6003 L 634.476 299.8552 L 633.5079 301.1915 L 632.5175 299.5618 L 631.4285 299.7492 L 633.2202 301.9008 L 632.2699 302.8545 L 631.3655 302.9762 L 630.8584 302.3693 L 629.4878 302.7441 L 629.1994 303.5226 L 628.2031 304.4684 L 626.8554 304.4964 L 624.3551 305.8739 L 623.6871 306.9948 L 622.7249 307.712 L 619.7071 308.5798 L 619.4247 310.3443 L 619.868 313.0178 L 619.0391 313.5231 L 617.7315 312.4346 L 616.8613 312.8707 L 615.0183 311.9705 L 613.9872 312.0808 L 613.9064 311.1027 L 612.1903 309.2646 L 611.2971 306.9291 L 610.4965 306.4808 L 609.9664 307.3127 L 608.5038 308.5264 L 607.6165 310.1202 L 608.1353 311.2656 L 609.9494 311.6202 L 610.0879 312.1334 L 608.9701 314.489 L 610.0242 314.8962 L 610.2718 316.8937 L 609.5119 317.2562 L 608.0887 316.6774 L 607.4037 317.533 L 605.128 316.7711 L 605.3414 317.6232 L 604.9263 319.6443 L 604.3793 320.0602 L 604.7136 324.8818 L 603.5964 326.0194 L 602.1101 325.0281 L 600.8084 325.5911 L 600.0367 324.6533 L 598.5964 324.2294 L 596.4999 321.5848 L 596.3554 322.4448 L 594.9736 321.8291 L 594.8061 320.0234 L 594.1782 317.8999 L 592.0818 318.4708 L 591.0566 317.6801 L 589.8928 318.047 L 590.3131 319.9096 L 589.5184 320.5778 L 589.2248 322.1514 L 588.6318 322.1391 L 586.9839 323.1541 L 586.5866 324.9834 L 583.9082 322.7661 L 581.6962 322.6812 L 580.1298 324.9387 L 579.4501 325.4116 L 576.4144 325.2566 L 575.7288 324.796 L 575.2736 323.6716 L 574.4907 322.9422 L 573.212 322.8117 L 572.8777 323.8345 L 571.8925 324.0867 L 569.6924 324.1278 L 567.7279 322.5297 L 567.4633 320.8265 L 565.2801 319.2896 L 563.9495 318.7195 L 559.0073 315.736 L 557.7056 310.6745 L 556.6055 310.2918 L 551.5135 309.9617 L 549.8492 309.2646 L 548.3859 309.0728 L 547.7121 307.8092 L 547.758 307.1253 L 545.546 305.3152 L 544.8262 304.4798 L 544.0197 301.8273 L 543.8818 300.6582 L 540.9381 298.2982 L 539.3599 295.0546 L 539.5155 292.4345 L 539.1063 291.1184 L 539.769 288.8205 L 540.5756 288.2907 L 541.0478 287.1217 L 541.8884 286.8283 L 541.583 285.7118 L 542.6661 284.2818 L 542.3495 283.597 L 543.2769 281.0837 L 545.1257 280.5942 L 545.506 279.9225 L 548.4779 279.2088 L 549.7225 279.4173 L 550.1487 278.1869 L 550.9835 277.0581 L 551.5654 276.9233 L 552.6543 277.6002 L 554.048 277.9181 L 554.5668 277.4732 L 555.1021 275.7095 L 556.7782 273.9739 L 558.9442 274.7883 L 560.1192 274.3119 L 562.1467 271.5456 L 562.3654 270.2706 L 567.5381 270.3073 L 571.3514 269.5499 L 572.9756 265.5821 L 575.8036 268.0708 L 575.5968 265.0602 L 576.2069 257.5116 L 574.3121 255.8294 L 574.8073 254.7374 L 576.0631 255.7033 L 576.6102 254.8276 L 576.4834 253.874 L 577.8889 254.1305 L 578.4071 253.3976 L 579.2254 253.9799 L 579.7896 251.3774 L 579.6628 248.6198 L 582.6525 248.0821 L 584.4842 248.0296 L 585.4175 247.5199 L 588.1017 244.4409 L 588.2397 240.9215 L 587.353 238.7104 L 587.1514 236.649 L 587.7215 232.2424 L 587.6295 228.1783 L 586.4598 227.3797 L 586.1492 226.3376 L 586.4257 221.9722 L 586.9839 221.5729 L 587.3931 219.3898 L 587.0995 217.183 L 585.7341 217.24 L 585.3196 216.3485 L 586.4427 214.2389 L 587.4909 210.4069 L 587.9343 209.7764 L 588.6029 210.1424 L 589.15 209.4988 L 590.1463 209.5355 L 589.9617 206.6037 L 591.0566 205.517 L 590.763 204.8978 L 591.961 204.34 L 592.3235 201.4739 L 592.1915 200.6962 L 593.0203 198.4037 L 594.0515 197.5122 L 595.0485 198.0945 L 595.8891 200.0771 L 597.4155 200.2523 Z"/>
<path  id="_u5149__u660e__u533a_" title="光明区" name="光明区" stroke-miterlimit="10" stroke="#FFFFFF" fill="#D3D3D3" d="M 305.2656 144.0332 L 307.4487 143.9316 L 308.2723 144.8721 L 309.0789 143.8099 L 311.6304 142.8773 L 314.1761 143.5209 L 317.4363 142.2669 L 318.6172 142.3449 L 322.9086 141.6531 L 322.6091 143.0524 L 323.7959 143.4351 L 324.1873 144.6401 L 326.157 145.063 L 327.0331 146.0438 L 328.8701 146.2268 L 329.5151 146.7768 L 329.6136 148.2698 L 331.2378 150.4144 L 332.6085 150.8663 L 333.9621 151.8804 L 334.5729 153.0967 L 333.8472 154.1064 L 333.9792 155.6205 L 334.4691 155.6082 L 334.1808 157.1179 L 335.4884 158.0339 L 335.736 157.4481 L 336.7501 157.8141 L 336.8598 158.5549 L 338.3914 158.5917 L 340.6034 156.4217 L 340.874 157.2405 L 340.6724 158.5506 L 341.4848 159.414 L 343.1031 159.6329 L 343.4663 159.0103 L 345.5857 159.3527 L 346.496 160.9071 L 347.8036 161.1759 L 348.6213 162.3318 L 348.754 163.8415 L 349.5605 164.5946 L 348.0972 165.3399 L 346.8014 165.5351 L 345.834 166.9476 L 345.5338 168.3234 L 346.0986 170.0538 L 347.3255 171.665 L 347.8266 170.9855 L 347.2795 169.0931 L 347.9704 168.9337 L 348.1609 170.0739 L 349.1454 169.6054 L 348.9845 171.2132 L 349.7332 170.2771 L 349.5605 169.4916 L 350.5739 169.5809 L 351.9393 168.5432 L 352.2677 167.896 L 353.6272 167.1841 L 353.2989 169.6378 L 351.3515 169.524 L 351.2195 170.5336 L 353.5465 170.0415 L 357.7452 170.1186 L 357.9468 174.1529 L 357.8089 175.512 L 359.0647 179.9614 L 358.8282 180.9545 L 359.7674 183.9099 L 359.9054 185.6771 L 361.5762 189.4023 L 361.6911 190.2938 L 362.7163 190.8315 L 362.918 192.92 L 360.6771 195.4438 L 361.3168 197.8625 L 364.0759 199.0841 L 365.5155 202.1578 L 365.3776 202.7235 L 363.8224 203.5221 L 362.7682 204.5195 L 361.4895 206.5836 L 359.5599 206.144 L 359.0128 207.3288 L 359.3005 208.9821 L 358.7074 210.5986 L 359.531 211.0461 L 360.2797 210.8062 L 361.5296 211.1565 L 362.2211 210.4638 L 363.4999 210.8106 L 364.3235 212.5453 L 366.5066 213.7993 L 366.8402 212.3535 L 367.7965 213.3799 L 366.2071 215.2364 L 367.8024 217.134 L 368.4362 218.2129 L 369.5711 219.3206 L 369.7898 222.8926 L 369.3347 223.8655 L 369.225 226.1458 L 369.4962 226.5084 L 367.8024 226.37 L 367.1804 225.3603 L 366.0226 225.877 L 365.262 227.4655 L 363.5288 228.7729 L 361.7141 231.3177 L 360.8964 231.7135 L 359.0988 234.2671 L 357.9468 235.4151 L 357.6244 236.3477 L 355.8964 237.4721 L 355.3664 239.4065 L 354.4567 241.3497 L 353.31 242.7867 L 352.3767 243.4628 L 351.7088 243.0766 L 350.2114 245.5286 L 348.8118 246.7011 L 347.1468 247.8089 L 346.6398 247.4998 L 345.3729 247.984 L 344.215 249.0226 L 343.0282 248.2248 L 342.6368 247.0479 L 341.2024 246.7703 L 339.9295 245.8333 L 339.2846 244.3429 L 338.5529 244.2413 L 338.2935 245.4506 L 337.3951 245.3123 L 337.1993 244.1721 L 336.6634 243.8218 L 336.1281 242.123 L 335.2238 241.362 L 334.6878 243.0276 L 333.9851 242.1921 L 332.9717 242.5757 L 332.5454 241.9522 L 331.9517 243.997 L 331.249 245.5566 L 328.6862 248.0173 L 326.2319 248.1233 L 324.9071 250.4123 L 323.4156 250.2372 L 324.9479 252.2819 L 324.6195 254.1883 L 323.2081 255.3854 L 322.5513 255.1577 L 321.1175 252.2653 L 318.6349 250.8353 L 317.5059 251.4754 L 317.2524 252.1515 L 316.2095 252.8599 L 316.1004 251.7968 L 314.5912 249.5769 L 311.97 249.8011 L 310.9395 249.2836 L 309.1248 249.7687 L 308.7387 248.9534 L 307.1315 249.9473 L 306.769 252.2977 L 305.6919 253.19 L 302.1611 253.3818 L 301.7 255.7234 L 302.1781 257.3242 L 300.4672 260.172 L 299.2115 260.6729 L 299.0447 262.2702 L 300.1907 261.6099 L 300.6347 262.2246 L 300.7496 264.0619 L 301.4465 264.7388 L 301.4872 265.8387 L 300.7267 265.9078 L 299.0906 264.8325 L 297.7777 264.4244 L 297.2589 263.3534 L 296.0609 263.0312 L 296.8786 264.6083 L 296.4931 265.4306 L 294.1143 267.8957 L 292.2365 268.3598 L 291.4182 267.492 L 287.3462 266.6776 L 286.3321 268.7758 L 284.8518 269.9369 L 284.5063 268.6496 L 283.2394 266.8116 L 282.7612 266.9508 L 281.1883 265.1416 L 282.2312 263.2764 L 284.6212 261.6379 L 284.7539 261.1861 L 284.149 259.2963 L 283.4233 258.3751 L 283.2216 256.7743 L 284.0341 257.2673 L 285.232 257.1981 L 285.3759 255.7681 L 283.5907 255.8907 L 282.9162 255.17 L 282.6975 253.7768 L 282.2082 253.9642 L 281.1081 250.9982 L 282.1156 249.7232 L 282.8591 248.0865 L 281.8969 247.5322 L 281.6723 246.1634 L 283.6886 244.856 L 284.8458 244.9129 L 286.1824 244.2903 L 286.453 242.2858 L 286.0786 241.1089 L 284.7539 239.9644 L 283.7346 237.5571 L 284.126 236.4616 L 284.0511 235.0893 L 283.527 234.7023 L 283.0088 233.1225 L 283.7346 230.6784 L 284.7999 230.6259 L 285.5775 229.787 L 286.6205 227.9252 L 286.0037 226.5285 L 286.5745 224.5582 L 287.582 222.6273 L 286.9259 221.0309 L 286.2802 220.4284 L 285.5256 218.6446 L 285.8369 217.5902 L 284.5464 216.4746 L 284.8117 215.5008 L 284.5871 214.3817 L 282.9859 213.0664 L 283.6479 209.0793 L 282.7665 207.0354 L 280.3476 204.6982 L 281.0963 203.4932 L 278.2282 201.6324 L 278.2104 200.7733 L 277.5307 200.2601 L 277.1681 198.1681 L 275.5899 197.6672 L 275.561 196.6242 L 274.4031 196.4009 L 273.9309 195.2809 L 274.2363 194.2099 L 272.1281 193.9656 L 271.8686 192.9971 L 272.3356 190.7781 L 273.4758 188.9951 L 272.6752 189.3244 L 271.4601 186.1736 L 271.1199 184.6385 L 271.114 181.5368 L 270.3594 180.7916 L 271.7878 180.1322 L 273.24 180.2425 L 274.5877 178.7074 L 275.6648 178.809 L 283.0719 174.3762 L 284.5411 172.8131 L 286.0615 172.3244 L 286.1016 170.2937 L 286.6205 169.439 L 287.2424 167.3995 L 287.2713 164.888 L 288.1409 161.591 L 287.9682 160.675 L 289.4774 158.4446 L 289.5635 157.7817 L 290.8021 155.5023 L 290.3588 154.5171 L 290.4048 153.1501 L 291.1936 151.3751 L 291.6316 152.9181 L 292.1268 152.4907 L 292.0638 151.4443 L 293.2907 151.0213 L 292.2135 152.2587 L 293.3248 153.5652 L 294.264 152.3646 L 294.1543 153.2885 L 294.6902 153.5853 L 295.1566 152.7709 L 294.88 151.5301 L 295.5769 149.3487 L 296.5391 147.5211 L 296.3026 146.8004 L 296.9535 145.9011 L 298.7452 144.9658 L 300.0699 145.5963 L 301.4872 145.3722 L 302.9787 144.359 L 305.2656 144.0332 Z"/>
</svg>