<?xml version="1.0" encoding="UTF-8" standalone="no"?><svg xmlns="http://www.w3.org/2000/svg" xmlns:xlink="http://www.w3.org/1999/xlink" contentScriptType="text/ecmascript" zoomAndPan="magnify" contentStyleType="text/css" id="图层_1" mapName="青岛" mapType="省市地图" enable-background="new 0 0 800 660" version="1.1" xml:space="preserve" preserveAspectRatio="xMidYMid meet" viewBox="0 0 800 660" x="0px" y="0px"><path  id="_u57ce__u9633__u533a_" title="城阳区" name="城阳区" stroke-miterlimit="10" stroke="#FFFFFF" fill="#D3D3D3" d="M 401.4015 332.8467 L 401.3075 335.522 L 400.4467 335.4704 L 400.5448 337.1309 L 401.6487 338.5899 L 402.0025 340.5566 L 403.5198 342.3504 L 403.085 343.4806 L 404.0441 346.9935 L 403.1446 349.578 L 401.4526 353.0455 L 401.964 354.4994 L 399.2362 358.562 L 396.8963 358.8564 L 392.1609 358.562 L 389.885 358.1002 L 384.4549 360.0452 L 383.8496 363.2369 L 380.7383 367.312 L 380.0052 370.0137 L 378.2319 371.8785 L 377.7334 373.7262 L 374.3791 377.7741 L 372.397 379.1255 L 371.3698 378.7326 L 369.3539 379.5815 L 368.8595 378.4498 L 366.4215 376.5498 L 364.8273 377.5372 L 361.5966 378.0396 L 361.0212 376.1744 L 362.2231 374.0148 L 361.6521 372.6465 L 360.4287 372.6407 L 359.7895 371.1856 L 357.4452 368.9575 L 357.2661 367.8837 L 354.5553 368.3916 L 352.1344 368.0913 L 351.9556 366.9831 L 350.4935 365.4186 L 347.4419 365.742 L 345.9501 367.0637 L 346.5041 368.6282 L 344.8673 369.7368 L 345.0294 370.7645 L 341.9819 371.0128 L 340.5712 370.6202 L 338.9899 376.4403 L 332.5537 367.6815 L 328.4707 368.8476 L 326.3354 370.1638 L 325.2142 372.4502 L 325.4913 375.1351 L 326.5952 378.1034 L 327.8867 378.2246 L 329.9965 379.6914 L 330.687 380.8347 L 330.7766 383.6536 L 329.8729 384.8838 L 324.7241 384.6355 L 322.8871 386.9343 L 321.7662 387.0731 L 320.9306 384.797 L 319.3367 386.2297 L 316.8946 385.9869 L 315.8629 383.4456 L 317.0478 381.7935 L 316.3277 380.0726 L 311.895 379.7261 L 310.6545 380.8292 L 309.2139 383.4397 L 307.4623 383.9191 L 306.3029 382.6772 L 305.5313 377.3815 L 304.3464 375.3142 L 301.5675 375.2391 L 294.5221 378.0455 L 292.5656 379.8302 L 289.7909 383.6071 L 284.4633 387.4485 L 283.2144 389.2683 L 280.7637 385.6232 L 278.2148 384.3582 L 277.1578 383.0006 L 278.8328 380.9332 L 281.2623 381.3028 L 281.663 379.4603 L 281.0151 378.0803 L 279.745 377.6123 L 276.8082 378.0514 L 276.1094 376.1341 L 278.6196 374.5751 L 278.9394 372.6868 L 277.861 372.1961 L 275.534 372.7044 L 274.1018 370.7125 L 274.413 369.5174 L 276.169 370.4469 L 275.8919 365.1011 L 275.3763 365.1358 L 274.2295 359.8892 L 276.0751 358.2042 L 277.8313 359.768 L 278.4024 357.1886 L 279.225 355.6823 L 277.5627 354.9323 L 276.5398 353.582 L 277.6992 352.1973 L 283.8579 349.9471 L 284.9363 347.3165 L 286.1938 347.53 L 286.0872 345.7765 L 289.8423 345.667 L 289.5992 343.9248 L 292.4635 342.6734 L 293.8316 340.7353 L 293.4138 338.4691 L 295.2638 337.7366 L 295.1528 337.0272 L 297.1733 336.3526 L 296.9132 334.7438 L 298.0171 332.8987 L 299.4363 332.668 L 299.3383 331.3418 L 300.7449 330.7595 L 300.8259 328.1827 L 302.8291 328.3669 L 302.842 324.4992 L 303.9926 321.4214 L 305.3522 318.8336 L 304.5639 316.5344 L 304.534 310.0177 L 303.6561 308.1396 L 306.2859 306.4575 L 306.3114 309.0614 L 311.6689 310.83 L 313.9067 309.9891 L 314.934 318.0326 L 313.1947 317.9923 L 315.5605 318.9431 L 316.059 321.4155 L 318.433 321.4675 L 318.4715 322.0956 L 321.1141 322.1359 L 321.8557 323.6924 L 321.9879 325.7499 L 323.9696 326.5801 L 324.6816 328.9379 L 326.0242 330.0102 L 328.0955 330.4713 L 327.7758 327.0298 L 330.2822 327.243 L 330.4058 326.5398 L 333.517 326.5167 L 335.1667 327.4968 L 338.3589 327.5199 L 338.3804 332.1721 L 340.8651 334.9225 L 343.235 335.136 L 342.7916 337.281 L 343.4651 339.0514 L 345.5749 338.9477 L 345.2977 335.7297 L 346.4486 336.7906 L 347.6635 336.4563 L 349.0784 333.4118 L 350.6 332.7544 L 352.5692 332.8639 L 354.3636 330.6211 L 355.7873 327.6869 L 356.3072 325.2657 L 353.1147 323.7671 L 352.6543 321.6287 L 353.3874 319.1566 L 354.7855 319.2833 L 356.3924 320.4933 L 356.2732 321.8825 L 357.296 323.6517 L 359.0649 323.4675 L 359.0051 326.1249 L 359.8321 327.1448 L 361.1873 326.2344 L 364.5331 328.6035 L 367.44 329.5777 L 369.5371 328.0329 L 371.5618 327.2661 L 371.9111 326.0439 L 372.5803 327.9231 L 373.7696 327.3181 L 374.4002 329.503 L 373.535 332.0857 L 374.0805 332.9448 L 375.5382 332.9218 L 375.9859 333.8271 L 378.2619 333.8674 L 379.2166 332.4548 L 384.4591 332.4028 L 385.0815 331.1518 L 383.9561 330.8808 L 384.1393 329.7912 L 385.5885 330.4252 L 387.3533 330.0447 L 387.0973 328.6555 L 388.9516 329.1397 L 390.6906 331.1748 L 390.7246 332.9679 L 392.4551 334.023 L 394.2155 334.1036 L 395.7242 332.178 L 394.8546 332.3277 L 395.0252 330.431 L 394.3561 329.8315 L 394.8846 328.1307 L 398.3795 330.2351 L 398.3924 331.2902 L 400.174 332.6738 L 401.4015 332.8467 Z"/>
<path  id="_u9ec4__u5c9b__u533a_" title="黄岛区" name="黄岛区" stroke-miterlimit="10" stroke="#FFFFFF" fill="#D3D3D3" d="M 166.9368 437.4145 L 167.8446 437.8544 L 168.1088 439.3878 L 170.3125 439.093 L 171.6041 440.8696 L 172.4094 443.6189 L 174.1272 443.7807 L 174.1572 445.6386 L 177.6351 444.8923 L 179.374 446.5476 L 179.6383 448.7241 L 181.3943 448.047 L 182.2724 448.9615 L 184.5099 448.6373 L 185.0298 446.5883 L 184.9532 444.1166 L 186.509 441.2226 L 188.0007 441.1128 L 189.0791 442.6407 L 193.5373 442.9069 L 193.3541 442.2008 L 195.221 440.9564 L 195.4213 439.1911 L 196.2821 438.0049 L 194.7648 436.5814 L 195.5875 434.4404 L 197.0622 434.4287 L 199.7218 432.7971 L 200.7747 433.7749 L 203.8689 431.1194 L 205.6633 430.6334 L 207.6709 431.4142 L 207.9052 432.6524 L 210.16 434.3247 L 210.3858 436.425 L 211.3065 436.1877 L 213.199 433.8445 L 215.3472 434.5155 L 215.3727 433.5552 L 218.71 431.8713 L 220.2529 432.9418 L 220.9519 431.096 L 223.5006 430.0258 L 225.896 430.5001 L 228.6878 429.534 L 230.755 427.6252 L 234.4801 426.7631 L 236.3897 425.9013 L 237.8688 429.2102 L 240.3279 426.9539 L 240.0722 424.97 L 240.7883 423.2637 L 238.8832 419.886 L 240.4304 419.6025 L 241.4233 421.8175 L 244.748 422.0028 L 244.9353 420.8404 L 246.6106 420.6148 L 247.9573 418.8452 L 246.6402 412.7214 L 244.6115 412.2588 L 247.4629 410.9291 L 247.4884 407.3275 L 248.5797 407.3448 L 248.6223 405.2408 L 247.0879 404.8994 L 246.9599 403.8304 L 248.0169 399.848 L 249.9775 399.4609 L 252.4839 401.9344 L 254.7469 401.8593 L 256.3027 400.8943 L 258.8728 401.2236 L 260.6032 402.6511 L 264.2561 401.4374 L 266.2338 402.3332 L 267.7596 403.9633 L 269.7798 405.0093 L 274.4896 406.0732 L 276.5228 410.9752 L 276.753 415.0689 L 277.8099 415.8204 L 283.6407 416.7053 L 286.441 417.856 L 289.1177 422.454 L 290.8182 423.0092 L 292.425 424.4551 L 292.5016 426.5085 L 294.5433 428.3771 L 298.2132 429.2274 L 308.3487 429.3604 L 310.9572 430.6045 L 311.3706 432.5484 L 310.8463 435.2274 L 309.8618 436.1415 L 307.9908 436.2862 L 307.7732 438.0859 L 309.2779 439.3823 L 308.5788 440.8809 L 309.1499 441.5237 L 306.0853 444.5388 L 306.0727 446.7388 L 300.2845 453.072 L 298.6096 452.9274 L 299.2745 454.3055 L 301.2948 454.2707 L 303.2298 453.3441 L 307.0701 450.2352 L 309.0433 447.9137 L 311.9375 445.2567 L 315.2493 443.6533 L 317.5892 446.9585 L 317.5892 447.6068 L 315.0872 450.7505 L 312.9945 455.643 L 312.6918 459.1291 L 313.3098 460.1425 L 314.6694 459.7602 L 315.0787 456.6446 L 316.3147 455.6199 L 315.9014 453.1588 L 317.6063 452.3542 L 318.4844 454.6296 L 319.1705 454.9537 L 321.2333 454.0737 L 320.0827 451.0285 L 320.9479 449.5288 L 323.1173 448.0931 L 323.0193 446.7677 L 324.6305 446.2927 L 329.6727 447.5665 L 329.9751 449.4767 L 331.5904 451.9547 L 328.4578 463.0559 L 326.9789 464.4344 L 322.8446 465.3551 L 318.5651 465.0075 L 316.5449 465.384 L 313.7405 467.6202 L 312.9819 469.0569 L 312.3594 471.9824 L 310.1176 472.2314 L 308.6983 474.1377 L 305.6464 480.2222 L 302.143 482.9115 L 300.7918 485.5487 L 300.4422 487.4385 L 301.0135 489.7688 L 300.1653 492.2735 L 295.5321 493.9607 L 291.1805 493.5549 L 290.7756 492.146 L 291.7474 490.5573 L 291.9391 487.7516 L 295.2508 483.6245 L 295.7837 481.051 L 296.4869 480.0831 L 298.2173 479.5209 L 298.0682 476.9075 L 300.4891 476.4845 L 302.5563 475.2909 L 303.0123 472.6834 L 301.7466 472.0231 L 300.1994 473.0254 L 297.4927 473.7553 L 293.9041 475.9399 L 291.3085 481.2191 L 289.7442 481.6132 L 290.8055 482.6101 L 289.2328 483.3231 L 287.7237 486.0182 L 285.2346 486.4936 L 284.1266 485.166 L 283.6322 482.2508 L 282.4728 482.8188 L 283.8538 485.9197 L 281.9613 487.3861 L 279.809 486.5225 L 279.1141 486.9052 L 278.7136 491.0905 L 277.179 493.5662 L 275.5551 494.8129 L 272.7337 495.99 L 269.5966 495.9958 L 267.734 496.5525 L 266.2764 494.5811 L 264.2177 496.1233 L 261.9077 499.8577 L 260.2113 504.173 L 258.8217 506.8758 L 254.6703 516.9245 L 253.771 519.9071 L 253.801 523.7899 L 256.2261 526.5875 L 258.1867 530.9471 L 258.2378 532.4739 L 256.4947 534.4944 L 256.4348 537.2236 L 254.9389 539.5173 L 254.9686 542.8742 L 253.2681 543.4722 L 251.4311 549.8095 L 250.5104 551.837 L 250.3186 554.0739 L 247.6974 557.7637 L 246.4699 555.7937 L 245.0674 555.207 L 241.9221 556.9847 L 239.4968 556.9964 L 239.6248 555.422 L 240.8309 551.7384 L 238.7381 548.1424 L 236.9951 548.8221 L 235.8101 547.8344 L 236.3982 544.6398 L 233.6575 540.9577 L 232.3234 540.2201 L 227.3752 539.3836 L 226.1347 539.5521 L 224.0079 541.2829 L 223.0232 543.7396 L 222.8911 548.8628 L 223.9014 549.3389 L 224.4598 551.0935 L 225.5381 552.023 L 227.8652 552.2204 L 230.7336 551.6744 L 231.846 553.2371 L 231.7224 557.8043 L 229.5061 560.5936 L 223.7478 563.8889 L 222.4948 565.7779 L 221.9493 569.0096 L 220.1804 572.0152 L 219.929 575.6314 L 220.5512 577.0271 L 223.6841 578.9692 L 224.8517 580.7546 L 224.8517 582.4759 L 223.5775 586.3319 L 221.3653 586.8787 L 217.8618 587.1578 L 215.6966 588.711 L 211.0337 595.2211 L 208.4935 595.9949 L 207.641 595.4364 L 203.9373 591.1427 L 202.0233 590.5842 L 199.4873 592.6901 L 198.3622 592.5212 L 197.987 590.6308 L 198.4474 587.6233 L 197.8634 583.2263 L 196.4057 582.2723 L 194.7862 585.1106 L 192.3098 586.6634 L 189.8888 589.5372 L 190.328 591.8115 L 189.1557 591.8349 L 187.7065 593.5687 L 188.1328 594.5579 L 190.5538 595.8726 L 189.8547 599.7129 L 187.6939 601.4822 L 189.9487 605.8645 L 188.4652 607.5525 L 185.9335 608.0007 L 184.2671 604.7819 L 181.3816 607.5759 L 179.421 607.1683 L 176.7784 603.3793 L 176.3606 592.6901 L 170.4787 592.2945 L 167.1884 593.4987 L 157.3513 602.8904 L 156.0979 603.4086 L 151.8572 603.1581 L 148.9163 603.3503 L 145.6938 601.2786 L 143.661 598.4677 L 141.24 598.5084 L 140.004 596.7336 L 138.9086 596.9142 L 138.6699 599.1661 L 137.3358 602.1513 L 134.9489 602.8032 L 134.1647 599.5445 L 132.6856 598.9797 L 130.0473 601.8023 L 128.0101 602.1165 L 128.6281 604.2699 L 126.7485 604.066 L 125.8959 602.7625 L 124.6558 603.0303 L 122.8443 601.9711 L 117.8106 603.1639 L 117.3288 601.6452 L 117.9639 599.8993 L 117.4483 597.0248 L 113.5186 595.25 L 112.3037 593.5862 L 112.2015 589.7873 L 114.0385 587.4079 L 112.7811 586.3667 L 113.6762 585.7562 L 113.8254 583.616 L 114.5626 582.7725 L 114.047 581.4581 L 114.8527 579.5156 L 114.6736 576.0676 L 115.0828 572.0152 L 113.8935 569.3816 L 112.5679 567.9054 L 111.3959 563.3425 L 112.666 561.6688 L 113.1093 556.4387 L 112.2185 553.7428 L 113.493 551.0294 L 114.3113 551.407 L 114.8227 554.1087 L 117.2734 554.3819 L 119.6987 552.8188 L 120.2058 553.7253 L 123.9482 554.6375 L 125.4696 556.2061 L 125.5891 557.2869 L 127.1874 557.0081 L 128.4619 558.0772 L 131.2238 557.7926 L 131.7096 556.8569 L 134.4374 557.7344 L 135.1236 559.1524 L 138.6825 556.5082 L 140.7582 558.3039 L 141.5767 557.9146 L 142.4249 554.5211 L 141.9346 553.0221 L 139.0533 550.2047 L 136.3044 545.2378 L 135.0085 543.9546 L 132.5749 543.1122 L 133.7513 535.592 L 134.7997 534.6805 L 137.975 534.5527 L 139.7353 529.792 L 137.2548 526.2568 L 138.1626 521.4452 L 139.3261 521.6481 L 140.9928 520.0814 L 142.7702 516.1122 L 143.8186 515.6885 L 142.851 513.5764 L 144.4578 512.9787 L 148.473 509.4285 L 150.1054 509.5328 L 152.4497 510.9714 L 155.659 510.4202 L 155.5653 508.3492 L 157.1422 507.0556 L 158.5829 504.7586 L 158.6851 503.3549 L 160.5776 502.462 L 163.3567 502.5605 L 165.5601 504.7704 L 166.2037 506.3305 L 167.2906 506.5221 L 169.1787 505.2109 L 169.2556 504.2309 L 167.9086 503.1868 L 168.3604 502.1254 L 170.2911 503.2912 L 170.871 502.3053 L 172.3924 502.8967 L 171.9578 501.4527 L 172.7036 499.2084 L 171.8428 496.6221 L 171.8384 494.6796 L 171.1778 492.7895 L 171.6763 492.0588 L 169.8777 488.4299 L 168.1047 486.9111 L 167.3757 484.8126 L 167.6869 483.1898 L 166.6811 480.7383 L 165.1723 479.2601 L 164.6523 480.9177 L 162.6236 480.6742 L 163.1521 476.2468 L 161.7496 474.3234 L 162.7428 473.0716 L 161.5579 470.0531 L 159.5503 466.0388 L 158.0844 459.1002 L 158.7916 456.1759 L 158.4379 453.5236 L 159.2734 452.6611 L 158.2335 450.5363 L 157.543 450.8604 L 157.0527 448.3249 L 158.5914 446.2004 L 161.1915 444.9963 L 161.3066 443.283 L 164.0299 442.3858 L 164.6098 439.9957 L 165.8628 437.9064 L 166.9368 437.4145 Z M 224.5109 588.5656 L 224.66 587.4662 L 226.7146 585.5002 L 227.0681 586.4543 L 226.2498 588.362 L 225.3121 588.6645 L 225.4357 590.6132 L 223.8418 589.9558 L 224.5109 588.5656 Z M 171.9364 600.7896 L 172.9296 599.3522 L 174.2423 602.4073 L 173.7479 605.1313 L 172.8953 603.81 L 171.9364 600.7896 Z M 288.2906 538.8145 L 291.3381 533.5364 L 291.9265 531.2082 L 294.2409 530.1462 L 294.8504 531.4756 L 294.6924 534.4538 L 295.3915 538.0886 L 297.6334 541.6777 L 297.3906 543.3096 L 296.2781 544.7735 L 292.1863 547.4396 L 290.3963 547.6429 L 288.2395 546.1732 L 287.3488 543.6348 L 287.613 540.1853 L 288.2906 538.8145 Z M 201.2477 593.6851 L 201.073 595.506 L 200.425 594.2553 L 201.2477 593.6851 Z M 288.4697 485.6996 L 289.4371 485.5022 L 289.1006 486.847 L 288.4697 485.6996 Z M 294.4071 476.5889 L 295.1487 477.0756 L 294.3601 478.617 L 294.4071 476.5889 Z M 330.2737 473.0774 L 331.1175 471.9476 L 332.5622 473.6799 L 331.1389 475.1983 L 330.2737 473.0774 Z"/>
<path  id="_u5373__u58a8__u5e02_" title="即墨市" name="即墨市" stroke-miterlimit="10" stroke="#FFFFFF" fill="#D3D3D3" d="M 424.8523 334.7551 L 424.2343 335.3781 L 419.533 335.1474 L 418.6037 333.6367 L 418.3694 330.9961 L 418.8765 328.2058 L 417.5468 328.7705 L 416.4344 327.6755 L 414.8402 330.4772 L 414.6825 334.9166 L 411.9803 333.2675 L 408.089 333.3312 L 405.3098 332.5295 L 404.3169 333.3543 L 401.4015 332.8467 L 400.174 332.6738 L 398.3924 331.2902 L 398.3795 330.2351 L 394.8846 328.1307 L 394.3561 329.8315 L 395.0252 330.431 L 394.8546 332.3277 L 395.7242 332.178 L 394.2155 334.1036 L 392.4551 334.023 L 390.7246 332.9679 L 390.6906 331.1748 L 388.9516 329.1397 L 387.0973 328.6555 L 387.3533 330.0447 L 385.5885 330.4252 L 384.1393 329.7912 L 383.9561 330.8808 L 385.0815 331.1518 L 384.4591 332.4028 L 379.2166 332.4548 L 378.2619 333.8674 L 375.9859 333.8271 L 375.5382 332.9218 L 374.0805 332.9448 L 373.535 332.0857 L 374.4002 329.503 L 373.7696 327.3181 L 372.5803 327.9231 L 371.9111 326.0439 L 371.5618 327.2661 L 369.5371 328.0329 L 367.44 329.5777 L 364.5331 328.6035 L 361.1873 326.2344 L 359.8321 327.1448 L 359.0051 326.1249 L 359.0649 323.4675 L 357.296 323.6517 L 356.2732 321.8825 L 356.3924 320.4933 L 354.7855 319.2833 L 353.3874 319.1566 L 352.6543 321.6287 L 353.1147 323.7671 L 356.3072 325.2657 L 355.7873 327.6869 L 354.3636 330.6211 L 352.5692 332.8639 L 350.6 332.7544 L 349.0784 333.4118 L 347.6635 336.4563 L 346.4486 336.7906 L 345.2977 335.7297 L 345.5749 338.9477 L 343.4651 339.0514 L 342.7916 337.281 L 343.235 335.136 L 340.8651 334.9225 L 338.3804 332.1721 L 338.3589 327.5199 L 335.1667 327.4968 L 333.517 326.5167 L 330.4058 326.5398 L 330.2822 327.243 L 327.7758 327.0298 L 328.0955 330.4713 L 326.0242 330.0102 L 324.6816 328.9379 L 323.9696 326.5801 L 321.9879 325.7499 L 321.8557 323.6924 L 321.1141 322.1359 L 318.4715 322.0956 L 318.433 321.4675 L 316.059 321.4155 L 315.5605 318.9431 L 313.1947 317.9923 L 314.934 318.0326 L 313.9067 309.9891 L 311.6689 310.83 L 306.3114 309.0614 L 306.2859 306.4575 L 303.6561 308.1396 L 304.534 310.0177 L 304.5639 316.5344 L 305.3522 318.8336 L 303.9926 321.4214 L 301.9339 319.8883 L 300.0417 319.9173 L 298.7246 318.0443 L 295.447 317.2258 L 294.6798 316.252 L 295.6431 315.8543 L 295.1657 314.7768 L 292.7958 314.2066 L 292.7022 313.1636 L 290.8863 312.8699 L 290.8907 312.1898 L 288.4271 312.1612 L 286.8629 310.686 L 285.4011 304.7296 L 286.8714 302.3967 L 286.1723 298.9644 L 287.741 298.1638 L 288.3291 296.5975 L 290.0639 296.2924 L 290.051 293.9141 L 289.1899 293.6665 L 288.6062 291.4384 L 283.8708 291.1392 L 281.9528 290.4367 L 282.3022 286.5452 L 283.1888 285.5435 L 286.8544 284.2427 L 287.566 282.9074 L 287.4468 280.2368 L 288.0223 278.9074 L 289.0877 278.7924 L 291.5043 279.9376 L 292.7192 279.6153 L 293.5418 276.784 L 292.9068 275.3224 L 290.5795 273.9127 L 290.4943 270.242 L 287.8602 266.7273 L 287.9923 264.2596 L 288.9342 262.3845 L 288.3931 260.2622 L 284.9619 257.2258 L 283.9945 254.0864 L 286.6198 249.5675 L 287.3617 245.9341 L 287.4169 242.8823 L 289.2284 240.0085 L 290.6009 240.6754 L 293.4778 238.8362 L 296.3506 238.3707 L 297.8125 236.5663 L 300.5021 235.1471 L 301.3843 233.9173 L 300.6809 229.149 L 300.8729 227.6727 L 302.113 226.7304 L 303.2425 224.8407 L 304.615 223.9734 L 306.8739 223.7954 L 309.3119 221.3889 L 311.6178 221.4003 L 314.2816 222.6524 L 315.9228 225.2831 L 317.6318 226.6099 L 318.8978 226.6846 L 319.5625 225.0073 L 321.6937 226.2481 L 327.0855 226.7363 L 328.6113 226.2653 L 328.6624 224.9326 L 330.9384 224.8981 L 331.16 223.4336 L 332.8224 224.1917 L 334.199 223.9448 L 333.9477 225.0073 L 336.8631 224.0595 L 337.4811 222.7158 L 338.6276 222.9513 L 338.8789 224.9271 L 344.7226 225.4841 L 345.4428 221.5094 L 347.071 221.8943 L 347.0922 223.8299 L 345.9756 226.2653 L 349.0146 227.2017 L 350.519 224.2203 L 354.888 222.9912 L 354.9646 224.2836 L 356.4989 224.8868 L 356.2391 225.6335 L 360.126 227.1442 L 360.2795 227.9368 L 362.5429 227.1384 L 370.8372 226.8168 L 370.6581 228.9307 L 371.5744 230.407 L 372.5163 229.5797 L 375.6492 230.0565 L 375.7132 229.1087 L 377.7419 228.9937 L 378.2023 226.6099 L 379.8901 226.403 L 380.6232 224.7546 L 383.0868 222.1239 L 385.009 222.4056 L 387.7367 223.9965 L 388.5209 224.9729 L 388.3078 226.3283 L 389.7954 225.3922 L 391.8412 225.3808 L 391.8327 227.1842 L 390.5285 227.9598 L 391.8156 228.3733 L 393.2904 230.5854 L 394.1515 232.7512 L 393.4225 234.4806 L 392.4977 234.8252 L 392.3145 237.2101 L 393.6356 238.7329 L 393.5079 241.9338 L 393.9468 243.0775 L 397.9065 243.2156 L 399.3642 240.8248 L 403.102 240.1696 L 402.7911 236.5319 L 404.9604 235.8942 L 405.2117 234.5897 L 404.0441 232.7168 L 404.9775 232.3949 L 406.3711 233.4636 L 407.0446 231.8836 L 407.0831 234.1301 L 408.2977 236.2502 L 408.3488 237.365 L 411.4348 236.6355 L 413.0586 238.6293 L 414.1326 238.8475 L 415.2835 236.4513 L 416.9755 236.1927 L 416.9288 237.049 L 418.9235 237.0318 L 419.2602 237.4914 L 419.2814 241.4049 L 419.8271 242.4454 L 422.8658 240.6868 L 424.2469 240.7384 L 427.1623 238.8593 L 427.4136 237.5892 L 428.6285 237.9917 L 429.1314 236.9285 L 431.5735 236.9801 L 433.2359 235.2391 L 434.8087 234.5494 L 434.8301 233.6361 L 437.7455 233.6071 L 436.6797 230.5678 L 439.2287 228.27 L 439.2073 225.1626 L 444.3731 224.1056 L 446.4828 225.8115 L 445.5624 225.6562 L 446.1249 227.2534 L 447.4675 226.2539 L 448.3968 226.989 L 451.082 227.4944 L 452.7355 230.7747 L 454.9263 230.4359 L 458.0933 232.8029 L 458.984 234.9516 L 458.8264 236.0953 L 460.612 236.7904 L 478.1513 228.5114 L 480.474 229.264 L 482.5071 230.9472 L 486.6459 231.6595 L 487.6984 232.4868 L 489.6634 237.0376 L 489.4802 239.3877 L 490.0513 240.6234 L 495.3407 244.5662 L 497.3439 243.25 L 498.3882 243.25 L 500.1996 245.0607 L 501.8491 245.6986 L 506.2988 246.4516 L 507.7013 246.256 L 510.9105 247.8371 L 514.7422 252.8156 L 514.9128 254.6786 L 512.0999 258.2208 L 509.0949 262.5914 L 506.7891 266.8478 L 507.9611 270.0926 L 506.9083 272.135 L 506.9596 273.5329 L 510.4546 277.6988 L 510.74 279.011 L 509.3292 282.6887 L 506.2562 284.5767 L 504.837 288.2031 L 502.386 288.629 L 501.3461 286.2229 L 500.5575 285.8427 L 497.3908 286.0328 L 496.0738 287.3395 L 494.3093 287.8519 L 494.0195 289.412 L 496.6363 293.2981 L 497.02 296.9545 L 498.8826 298.9644 L 501.4997 298.5381 L 501.8065 299.5288 L 501.0989 301.2911 L 499.4921 302.5637 L 498.077 302.0052 L 498.4862 300.4561 L 496.922 299.379 L 496.2144 300.8245 L 492.7791 303.9979 L 489.5698 310.0294 L 491.1511 312.812 L 490.7333 315.0076 L 489.4247 316.0041 L 487.5067 316.3212 L 484.1779 318.3381 L 485.2008 316.9607 L 484.83 316.0447 L 481.4501 314.6673 L 479.4851 312.8812 L 478.9185 311.2218 L 478.8075 307.8518 L 477.9126 305.0981 L 480.747 301.7057 L 481.4202 299.1948 L 480.5805 297.2424 L 477.0175 294.1847 L 475.334 293.7357 L 474.9247 292.6993 L 476.0328 291.0183 L 476.1992 285.1062 L 475.7345 283.3564 L 474.5624 284.2888 L 472.6828 283.3908 L 472.2181 281.8427 L 453.2599 283.3219 L 452.5182 284.9678 L 452.9061 288.0071 L 453.8564 290.4309 L 453.4389 293.5918 L 450.9455 294.7894 L 447.0541 294.225 L 445.7327 295.089 L 444.3519 297.8471 L 444.0663 301.1585 L 441.5857 301.8496 L 439.6547 303.6408 L 438.308 306.6476 L 436.1128 308.4509 L 435.3841 309.8565 L 435.9296 314.9786 L 437.0379 316.7878 L 439.5995 317.929 L 441.4621 320.7123 L 443.167 320.0956 L 444.2665 320.9661 L 445.0507 324.6318 L 447.8128 328.7302 L 448.1237 330.3907 L 449.2661 331.6015 L 449.134 332.5643 L 447.5315 332.7489 L 447.4206 334.1845 L 441.283 332.501 L 439.1177 332.2761 L 434.7617 333.5213 L 432.6478 332.5182 L 428.7136 332.3567 L 427.8358 330.8866 L 426.7659 331.2323 L 424.8523 334.7551 Z M 516.5922 301.3603 L 514.2352 299.8397 L 510.74 300.4733 L 509.3422 301.2508 L 505.6893 300.8362 L 504.9306 299.7764 L 505.1949 298.5151 L 507.1895 296.8278 L 509.4147 297.2252 L 510.3181 296.563 L 510.1008 295.3076 L 511.03 294.6857 L 513.3189 295.7625 L 515.6929 298.9069 L 517.5129 299.0739 L 517.3934 300.9168 L 516.5922 301.3603 Z M 520.5005 273.9069 L 516.4345 275.0231 L 515.9101 272.8942 L 516.5452 272.4167 L 520.1937 273.1532 L 520.5005 273.9069 Z M 523.1816 291.5248 L 523.7826 291.8877 L 524.247 294.2137 L 522.6616 294.5477 L 523.1816 291.5248 Z M 500.8047 303.9232 L 501.7169 304.5971 L 500.9327 305.8642 L 500.1442 305.3863 L 500.8047 303.9232 Z M 480.4144 315.3991 L 481.9786 316.5457 L 481.7188 318.1308 L 480.0224 317.6869 L 479.4085 316.1656 L 480.4144 315.3991 Z M 502.6676 301.988 L 503.6479 302.8633 L 502.561 303.6987 L 501.2481 302.2012 L 502.6676 301.988 Z M 536.5392 252.8156 L 537.6091 254.3391 L 537.1957 255.5525 L 535.674 255.1214 L 536.5392 252.8156 Z"/>
<path  id="_u80f6__u5dde__u533a_" title="胶州区" name="胶州区" stroke-miterlimit="10" stroke="#FFFFFF" fill="#D3D3D3" d="M 166.9368 437.4145 L 167.0008 436.5466 L 164.9166 434.6198 L 165.3514 433.2194 L 163.3908 432.5019 L 161.072 433.3179 L 157.8498 431.7731 L 155.5738 429.2736 L 154.5765 430.1243 L 154.7512 431.3043 L 152.8461 431.5475 L 153.1103 429.6728 L 151.1412 429.5398 L 151.1156 428.759 L 147.9786 428.5796 L 147.5438 427.7175 L 144.0148 427.9489 L 143.486 423.1652 L 144.2191 422.6968 L 143.6181 419.2209 L 144.5559 418.3881 L 146.6274 417.9948 L 150.4547 415.7974 L 150.6168 412.9525 L 149.6195 412.3226 L 149.3297 410.1428 L 146.7936 406.1655 L 147.4202 404.7379 L 148.8479 404.9401 L 148.5026 402.5123 L 149.1976 400.2007 L 150.5784 398.6867 L 150.5784 396.1784 L 151.4991 396.2941 L 151.1667 393.5957 L 152.7266 393.1449 L 153.7835 390.9958 L 153.6259 388.656 L 154.3037 387.5928 L 157.1126 386.6629 L 157.2873 385.4672 L 158.208 387.2291 L 159.9725 388.1766 L 161.8776 387.1134 L 163.4034 388.1648 L 165.9565 388.5402 L 166.6045 387.9455 L 170.2274 388.7424 L 171.2588 389.5455 L 171.5486 392.8446 L 172.9978 393.9597 L 174.1228 393.4686 L 175.4654 394.6358 L 177.1448 394.497 L 178.9307 393.6188 L 179.438 392.3996 L 182.1274 391.3251 L 182.8179 392.0125 L 185.0002 392.1974 L 187.2464 391.1401 L 187.6085 389.8806 L 189.1175 390.2677 L 189.2793 391.4001 L 190.3022 390.7819 L 193.2901 391.3251 L 193.3582 388.5633 L 195.5746 390.0136 L 195.8731 387.5525 L 198.4347 386.5879 L 198.3323 385.0167 L 196.9086 384.0231 L 197.2413 382.6772 L 196.0819 379.8763 L 197.6291 375.5738 L 195.0801 375.1523 L 193.7548 372.5253 L 192.8553 368.5532 L 191.939 367.468 L 193.4903 364.7374 L 194.4536 364.6971 L 195.4597 363.1963 L 195.0205 358.7755 L 197.0067 358.4177 L 198.0766 357.3153 L 198.0851 355.4575 L 198.9291 354.061 L 199.0228 350.6338 L 204.1971 343.7461 L 204.666 342.0157 L 207.3726 341.4678 L 207.6879 339.6106 L 209.0476 338.6247 L 214.989 335.9952 L 214.8143 333.8154 L 216.3572 330.3966 L 216.7239 326.4358 L 216.1611 324.5743 L 217.2523 320.7413 L 216.728 318.4706 L 218.5098 317.2661 L 218.1132 315.3936 L 218.9957 315.0361 L 218.3648 313.0138 L 219.8906 311.9708 L 222.776 311.5214 L 223.0702 312.0056 L 225.5167 311.677 L 227.1746 313.3306 L 229.681 311.8613 L 228.5727 308.0649 L 226.8508 306.8955 L 225.5211 305.1962 L 224.4513 305.0234 L 223.8972 301.6771 L 224.1271 299.1659 L 226.5099 298.9069 L 227.064 296.206 L 228.219 295.6764 L 228.462 293.16 L 229.553 291.8932 L 230.7081 289.2106 L 232.0081 290.0452 L 233.3592 288.6521 L 235.9763 287.9152 L 243.0472 287.8174 L 243.7333 289.2853 L 245.1059 289.3776 L 246.2779 288.462 L 246.0991 286.7638 L 247.9106 286.384 L 247.706 283.4831 L 248.7288 283.011 L 248.1663 281.4051 L 246.5466 281.0425 L 245.7794 277.883 L 247.5994 275.3282 L 246.0096 274.8851 L 245.8049 273.4641 L 246.5806 270.0003 L 246.8748 270.2764 L 253.4387 276.3295 L 255.1007 275.029 L 254.5467 274.0508 L 255.655 273.136 L 256.1024 274.1889 L 259.4271 276.8012 L 259.4993 278.05 L 261.6646 278.3203 L 262.4021 275.7886 L 266.0676 274.6551 L 266.0761 273.9014 L 276.5269 275.5985 L 276.8255 274.0508 L 279.208 272.4167 L 280.427 272.3881 L 280.1584 274.068 L 282.8606 274.1603 L 282.7329 275.2707 L 288.8449 275.9036 L 289.3734 276.899 L 291.0184 277.5494 L 291.5043 279.9376 L 289.0877 278.7924 L 288.0223 278.9074 L 287.4468 280.2368 L 287.566 282.9074 L 286.8544 284.2427 L 283.1888 285.5435 L 282.3022 286.5452 L 281.9528 290.4367 L 283.8708 291.1392 L 288.6062 291.4384 L 289.1899 293.6665 L 290.051 293.9141 L 290.0639 296.2924 L 288.3291 296.5975 L 287.741 298.1638 L 286.1723 298.9644 L 286.8714 302.3967 L 285.4011 304.7296 L 286.8629 310.686 L 288.4271 312.1612 L 290.8907 312.1898 L 290.8863 312.8699 L 292.7022 313.1636 L 292.7958 314.2066 L 295.1657 314.7768 L 295.6431 315.8543 L 294.6798 316.252 L 295.447 317.2258 L 298.7246 318.0443 L 300.0417 319.9173 L 301.9339 319.8883 L 303.9926 321.4214 L 302.842 324.4992 L 302.8291 328.3669 L 300.8259 328.1827 L 300.7449 330.7595 L 299.3383 331.3418 L 299.4363 332.668 L 298.0171 332.8987 L 296.9132 334.7438 L 297.1733 336.3526 L 295.1528 337.0272 L 295.2638 337.7366 L 293.4138 338.4691 L 293.8316 340.7353 L 292.4635 342.6734 L 289.5992 343.9248 L 289.8423 345.667 L 286.0872 345.7765 L 286.1938 347.53 L 284.9363 347.3165 L 283.8579 349.9471 L 277.6992 352.1973 L 276.5398 353.582 L 277.5627 354.9323 L 279.225 355.6823 L 278.4024 357.1886 L 277.8313 359.768 L 276.0751 358.2042 L 274.2295 359.8892 L 275.3763 365.1358 L 275.8919 365.1011 L 276.169 370.4469 L 274.413 369.5174 L 274.1018 370.7125 L 275.534 372.7044 L 277.861 372.1961 L 278.9394 372.6868 L 278.6196 374.5751 L 276.1094 376.1341 L 276.8082 378.0514 L 279.745 377.6123 L 281.0151 378.0803 L 281.663 379.4603 L 281.2623 381.3028 L 278.8328 380.9332 L 277.1578 383.0006 L 278.2148 384.3582 L 280.7637 385.6232 L 283.2144 389.2683 L 283.8068 400.1776 L 281.9954 403.4316 L 279.843 405.229 L 274.4896 406.0732 L 269.7798 405.0093 L 267.7596 403.9633 L 266.2338 402.3332 L 264.2561 401.4374 L 260.6032 402.6511 L 258.8728 401.2236 L 256.3027 400.8943 L 254.7469 401.8593 L 252.4839 401.9344 L 249.9775 399.4609 L 248.0169 399.848 L 246.9599 403.8304 L 247.0879 404.8994 L 248.6223 405.2408 L 248.5797 407.3448 L 247.4884 407.3275 L 247.4629 410.9291 L 244.6115 412.2588 L 246.6402 412.7214 L 247.9573 418.8452 L 246.6106 420.6148 L 244.9353 420.8404 L 244.748 422.0028 L 241.4233 421.8175 L 240.4304 419.6025 L 238.8832 419.886 L 240.7883 423.2637 L 240.0722 424.97 L 240.3279 426.9539 L 237.8688 429.2102 L 236.3897 425.9013 L 234.4801 426.7631 L 230.755 427.6252 L 228.6878 429.534 L 225.896 430.5001 L 223.5006 430.0258 L 220.9519 431.096 L 220.2529 432.9418 L 218.71 431.8713 L 215.3727 433.5552 L 215.3472 434.5155 L 213.199 433.8445 L 211.3065 436.1877 L 210.3858 436.425 L 210.16 434.3247 L 207.9052 432.6524 L 207.6709 431.4142 L 205.6633 430.6334 L 203.8689 431.1194 L 200.7747 433.7749 L 199.7218 432.7971 L 197.0622 434.4287 L 195.5875 434.4404 L 194.7648 436.5814 L 196.2821 438.0049 L 195.4213 439.1911 L 195.221 440.9564 L 193.3541 442.2008 L 193.5373 442.9069 L 189.0791 442.6407 L 188.0007 441.1128 L 186.509 441.2226 L 184.9532 444.1166 L 185.0298 446.5883 L 184.5099 448.6373 L 182.2724 448.9615 L 181.3943 448.047 L 179.6383 448.7241 L 179.374 446.5476 L 177.6351 444.8923 L 174.1572 445.6386 L 174.1272 443.7807 L 172.4094 443.6189 L 171.6041 440.8696 L 170.3125 439.093 L 168.1088 439.3878 L 167.8446 437.8544 L 166.9368 437.4145 Z"/>
<path  id="_u83b1__u897f__u5e02_" title="莱西市" name="莱西市" stroke-miterlimit="10" stroke="#FFFFFF" fill="#D3D3D3" d="M 418.9235 237.0318 L 416.9288 237.049 L 416.9755 236.1927 L 415.2835 236.4513 L 414.1326 238.8475 L 413.0586 238.6293 L 411.4348 236.6355 L 408.3488 237.365 L 408.2977 236.2502 L 407.0831 234.1301 L 407.0446 231.8836 L 406.3711 233.4636 L 404.9775 232.3949 L 404.0441 232.7168 L 405.2117 234.5897 L 404.9604 235.8942 L 402.7911 236.5319 L 403.102 240.1696 L 399.3642 240.8248 L 397.9065 243.2156 L 393.9468 243.0775 L 393.5079 241.9338 L 393.6356 238.7329 L 392.3145 237.2101 L 392.4977 234.8252 L 393.4225 234.4806 L 394.1515 232.7512 L 393.2904 230.5854 L 391.8156 228.3733 L 390.5285 227.9598 L 391.8327 227.1842 L 391.8412 225.3808 L 389.7954 225.3922 L 388.3078 226.3283 L 388.5209 224.9729 L 387.7367 223.9965 L 385.009 222.4056 L 383.0868 222.1239 L 380.6232 224.7546 L 379.8901 226.403 L 378.2023 226.6099 L 377.7419 228.9937 L 375.7132 229.1087 L 375.6492 230.0565 L 372.5163 229.5797 L 371.5744 230.407 L 370.6581 228.9307 L 370.8372 226.8168 L 362.5429 227.1384 L 360.2795 227.9368 L 360.126 227.1442 L 356.2391 225.6335 L 356.4989 224.8868 L 354.9646 224.2836 L 354.888 222.9912 L 350.519 224.2203 L 349.0146 227.2017 L 345.9756 226.2653 L 347.0922 223.8299 L 347.071 221.8943 L 345.4428 221.5094 L 344.7226 225.4841 L 338.8789 224.9271 L 338.6276 222.9513 L 337.4811 222.7158 L 336.8631 224.0595 L 333.9477 225.0073 L 334.199 223.9448 L 332.8224 224.1917 L 331.16 223.4336 L 330.9384 224.8981 L 328.6624 224.9326 L 328.6113 226.2653 L 327.0855 226.7363 L 321.6937 226.2481 L 319.5625 225.0073 L 318.8978 226.6846 L 317.6318 226.6099 L 315.9228 225.2831 L 314.2816 222.6524 L 316.3106 223.2842 L 317.3165 222.503 L 318.007 219.8269 L 318.9489 218.7586 L 321.4294 219.1721 L 322.9426 218.7242 L 325.031 216.7718 L 325.3466 212.3163 L 326.6123 209.9222 L 326.5057 208.395 L 325.146 206.0819 L 322.026 204.2108 L 320.7944 199.9578 L 319.9717 199.0455 L 320.1805 196.446 L 319.3282 195.0576 L 319.618 189.9168 L 319.6095 184.3413 L 320.4535 183.3375 L 319.8141 181.1698 L 320.0613 178.4344 L 319.4133 175.5272 L 318.7657 175.0339 L 317.8749 171.8462 L 318.3649 171.0266 L 317.1503 168.2004 L 316.6045 160.8468 L 316.7921 159.3566 L 319.4732 153.5581 L 320.2915 147.3827 L 322.1584 141.8098 L 322.1241 140.6473 L 323.245 134.5946 L 323.6373 130.112 L 324.7198 127.0953 L 325.7344 125.5842 L 325.6319 123.5297 L 323.5222 120.4566 L 321.8939 119.3235 L 321.5574 117.6528 L 322.0645 115.6385 L 323.1129 114.8262 L 326.5741 113.5616 L 327.8186 112.2461 L 329.6556 106.3827 L 332.6221 101.9045 L 332.8009 98.5421 L 331.126 95.4258 L 328.3897 92.2301 L 328.5004 90.8695 L 329.8259 88.8919 L 333.709 86.9542 L 333.7686 84.9194 L 331.4841 84.2451 L 329.2164 84.7421 L 328.3726 83.1648 L 326.6422 83.5134 L 327.0045 84.4792 L 325.3166 85.5365 L 322.3458 85.2453 L 319.6053 82.4678 L 320.6878 78.9018 L 322.2732 78.9417 L 325.3293 77.9478 L 326.5568 75.4622 L 325.4062 75.1937 L 324.575 73.4798 L 320.9479 71.9145 L 318.6377 72.2573 L 317.2569 73.2227 L 314.2901 73.6684 L 313.8896 75.2966 L 311.1363 75.1538 L 310.0665 74.4854 L 310.5991 72.8513 L 309.265 70.161 L 307.9608 69.3384 L 305.8467 71.0692 L 303.4216 70.989 L 302.0919 70.2866 L 302.7821 66.2024 L 304.1162 65.7457 L 304.3805 63.4725 L 303.4556 60.8115 L 304.5384 58.4189 L 304.3123 56.9232 L 305.2201 54.6108 L 307.7946 53.7201 L 307.3173 51.882 L 308.6129 50.5749 L 308.1696 47.5781 L 308.9027 43.8912 L 308.4852 43.3378 L 309.6572 40.3761 L 311.392 41.6601 L 312.1378 42.961 L 313.6595 42.5219 L 316.1357 44.3479 L 317.197 44.5021 L 319.226 42.4589 L 319.243 41.392 L 322.0219 38.4761 L 322.755 40.4105 L 324.0336 38.5102 L 326.6422 38.9782 L 327.5585 37.9568 L 327.8186 40.5475 L 327.1067 42.1849 L 327.55 43.2294 L 327.6011 46.1227 L 328.3001 46.8877 L 328.3726 44.5361 L 330.3629 45.3693 L 331.2795 45.1184 L 332.7243 47.4869 L 335.7633 45.5008 L 336.7351 47.4528 L 335.9083 48.8683 L 337.1995 48.3318 L 336.8587 52.4929 L 339.74 54.6738 L 339.4074 56.1351 L 340.4091 58.2764 L 341.5086 57.4139 L 341.3383 55.964 L 342.9493 55.6099 L 343.107 53.2008 L 344.2537 49.5586 L 346.1929 48.1831 L 348.4603 47.949 L 350.3059 48.8053 L 351.2862 48.3431 L 354.0098 51.1913 L 356.9722 51.6593 L 358.0761 48.7313 L 356.4778 45.1983 L 358.6856 46.0142 L 359.5124 44.5933 L 361.2214 45.2895 L 363.4721 44.4336 L 363.2971 43.7942 L 365.3728 43.6857 L 365.586 41.5916 L 366.5707 41.2551 L 367.4911 42.9211 L 369.3921 42.9097 L 371.8175 44.3365 L 373.9358 42.2479 L 376.1351 41.021 L 378.0062 41.232 L 380.086 40.0967 L 380.295 37.2496 L 383.5598 33.9348 L 383.8666 32.0008 L 387.4129 32.2062 L 387.4895 33.7466 L 389.446 34.0147 L 389.6847 36.4336 L 392.5232 38.3051 L 393.8359 38.0139 L 393.6826 39.3833 L 395.0807 45.1184 L 394.5349 48.2801 L 392.6724 48.3717 L 393.2179 50.7745 L 392.3186 53.4462 L 391.9862 56.4892 L 393.2222 57.5798 L 393.495 59.3041 L 392.6298 60.2464 L 393.2052 62.7016 L 392.941 64.4035 L 391.3001 65.3857 L 391.1336 66.7565 L 392.2375 68.9557 L 393.6016 69.2981 L 393.448 70.3379 L 395.6644 71.3948 L 398.1919 69.144 L 401.4526 69.5212 L 403.3832 67.916 L 404.1293 64.9576 L 405.1821 65.2147 L 405.7531 68.7385 L 410.0452 69.7783 L 411.162 69.241 L 412.0824 71.9431 L 410.8423 71.8632 L 410.5481 73.1256 L 411.9717 73.2912 L 413.2718 77.7764 L 412.6153 79.319 L 411.1365 79.7361 L 409.9386 81.8562 L 411.0299 82.4733 L 411.2301 86.0737 L 410.2583 86.5081 L 409.6403 89.3834 L 407.7692 89.7148 L 406.8271 88.6747 L 406.5972 87.1256 L 405.557 87.1655 L 404.6152 85.8566 L 402.8463 86.8567 L 402.3263 91.064 L 400.8175 92.6304 L 400.2761 99.1138 L 398.5542 100.9153 L 399.3513 104.1923 L 400.1951 105.3075 L 401.5207 105.3075 L 402.4158 107.195 L 401.7083 109.1167 L 402.5949 113.2298 L 403.639 113.5616 L 405.6295 116.4684 L 406.5203 116.1421 L 407.5091 118.654 L 409.4016 118.5394 L 409.5637 119.2836 L 414.2392 119.0602 L 414.9083 118.3105 L 415.7268 120.4336 L 415.4752 122.843 L 415.7268 126.4888 L 414.5803 127.3301 L 411.8352 128.1486 L 411.9759 129.099 L 409.6444 128.532 L 407.5135 129.6714 L 405.651 129.511 L 403.0424 130.4958 L 403.0083 132.3848 L 403.703 134.9671 L 403.1915 136.799 L 403.9246 138.1848 L 406.269 138.1332 L 408.3488 140.4639 L 406.0344 143.7742 L 406.6354 145.5497 L 408.3488 145.8189 L 410.2498 147.2051 L 412.1593 147.709 L 412.8455 149.0553 L 411.9248 150.6019 L 411.4433 153.0483 L 410.8338 153.4779 L 410.9659 156.0331 L 409.8875 157.9243 L 406.9125 159.2307 L 404.7344 158.4572 L 399.4279 158.6692 L 399.5005 161.4658 L 398.2175 164.1766 L 398.243 165.598 L 397.2075 167.5525 L 395.3021 168.6245 L 394.8846 170.734 L 393.2093 171.5137 L 394.2281 173.6294 L 394.1344 178.2908 L 394.7481 180.0458 L 395.8989 179.5126 L 396.8408 180.946 L 398.5756 180.82 L 399.1766 183.0163 L 402.3518 183.5268 L 403.9076 182.5863 L 405.084 183.4752 L 405.4164 185.9417 L 406.5673 187.473 L 407.1383 190.1692 L 407.9739 190.0948 L 408.5023 193.4337 L 407.7267 195.1722 L 405.6551 196.8075 L 406.6439 198.3914 L 409.2354 199.3956 L 412.189 199.3956 L 413.9964 200.1358 L 414.738 203.1488 L 416.7626 204.268 L 417.9132 206.495 L 416.3575 206.9144 L 416.9755 211.0817 L 418.186 210.0255 L 419.7332 209.9222 L 421.0077 208.7972 L 422.2352 209.842 L 423.7909 209.8131 L 422.9087 212.5459 L 423.9316 214.4118 L 424.4131 213.631 L 426.0968 215.4281 L 425.4958 218.2591 L 425.7856 222.0492 L 425.2401 223.2439 L 422.8403 222.6466 L 421.7493 223.2842 L 421.3911 228.0862 L 420.5429 229.3098 L 420.151 233.2453 L 419.2473 234.1759 L 418.9235 237.0318 Z"/>
<path  id="_u5d02__u5c71__u533a_" title="崂山区" name="崂山区" stroke-miterlimit="10" stroke="#FFFFFF" fill="#D3D3D3" d="M 377.7334 373.7262 L 378.2319 371.8785 L 380.0052 370.0137 L 380.7383 367.312 L 383.8496 363.2369 L 384.4549 360.0452 L 389.885 358.1002 L 392.1609 358.562 L 396.8963 358.8564 L 399.2362 358.562 L 401.964 354.4994 L 401.4526 353.0455 L 403.1446 349.578 L 404.0441 346.9935 L 403.085 343.4806 L 403.5198 342.3504 L 402.0025 340.5566 L 401.6487 338.5899 L 400.5448 337.1309 L 400.4467 335.4704 L 401.3075 335.522 L 401.4015 332.8467 L 404.3169 333.3543 L 405.3098 332.5295 L 408.089 333.3312 L 411.9803 333.2675 L 414.6825 334.9166 L 414.8402 330.4772 L 416.4344 327.6755 L 417.5468 328.7705 L 418.8765 328.2058 L 418.3694 330.9961 L 418.6037 333.6367 L 419.533 335.1474 L 424.2343 335.3781 L 424.8523 334.7551 L 426.0284 335.2569 L 426.1394 337.5172 L 427.6908 339.455 L 428.0915 341.4044 L 427.5161 343.7981 L 424.8435 347.0455 L 424.2043 348.6664 L 424.5197 350.2588 L 425.8667 352.0936 L 428.4409 351.4703 L 430.2949 349.7223 L 433.1592 350.5185 L 433.0441 357.4424 L 434.2417 360.0222 L 431.8037 363.7735 L 431.9787 365.7072 L 433.9649 368.4437 L 436.032 378.0224 L 435.0048 382.9314 L 435.5033 384.953 L 435.4692 387.8704 L 436.1427 391.0013 L 439.3564 392.7753 L 438.8579 394.3816 L 436.4666 394.5607 L 436.3389 396.2073 L 438.1163 396.9471 L 437.9202 400.5706 L 438.4146 401.5762 L 440.3156 400.7669 L 441.9139 401.1078 L 442.3655 403.518 L 440.2812 406.3852 L 435.742 407.414 L 433.1252 406.6914 L 430.2864 405.1192 L 429.4256 405.1942 L 423.4627 409.5703 L 421.3189 410.721 L 418.314 411.2411 L 415.309 409.0675 L 413.7362 408.7555 L 412.79 409.7033 L 411.618 413.4729 L 409.4101 415.4564 L 405.5444 415.7395 L 403.7585 414.6756 L 404.1889 411.9351 L 403.2215 410.5705 L 402.1261 410.9001 L 401.8618 412.9642 L 400.4127 413.93 L 397.1946 413.1319 L 396.2228 411.889 L 394.9612 412.6232 L 395.0038 413.6524 L 396.3208 415.942 L 395.1914 418.8972 L 393.2989 418.5675 L 392.6767 419.4696 L 389.2115 418.5152 L 386.846 419.6487 L 384.8983 419.6545 L 381.3989 421.1583 L 378.5132 419.5564 L 376.4548 419.1748 L 373.0917 420.8228 L 371.9111 422.8297 L 371.1014 422.7895 L 368.169 426.0053 L 365.7692 429.4589 L 364.7378 428.7532 L 363.5613 429.7306 L 362.9862 431.4318 L 363.766 432.6466 L 363.2545 433.7343 L 361.8479 432.0797 L 361.8224 430.7953 L 360.335 428.915 L 360.9105 428.6547 L 358.2464 425.3923 L 360.6418 424.2526 L 359.9258 419.4176 L 360.0793 418.0237 L 363.9495 417.0001 L 359.0136 407.0847 L 357.5518 405.8359 L 360.0153 403.5356 L 361.537 402.16 L 362.7772 399.9637 L 363.7193 400.3567 L 369.1578 400.1197 L 371.8131 397.1148 L 375.6533 395.0112 L 377.4266 394.7742 L 379.5364 392.0762 L 380.2906 388.6442 L 382.9203 387.0731 L 382.4729 384.9358 L 384.2503 382.7465 L 383.9646 380.4652 L 384.7021 378.9175 L 385.09 376.3132 L 381.3819 375.2911 L 377.7334 373.7262 Z M 405.1821 417.5209 L 406.7208 416.5434 L 406.4821 417.9314 L 407.9398 418.6196 L 408.089 419.6776 L 406.5502 420.3024 L 403.8351 419.215 L 405.1821 417.5209 Z M 485.6356 491.7168 L 487.6218 490.1167 L 488.7812 490.3603 L 487.0378 492.25 L 485.0986 493.601 L 485.6356 491.7168 Z M 446.2826 368.7495 L 447.8043 368.3569 L 447.3994 369.3962 L 446.2826 368.7495 Z M 469.5159 367.0121 L 470.4025 365.7017 L 470.9609 366.4634 L 470.4791 369.0267 L 469.6013 369.5749 L 469.5159 367.0121 Z M 505.4805 386.3337 L 506.8402 386.1777 L 506.9937 387.8759 L 505.4805 386.3337 Z M 380.5337 466.4325 L 382.2172 466.8903 L 382.034 467.7997 L 380.4398 467.5854 L 380.5337 466.4325 Z M 457.5434 365.5918 L 458.5152 369.4596 L 458.1955 371.3303 L 456.5672 370.4814 L 455.6168 368.2474 L 456.7633 365.0666 L 457.5434 365.5918 Z M 442.8602 347.6571 L 443.9171 347.1378 L 444.3049 349.9991 L 442.6596 350.4434 L 442.8602 347.6571 Z"/>
<path  id="_u674e__u6ca7__u533a_" title="李沧区" name="李沧区" stroke-miterlimit="10" stroke="#FFFFFF" fill="#D3D3D3" d="M 338.9899 376.4403 L 340.5712 370.6202 L 341.9819 371.0128 L 345.0294 370.7645 L 344.8673 369.7368 L 346.5041 368.6282 L 345.9501 367.0637 L 347.4419 365.742 L 350.4935 365.4186 L 351.9556 366.9831 L 352.1344 368.0913 L 354.5553 368.3916 L 357.2661 367.8837 L 357.4452 368.9575 L 359.7895 371.1856 L 360.4287 372.6407 L 361.6521 372.6465 L 362.2231 374.0148 L 361.0212 376.1744 L 361.5966 378.0396 L 364.8273 377.5372 L 366.4215 376.5498 L 368.8595 378.4498 L 369.3539 379.5815 L 371.3698 378.7326 L 372.397 379.1255 L 374.3791 377.7741 L 377.7334 373.7262 L 381.3819 375.2911 L 385.09 376.3132 L 384.7021 378.9175 L 383.9646 380.4652 L 384.2503 382.7465 L 382.4729 384.9358 L 382.9203 387.0731 L 380.2906 388.6442 L 379.5364 392.0762 L 377.4266 394.7742 L 375.6533 395.0112 L 371.8131 397.1148 L 369.1578 400.1197 L 363.7193 400.3567 L 362.7772 399.9637 L 361.537 402.16 L 360.0153 403.5356 L 357.262 403.1657 L 355.7318 401.5645 L 354.7004 397.0569 L 352.9188 395.9762 L 349.9054 396.1381 L 348.8141 397.2939 L 346.5722 396.9123 L 341.2699 393.8151 L 342.698 391.9257 L 342.4549 390.0539 L 343.0603 388.731 L 346.1459 387.6393 L 345.9457 385.7041 L 344.1812 380.9098 L 343.1924 379.3738 L 341.2147 378.444 L 338.9899 376.4403 Z"/>
<path  id="_u5e73__u5ea6__u5e02_" title="平度市" name="平度市" stroke-miterlimit="10" stroke="#FFFFFF" fill="#D3D3D3" d="M 246.8748 270.2764 L 247.4969 266.2325 L 244.684 266.4222 L 244.3942 268.223 L 237.7194 263.874 L 236.9607 261.4067 L 233.4913 261.7575 L 231.829 261.1133 L 231.9954 262.442 L 229.5574 263.3162 L 227.1661 265.4041 L 226.9318 266.6408 L 227.2686 270.9554 L 223.5091 271.289 L 222.7464 261.5389 L 222.0133 260.1531 L 215.3173 258.8189 L 213.246 258.0307 L 200.1053 255.403 L 197.0666 254.5981 L 193.4436 253.017 L 189.1813 250.723 L 185.4605 249.6074 L 182.0634 247.6243 L 180.4183 247.0266 L 180.5631 246.1011 L 177.6222 245.6239 L 175.3036 243.3361 L 173.1085 243.9283 L 173.1639 245.0434 L 171.4549 246.2333 L 169.8223 246.6472 L 169.5836 243.8938 L 170.3337 242.2271 L 170.5257 239.9569 L 166.7536 236.4571 L 166.4894 235.3079 L 164.3752 234.2392 L 162.5041 231.9928 L 159.998 230.7 L 157.2658 230.4817 L 154.1458 227.0351 L 153.7539 227.6782 L 150.5273 224.4733 L 149.3679 225.375 L 148.8649 224.347 L 146.0905 221.6475 L 144.8629 221.4867 L 144.5048 220.3496 L 141.6874 218.7931 L 140.4388 217.4494 L 140.7456 216.5939 L 139.4626 213.7574 L 137.9623 208.4815 L 136.9735 208.5617 L 135.9973 206.432 L 135.8015 204.4346 L 134.8467 203.8721 L 133.9175 200.2621 L 131.3303 197.8117 L 131.3899 196.5896 L 130.2264 195.5681 L 129.2461 192.1369 L 127.2429 191.1562 L 125.8448 191.5865 L 124.0803 188.735 L 121.4632 188.0813 L 120.2527 187.0485 L 116.9284 180.5102 L 115.7135 172.4769 L 116.3315 167.0482 L 118.0834 164.2451 L 117.7167 161.5115 L 118.0663 159.7807 L 119.7883 159.7921 L 120.7897 158.8066 L 120.1761 157.7295 L 118.8335 158.4228 L 118.3006 157.1794 L 121.216 156.5832 L 122.8613 158.1191 L 124.8219 158.7549 L 125.9088 157.6606 L 127.5667 154.1309 L 134.1817 138.7862 L 134.527 135.3447 L 134.7698 115.5872 L 133.4231 111.2335 L 130.968 106.4172 L 130.3245 103.9521 L 131.3688 100.9039 L 134.2542 90.3835 L 136.0443 87.9602 L 137.472 81.4219 L 138.6954 80.0789 L 140.0336 79.9646 L 140.2086 81.7932 L 141.9176 81.6903 L 142.8554 80.5704 L 145.7408 81.2677 L 146.0221 82.462 L 148.473 82.062 L 150.1268 82.7249 L 150.881 83.8276 L 151.9638 83.4848 L 155.693 85.5423 L 157.3639 85.6167 L 157.2362 87.0626 L 159.1839 87.2856 L 160.2708 86.1825 L 163.9489 85.2109 L 166.9157 83.8906 L 168.0748 86.537 L 168.3819 88.9205 L 170.8026 90.7267 L 173.1469 89.4632 L 175.9942 89.2292 L 176.1433 89.8694 L 179.5276 89.0402 L 181.4624 87.7485 L 181.9996 83.9423 L 185.1534 83.5936 L 188.8533 81.4105 L 191.0823 81.4563 L 192.8426 82.5019 L 192.8852 83.9994 L 195.2721 85.6108 L 195.2677 86.6513 L 197.8549 85.7654 L 202.0063 86.3026 L 203.8648 85.7595 L 211.1914 86.6912 L 213.2501 86.2854 L 213.7659 86.897 L 217.2054 87.3999 L 217.8149 88.4118 L 223.6072 88.726 L 227.2557 86.2796 L 228.0572 85.0109 L 230.836 84.2506 L 230.7935 82.5304 L 231.7482 83.0677 L 233.4188 81.7247 L 235.6437 81.2904 L 237.9495 82.4393 L 239.2155 79.8789 L 240.4856 79.9533 L 242.8725 82.0448 L 245.285 81.5706 L 246.0096 82.8677 L 247.8422 84.1477 L 249.9948 84.4338 L 251.7294 86.7425 L 253.4428 85.8566 L 253.4387 87.3486 L 254.6747 86.7198 L 255.7701 84.4052 L 257.0487 83.9708 L 256.7674 82.8278 L 258.2081 79.1703 L 263.2332 79.5933 L 265.0914 80.3246 L 265.7009 79.5647 L 268.5652 79.6277 L 272.5461 81.279 L 275.457 80.8905 L 276.9062 80.0734 L 278.4535 80.4788 L 282.5878 78.3818 L 283.5767 78.5876 L 283.7429 80.9132 L 284.3142 81.3706 L 287.3359 80.9249 L 287.7536 81.902 L 290.733 79.7819 L 290.3537 77.0677 L 291.7773 76.5363 L 292.1778 73.9083 L 294.2834 74.5938 L 295.0718 73.4571 L 296.9516 72.5316 L 297.7784 73.9654 L 301.0561 72.4514 L 302.0919 70.2866 L 303.4216 70.989 L 305.8467 71.0692 L 307.9608 69.3384 L 309.265 70.161 L 310.5991 72.8513 L 310.0665 74.4854 L 311.1363 75.1538 L 313.8896 75.2966 L 314.2901 73.6684 L 317.2569 73.2227 L 318.6377 72.2573 L 320.9479 71.9145 L 324.575 73.4798 L 325.4062 75.1937 L 326.5568 75.4622 L 325.3293 77.9478 L 322.2732 78.9417 L 320.6878 78.9018 L 319.6053 82.4678 L 322.3458 85.2453 L 325.3166 85.5365 L 327.0045 84.4792 L 326.6422 83.5134 L 328.3726 83.1648 L 329.2164 84.7421 L 331.4841 84.2451 L 333.7686 84.9194 L 333.709 86.9542 L 329.8259 88.8919 L 328.5004 90.8695 L 328.3897 92.2301 L 331.126 95.4258 L 332.8009 98.5421 L 332.6221 101.9045 L 329.6556 106.3827 L 327.8186 112.2461 L 326.5741 113.5616 L 323.1129 114.8262 L 322.0645 115.6385 L 321.5574 117.6528 L 321.8939 119.3235 L 323.5222 120.4566 L 325.6319 123.5297 L 325.7344 125.5842 L 324.7198 127.0953 L 323.6373 130.112 L 323.245 134.5946 L 322.1241 140.6473 L 322.1584 141.8098 L 320.2915 147.3827 L 319.4732 153.5581 L 316.7921 159.3566 L 316.6045 160.8468 L 317.1503 168.2004 L 318.3649 171.0266 L 317.8749 171.8462 L 318.7657 175.0339 L 319.4133 175.5272 L 320.0613 178.4344 L 319.8141 181.1698 L 320.4535 183.3375 L 319.6095 184.3413 L 319.618 189.9168 L 319.3282 195.0576 L 320.1805 196.446 L 319.9717 199.0455 L 320.7944 199.9578 L 322.026 204.2108 L 325.146 206.0819 L 326.5057 208.395 L 326.6123 209.9222 L 325.3466 212.3163 L 325.031 216.7718 L 322.9426 218.7242 L 321.4294 219.1721 L 318.9489 218.7586 L 318.007 219.8269 L 317.3165 222.503 L 316.3106 223.2842 L 314.2816 222.6524 L 311.6178 221.4003 L 309.3119 221.3889 L 306.8739 223.7954 L 304.615 223.9734 L 303.2425 224.8407 L 302.113 226.7304 L 300.8729 227.6727 L 300.6809 229.149 L 301.3843 233.9173 L 300.5021 235.1471 L 297.8125 236.5663 L 296.3506 238.3707 L 293.4778 238.8362 L 290.6009 240.6754 L 289.2284 240.0085 L 287.4169 242.8823 L 287.3617 245.9341 L 286.6198 249.5675 L 283.9945 254.0864 L 284.9619 257.2258 L 288.3931 260.2622 L 288.9342 262.3845 L 287.9923 264.2596 L 287.8602 266.7273 L 290.4943 270.242 L 290.5795 273.9127 L 292.9068 275.3224 L 293.5418 276.784 L 292.7192 279.6153 L 291.5043 279.9376 L 291.0184 277.5494 L 289.3734 276.899 L 288.8449 275.9036 L 282.7329 275.2707 L 282.8606 274.1603 L 280.1584 274.068 L 280.427 272.3881 L 279.208 272.4167 L 276.8255 274.0508 L 276.5269 275.5985 L 266.0761 273.9014 L 266.0676 274.6551 L 262.4021 275.7886 L 261.6646 278.3203 L 259.4993 278.05 L 259.4271 276.8012 L 256.1024 274.1889 L 255.655 273.136 L 254.5467 274.0508 L 255.1007 275.029 L 253.4387 276.3295 L 246.8748 270.2764 Z"/>
<path  id="_u5e02__u5317__u533a_" title="市北区" name="市北区" stroke-miterlimit="10" stroke="#FFFFFF" fill="#D3D3D3" d="M 359.9258 419.4176 L 357.5347 418.9664 L 356.0471 420.2504 L 353.5624 419.4059 L 351.785 419.3945 L 351.0859 420.8689 L 347.382 420.8517 L 346.7173 421.2912 L 347.2073 423.1711 L 346.3165 423.6974 L 346.3846 425.5483 L 344.6882 427.6944 L 343.4481 427.764 L 343.0303 426.7803 L 340.7159 426.5375 L 338.9385 427.2549 L 337.0122 426.7689 L 336.1256 425.6812 L 333.8112 426.8671 L 332.1744 427.0407 L 332.2172 425.6179 L 330.9087 426.0804 L 328.4366 424.0676 L 330.0817 423.4428 L 328.8882 422.6792 L 330.0561 420.4701 L 328.9181 419.8109 L 330.4228 418.573 L 330.3333 416.3295 L 332.507 414.8375 L 331.8805 413.155 L 332.8438 411.7212 L 334.2545 411.8424 L 335.1027 409.7322 L 335.5375 405.9113 L 336.3132 403.4257 L 339.9617 395.6759 L 341.2699 393.8151 L 346.5722 396.9123 L 348.8141 397.2939 L 349.9054 396.1381 L 352.9188 395.9762 L 354.7004 397.0569 L 355.7318 401.5645 L 357.262 403.1657 L 360.0153 403.5356 L 357.5518 405.8359 L 359.0136 407.0847 L 363.9495 417.0001 L 360.0793 418.0237 L 359.9258 419.4176 Z"/>
<path  id="_u5e02__u5357__u533a_" title="市南区" name="市南区" stroke-miterlimit="10" stroke="#FFFFFF" fill="#D3D3D3" d="M 359.9258 419.4176 L 360.6418 424.2526 L 358.2464 425.3923 L 360.9105 428.6547 L 360.335 428.915 L 361.8224 430.7953 L 361.8479 432.0797 L 360.6418 432.6004 L 358.7238 431.7153 L 355.7318 433.8387 L 353.7882 434.1221 L 351.1881 433.8097 L 351.5548 430.9919 L 350.4764 430.9341 L 346.3465 433.1791 L 345.8391 434.4404 L 346.828 435.7595 L 345.7199 437.2816 L 344.1513 437.1139 L 344.1683 435.887 L 342.9792 434.8279 L 340.8865 435.123 L 339.5909 436.7953 L 338.0563 437.293 L 337.4811 436.3961 L 338.8407 433.8097 L 337.3745 432.6063 L 335.337 433.9603 L 333.8112 434.0295 L 333.7557 430.8184 L 331.207 431.0209 L 330.2481 432.5078 L 330.5209 433.8211 L 329.2505 434.3594 L 326.8639 433.6244 L 325.6789 434.1683 L 326.1733 436.9747 L 324.6816 435.939 L 323.927 437.0212 L 323.245 435.4589 L 324.1572 433.7054 L 324.4855 430.2573 L 327.4308 426.6415 L 327.2984 425.0509 L 328.4366 424.0676 L 330.9087 426.0804 L 332.2172 425.6179 L 332.1744 427.0407 L 333.8112 426.8671 L 336.1256 425.6812 L 337.0122 426.7689 L 338.9385 427.2549 L 340.7159 426.5375 L 343.0303 426.7803 L 343.4481 427.764 L 344.6882 427.6944 L 346.3846 425.5483 L 346.3165 423.6974 L 347.2073 423.1711 L 346.7173 421.2912 L 347.382 420.8517 L 351.0859 420.8689 L 351.785 419.3945 L 353.5624 419.4059 L 356.0471 420.2504 L 357.5347 418.9664 L 359.9258 419.4176 Z"/>
</svg>